<?xml version="1.0" encoding="utf-8" standalone="no"?>
<!DOCTYPE svg PUBLIC "-//W3C//DTD SVG 1.1//EN"
  "http://www.w3.org/Graphics/SVG/1.1/DTD/svg11.dtd">
<!-- Created with matplotlib (https://matplotlib.org/) -->
<svg height="479.63625pt" version="1.1" viewBox="0 0 612.165625 479.63625" width="612.165625pt" xmlns="http://www.w3.org/2000/svg" xmlns:xlink="http://www.w3.org/1999/xlink">
 <metadata>
  <rdf:RDF xmlns:cc="http://creativecommons.org/ns#" xmlns:dc="http://purl.org/dc/elements/1.1/" xmlns:rdf="http://www.w3.org/1999/02/22-rdf-syntax-ns#">
   <cc:Work>
    <dc:type rdf:resource="http://purl.org/dc/dcmitype/StillImage"/>
    <dc:date>2020-11-17T16:08:06.399914</dc:date>
    <dc:format>image/svg+xml</dc:format>
    <dc:creator>
     <cc:Agent>
      <dc:title>Matplotlib v3.3.3, https://matplotlib.org/</dc:title>
     </cc:Agent>
    </dc:creator>
   </cc:Work>
  </rdf:RDF>
 </metadata>
 <defs>
  <style type="text/css">*{stroke-linecap:butt;stroke-linejoin:round;}</style>
 </defs>
 <g id="figure_1">
  <g id="patch_1">
   <path d="M 0 479.63625 
L 612.165625 479.63625 
L 612.165625 0 
L 0 0 
z
" style="fill:none;"/>
  </g>
  <g id="axes_1">
   <g id="patch_2">
    <path d="M 46.965625 442.08 
L 604.965625 442.08 
L 604.965625 7.2 
L 46.965625 7.2 
z
" style="fill:#ffffff;"/>
   </g>
   <g id="matplotlib.axis_1">
    <g id="xtick_1">
     <g id="line2d_1">
      <path clip-path="url(#p797a7bb1d3)" d="M 72.329261 442.08 
L 72.329261 7.2 
" style="fill:none;stroke:#b0b0b0;stroke-linecap:square;stroke-width:0.8;"/>
     </g>
     <g id="line2d_2">
      <defs>
       <path d="M 0 0 
L 0 3.5 
" id="m7b26f9de61" style="stroke:#000000;stroke-width:0.8;"/>
      </defs>
      <g>
       <use style="stroke:#000000;stroke-width:0.8;" x="72.329261" xlink:href="#m7b26f9de61" y="442.08"/>
      </g>
     </g>
     <g id="text_1">
      <!-- 0 -->
      <g transform="translate(69.148011 456.678437)scale(0.1 -0.1)">
       <defs>
        <path d="M 31.78125 66.40625 
Q 24.171875 66.40625 20.328125 58.90625 
Q 16.5 51.421875 16.5 36.375 
Q 16.5 21.390625 20.328125 13.890625 
Q 24.171875 6.390625 31.78125 6.390625 
Q 39.453125 6.390625 43.28125 13.890625 
Q 47.125 21.390625 47.125 36.375 
Q 47.125 51.421875 43.28125 58.90625 
Q 39.453125 66.40625 31.78125 66.40625 
z
M 31.78125 74.21875 
Q 44.046875 74.21875 50.515625 64.515625 
Q 56.984375 54.828125 56.984375 36.375 
Q 56.984375 17.96875 50.515625 8.265625 
Q 44.046875 -1.421875 31.78125 -1.421875 
Q 19.53125 -1.421875 13.0625 8.265625 
Q 6.59375 17.96875 6.59375 36.375 
Q 6.59375 54.828125 13.0625 64.515625 
Q 19.53125 74.21875 31.78125 74.21875 
z
" id="DejaVuSans-48"/>
       </defs>
       <use xlink:href="#DejaVuSans-48"/>
      </g>
     </g>
    </g>
    <g id="xtick_2">
     <g id="line2d_3">
      <path clip-path="url(#p797a7bb1d3)" d="M 157.01586 442.08 
L 157.01586 7.2 
" style="fill:none;stroke:#b0b0b0;stroke-linecap:square;stroke-width:0.8;"/>
     </g>
     <g id="line2d_4">
      <g>
       <use style="stroke:#000000;stroke-width:0.8;" x="157.01586" xlink:href="#m7b26f9de61" y="442.08"/>
      </g>
     </g>
     <g id="text_2">
      <!-- 100 -->
      <g transform="translate(147.47211 456.678437)scale(0.1 -0.1)">
       <defs>
        <path d="M 12.40625 8.296875 
L 28.515625 8.296875 
L 28.515625 63.921875 
L 10.984375 60.40625 
L 10.984375 69.390625 
L 28.421875 72.90625 
L 38.28125 72.90625 
L 38.28125 8.296875 
L 54.390625 8.296875 
L 54.390625 0 
L 12.40625 0 
z
" id="DejaVuSans-49"/>
       </defs>
       <use xlink:href="#DejaVuSans-49"/>
       <use x="63.623047" xlink:href="#DejaVuSans-48"/>
       <use x="127.246094" xlink:href="#DejaVuSans-48"/>
      </g>
     </g>
    </g>
    <g id="xtick_3">
     <g id="line2d_5">
      <path clip-path="url(#p797a7bb1d3)" d="M 241.702459 442.08 
L 241.702459 7.2 
" style="fill:none;stroke:#b0b0b0;stroke-linecap:square;stroke-width:0.8;"/>
     </g>
     <g id="line2d_6">
      <g>
       <use style="stroke:#000000;stroke-width:0.8;" x="241.702459" xlink:href="#m7b26f9de61" y="442.08"/>
      </g>
     </g>
     <g id="text_3">
      <!-- 200 -->
      <g transform="translate(232.158709 456.678437)scale(0.1 -0.1)">
       <defs>
        <path d="M 19.1875 8.296875 
L 53.609375 8.296875 
L 53.609375 0 
L 7.328125 0 
L 7.328125 8.296875 
Q 12.9375 14.109375 22.625 23.890625 
Q 32.328125 33.6875 34.8125 36.53125 
Q 39.546875 41.84375 41.421875 45.53125 
Q 43.3125 49.21875 43.3125 52.78125 
Q 43.3125 58.59375 39.234375 62.25 
Q 35.15625 65.921875 28.609375 65.921875 
Q 23.96875 65.921875 18.8125 64.3125 
Q 13.671875 62.703125 7.8125 59.421875 
L 7.8125 69.390625 
Q 13.765625 71.78125 18.9375 73 
Q 24.125 74.21875 28.421875 74.21875 
Q 39.75 74.21875 46.484375 68.546875 
Q 53.21875 62.890625 53.21875 53.421875 
Q 53.21875 48.921875 51.53125 44.890625 
Q 49.859375 40.875 45.40625 35.40625 
Q 44.1875 33.984375 37.640625 27.21875 
Q 31.109375 20.453125 19.1875 8.296875 
z
" id="DejaVuSans-50"/>
       </defs>
       <use xlink:href="#DejaVuSans-50"/>
       <use x="63.623047" xlink:href="#DejaVuSans-48"/>
       <use x="127.246094" xlink:href="#DejaVuSans-48"/>
      </g>
     </g>
    </g>
    <g id="xtick_4">
     <g id="line2d_7">
      <path clip-path="url(#p797a7bb1d3)" d="M 326.389058 442.08 
L 326.389058 7.2 
" style="fill:none;stroke:#b0b0b0;stroke-linecap:square;stroke-width:0.8;"/>
     </g>
     <g id="line2d_8">
      <g>
       <use style="stroke:#000000;stroke-width:0.8;" x="326.389058" xlink:href="#m7b26f9de61" y="442.08"/>
      </g>
     </g>
     <g id="text_4">
      <!-- 300 -->
      <g transform="translate(316.845308 456.678437)scale(0.1 -0.1)">
       <defs>
        <path d="M 40.578125 39.3125 
Q 47.65625 37.796875 51.625 33 
Q 55.609375 28.21875 55.609375 21.1875 
Q 55.609375 10.40625 48.1875 4.484375 
Q 40.765625 -1.421875 27.09375 -1.421875 
Q 22.515625 -1.421875 17.65625 -0.515625 
Q 12.796875 0.390625 7.625 2.203125 
L 7.625 11.71875 
Q 11.71875 9.328125 16.59375 8.109375 
Q 21.484375 6.890625 26.8125 6.890625 
Q 36.078125 6.890625 40.9375 10.546875 
Q 45.796875 14.203125 45.796875 21.1875 
Q 45.796875 27.640625 41.28125 31.265625 
Q 36.765625 34.90625 28.71875 34.90625 
L 20.21875 34.90625 
L 20.21875 43.015625 
L 29.109375 43.015625 
Q 36.375 43.015625 40.234375 45.921875 
Q 44.09375 48.828125 44.09375 54.296875 
Q 44.09375 59.90625 40.109375 62.90625 
Q 36.140625 65.921875 28.71875 65.921875 
Q 24.65625 65.921875 20.015625 65.03125 
Q 15.375 64.15625 9.8125 62.3125 
L 9.8125 71.09375 
Q 15.4375 72.65625 20.34375 73.4375 
Q 25.25 74.21875 29.59375 74.21875 
Q 40.828125 74.21875 47.359375 69.109375 
Q 53.90625 64.015625 53.90625 55.328125 
Q 53.90625 49.265625 50.4375 45.09375 
Q 46.96875 40.921875 40.578125 39.3125 
z
" id="DejaVuSans-51"/>
       </defs>
       <use xlink:href="#DejaVuSans-51"/>
       <use x="63.623047" xlink:href="#DejaVuSans-48"/>
       <use x="127.246094" xlink:href="#DejaVuSans-48"/>
      </g>
     </g>
    </g>
    <g id="xtick_5">
     <g id="line2d_9">
      <path clip-path="url(#p797a7bb1d3)" d="M 411.075657 442.08 
L 411.075657 7.2 
" style="fill:none;stroke:#b0b0b0;stroke-linecap:square;stroke-width:0.8;"/>
     </g>
     <g id="line2d_10">
      <g>
       <use style="stroke:#000000;stroke-width:0.8;" x="411.075657" xlink:href="#m7b26f9de61" y="442.08"/>
      </g>
     </g>
     <g id="text_5">
      <!-- 400 -->
      <g transform="translate(401.531907 456.678437)scale(0.1 -0.1)">
       <defs>
        <path d="M 37.796875 64.3125 
L 12.890625 25.390625 
L 37.796875 25.390625 
z
M 35.203125 72.90625 
L 47.609375 72.90625 
L 47.609375 25.390625 
L 58.015625 25.390625 
L 58.015625 17.1875 
L 47.609375 17.1875 
L 47.609375 0 
L 37.796875 0 
L 37.796875 17.1875 
L 4.890625 17.1875 
L 4.890625 26.703125 
z
" id="DejaVuSans-52"/>
       </defs>
       <use xlink:href="#DejaVuSans-52"/>
       <use x="63.623047" xlink:href="#DejaVuSans-48"/>
       <use x="127.246094" xlink:href="#DejaVuSans-48"/>
      </g>
     </g>
    </g>
    <g id="xtick_6">
     <g id="line2d_11">
      <path clip-path="url(#p797a7bb1d3)" d="M 495.762256 442.08 
L 495.762256 7.2 
" style="fill:none;stroke:#b0b0b0;stroke-linecap:square;stroke-width:0.8;"/>
     </g>
     <g id="line2d_12">
      <g>
       <use style="stroke:#000000;stroke-width:0.8;" x="495.762256" xlink:href="#m7b26f9de61" y="442.08"/>
      </g>
     </g>
     <g id="text_6">
      <!-- 500 -->
      <g transform="translate(486.218506 456.678437)scale(0.1 -0.1)">
       <defs>
        <path d="M 10.796875 72.90625 
L 49.515625 72.90625 
L 49.515625 64.59375 
L 19.828125 64.59375 
L 19.828125 46.734375 
Q 21.96875 47.46875 24.109375 47.828125 
Q 26.265625 48.1875 28.421875 48.1875 
Q 40.625 48.1875 47.75 41.5 
Q 54.890625 34.8125 54.890625 23.390625 
Q 54.890625 11.625 47.5625 5.09375 
Q 40.234375 -1.421875 26.90625 -1.421875 
Q 22.3125 -1.421875 17.546875 -0.640625 
Q 12.796875 0.140625 7.71875 1.703125 
L 7.71875 11.625 
Q 12.109375 9.234375 16.796875 8.0625 
Q 21.484375 6.890625 26.703125 6.890625 
Q 35.15625 6.890625 40.078125 11.328125 
Q 45.015625 15.765625 45.015625 23.390625 
Q 45.015625 31 40.078125 35.4375 
Q 35.15625 39.890625 26.703125 39.890625 
Q 22.75 39.890625 18.8125 39.015625 
Q 14.890625 38.140625 10.796875 36.28125 
z
" id="DejaVuSans-53"/>
       </defs>
       <use xlink:href="#DejaVuSans-53"/>
       <use x="63.623047" xlink:href="#DejaVuSans-48"/>
       <use x="127.246094" xlink:href="#DejaVuSans-48"/>
      </g>
     </g>
    </g>
    <g id="xtick_7">
     <g id="line2d_13">
      <path clip-path="url(#p797a7bb1d3)" d="M 580.448855 442.08 
L 580.448855 7.2 
" style="fill:none;stroke:#b0b0b0;stroke-linecap:square;stroke-width:0.8;"/>
     </g>
     <g id="line2d_14">
      <g>
       <use style="stroke:#000000;stroke-width:0.8;" x="580.448855" xlink:href="#m7b26f9de61" y="442.08"/>
      </g>
     </g>
     <g id="text_7">
      <!-- 600 -->
      <g transform="translate(570.905105 456.678437)scale(0.1 -0.1)">
       <defs>
        <path d="M 33.015625 40.375 
Q 26.375 40.375 22.484375 35.828125 
Q 18.609375 31.296875 18.609375 23.390625 
Q 18.609375 15.53125 22.484375 10.953125 
Q 26.375 6.390625 33.015625 6.390625 
Q 39.65625 6.390625 43.53125 10.953125 
Q 47.40625 15.53125 47.40625 23.390625 
Q 47.40625 31.296875 43.53125 35.828125 
Q 39.65625 40.375 33.015625 40.375 
z
M 52.59375 71.296875 
L 52.59375 62.3125 
Q 48.875 64.0625 45.09375 64.984375 
Q 41.3125 65.921875 37.59375 65.921875 
Q 27.828125 65.921875 22.671875 59.328125 
Q 17.53125 52.734375 16.796875 39.40625 
Q 19.671875 43.65625 24.015625 45.921875 
Q 28.375 48.1875 33.59375 48.1875 
Q 44.578125 48.1875 50.953125 41.515625 
Q 57.328125 34.859375 57.328125 23.390625 
Q 57.328125 12.15625 50.6875 5.359375 
Q 44.046875 -1.421875 33.015625 -1.421875 
Q 20.359375 -1.421875 13.671875 8.265625 
Q 6.984375 17.96875 6.984375 36.375 
Q 6.984375 53.65625 15.1875 63.9375 
Q 23.390625 74.21875 37.203125 74.21875 
Q 40.921875 74.21875 44.703125 73.484375 
Q 48.484375 72.75 52.59375 71.296875 
z
" id="DejaVuSans-54"/>
       </defs>
       <use xlink:href="#DejaVuSans-54"/>
       <use x="63.623047" xlink:href="#DejaVuSans-48"/>
       <use x="127.246094" xlink:href="#DejaVuSans-48"/>
      </g>
     </g>
    </g>
    <g id="text_8">
     <!-- Wellenlänge [nm] -->
     <g transform="translate(281.813281 470.356562)scale(0.1 -0.1)">
      <defs>
       <path d="M 3.328125 72.90625 
L 13.28125 72.90625 
L 28.609375 11.28125 
L 43.890625 72.90625 
L 54.984375 72.90625 
L 70.3125 11.28125 
L 85.59375 72.90625 
L 95.609375 72.90625 
L 77.296875 0 
L 64.890625 0 
L 49.515625 63.28125 
L 33.984375 0 
L 21.578125 0 
z
" id="DejaVuSans-87"/>
       <path d="M 56.203125 29.59375 
L 56.203125 25.203125 
L 14.890625 25.203125 
Q 15.484375 15.921875 20.484375 11.0625 
Q 25.484375 6.203125 34.421875 6.203125 
Q 39.59375 6.203125 44.453125 7.46875 
Q 49.3125 8.734375 54.109375 11.28125 
L 54.109375 2.78125 
Q 49.265625 0.734375 44.1875 -0.34375 
Q 39.109375 -1.421875 33.890625 -1.421875 
Q 20.796875 -1.421875 13.15625 6.1875 
Q 5.515625 13.8125 5.515625 26.8125 
Q 5.515625 40.234375 12.765625 48.109375 
Q 20.015625 56 32.328125 56 
Q 43.359375 56 49.78125 48.890625 
Q 56.203125 41.796875 56.203125 29.59375 
z
M 47.21875 32.234375 
Q 47.125 39.59375 43.09375 43.984375 
Q 39.0625 48.390625 32.421875 48.390625 
Q 24.90625 48.390625 20.390625 44.140625 
Q 15.875 39.890625 15.1875 32.171875 
z
" id="DejaVuSans-101"/>
       <path d="M 9.421875 75.984375 
L 18.40625 75.984375 
L 18.40625 0 
L 9.421875 0 
z
" id="DejaVuSans-108"/>
       <path d="M 54.890625 33.015625 
L 54.890625 0 
L 45.90625 0 
L 45.90625 32.71875 
Q 45.90625 40.484375 42.875 44.328125 
Q 39.84375 48.1875 33.796875 48.1875 
Q 26.515625 48.1875 22.3125 43.546875 
Q 18.109375 38.921875 18.109375 30.90625 
L 18.109375 0 
L 9.078125 0 
L 9.078125 54.6875 
L 18.109375 54.6875 
L 18.109375 46.1875 
Q 21.34375 51.125 25.703125 53.5625 
Q 30.078125 56 35.796875 56 
Q 45.21875 56 50.046875 50.171875 
Q 54.890625 44.34375 54.890625 33.015625 
z
" id="DejaVuSans-110"/>
       <path d="M 34.28125 27.484375 
Q 23.390625 27.484375 19.1875 25 
Q 14.984375 22.515625 14.984375 16.5 
Q 14.984375 11.71875 18.140625 8.90625 
Q 21.296875 6.109375 26.703125 6.109375 
Q 34.1875 6.109375 38.703125 11.40625 
Q 43.21875 16.703125 43.21875 25.484375 
L 43.21875 27.484375 
z
M 52.203125 31.203125 
L 52.203125 0 
L 43.21875 0 
L 43.21875 8.296875 
Q 40.140625 3.328125 35.546875 0.953125 
Q 30.953125 -1.421875 24.3125 -1.421875 
Q 15.921875 -1.421875 10.953125 3.296875 
Q 6 8.015625 6 15.921875 
Q 6 25.140625 12.171875 29.828125 
Q 18.359375 34.515625 30.609375 34.515625 
L 43.21875 34.515625 
L 43.21875 35.40625 
Q 43.21875 41.609375 39.140625 45 
Q 35.0625 48.390625 27.6875 48.390625 
Q 23 48.390625 18.546875 47.265625 
Q 14.109375 46.140625 10.015625 43.890625 
L 10.015625 52.203125 
Q 14.9375 54.109375 19.578125 55.046875 
Q 24.21875 56 28.609375 56 
Q 40.484375 56 46.34375 49.84375 
Q 52.203125 43.703125 52.203125 31.203125 
z
M 33.59375 75.78125 
L 43.5 75.78125 
L 43.5 65.921875 
L 33.59375 65.921875 
z
M 14.5 75.78125 
L 24.40625 75.78125 
L 24.40625 65.921875 
L 14.5 65.921875 
z
" id="DejaVuSans-228"/>
       <path d="M 45.40625 27.984375 
Q 45.40625 37.75 41.375 43.109375 
Q 37.359375 48.484375 30.078125 48.484375 
Q 22.859375 48.484375 18.828125 43.109375 
Q 14.796875 37.75 14.796875 27.984375 
Q 14.796875 18.265625 18.828125 12.890625 
Q 22.859375 7.515625 30.078125 7.515625 
Q 37.359375 7.515625 41.375 12.890625 
Q 45.40625 18.265625 45.40625 27.984375 
z
M 54.390625 6.78125 
Q 54.390625 -7.171875 48.1875 -13.984375 
Q 42 -20.796875 29.203125 -20.796875 
Q 24.46875 -20.796875 20.265625 -20.09375 
Q 16.0625 -19.390625 12.109375 -17.921875 
L 12.109375 -9.1875 
Q 16.0625 -11.328125 19.921875 -12.34375 
Q 23.78125 -13.375 27.78125 -13.375 
Q 36.625 -13.375 41.015625 -8.765625 
Q 45.40625 -4.15625 45.40625 5.171875 
L 45.40625 9.625 
Q 42.625 4.78125 38.28125 2.390625 
Q 33.9375 0 27.875 0 
Q 17.828125 0 11.671875 7.65625 
Q 5.515625 15.328125 5.515625 27.984375 
Q 5.515625 40.671875 11.671875 48.328125 
Q 17.828125 56 27.875 56 
Q 33.9375 56 38.28125 53.609375 
Q 42.625 51.21875 45.40625 46.390625 
L 45.40625 54.6875 
L 54.390625 54.6875 
z
" id="DejaVuSans-103"/>
       <path id="DejaVuSans-32"/>
       <path d="M 8.59375 75.984375 
L 29.296875 75.984375 
L 29.296875 69 
L 17.578125 69 
L 17.578125 -6.203125 
L 29.296875 -6.203125 
L 29.296875 -13.1875 
L 8.59375 -13.1875 
z
" id="DejaVuSans-91"/>
       <path d="M 52 44.1875 
Q 55.375 50.25 60.0625 53.125 
Q 64.75 56 71.09375 56 
Q 79.640625 56 84.28125 50.015625 
Q 88.921875 44.046875 88.921875 33.015625 
L 88.921875 0 
L 79.890625 0 
L 79.890625 32.71875 
Q 79.890625 40.578125 77.09375 44.375 
Q 74.3125 48.1875 68.609375 48.1875 
Q 61.625 48.1875 57.5625 43.546875 
Q 53.515625 38.921875 53.515625 30.90625 
L 53.515625 0 
L 44.484375 0 
L 44.484375 32.71875 
Q 44.484375 40.625 41.703125 44.40625 
Q 38.921875 48.1875 33.109375 48.1875 
Q 26.21875 48.1875 22.15625 43.53125 
Q 18.109375 38.875 18.109375 30.90625 
L 18.109375 0 
L 9.078125 0 
L 9.078125 54.6875 
L 18.109375 54.6875 
L 18.109375 46.1875 
Q 21.1875 51.21875 25.484375 53.609375 
Q 29.78125 56 35.6875 56 
Q 41.65625 56 45.828125 52.96875 
Q 50 49.953125 52 44.1875 
z
" id="DejaVuSans-109"/>
       <path d="M 30.421875 75.984375 
L 30.421875 -13.1875 
L 9.71875 -13.1875 
L 9.71875 -6.203125 
L 21.390625 -6.203125 
L 21.390625 69 
L 9.71875 69 
L 9.71875 75.984375 
z
" id="DejaVuSans-93"/>
      </defs>
      <use xlink:href="#DejaVuSans-87"/>
      <use x="93.001953" xlink:href="#DejaVuSans-101"/>
      <use x="154.525391" xlink:href="#DejaVuSans-108"/>
      <use x="182.308594" xlink:href="#DejaVuSans-108"/>
      <use x="210.091797" xlink:href="#DejaVuSans-101"/>
      <use x="271.615234" xlink:href="#DejaVuSans-110"/>
      <use x="334.994141" xlink:href="#DejaVuSans-108"/>
      <use x="362.777344" xlink:href="#DejaVuSans-228"/>
      <use x="424.056641" xlink:href="#DejaVuSans-110"/>
      <use x="487.435547" xlink:href="#DejaVuSans-103"/>
      <use x="550.912109" xlink:href="#DejaVuSans-101"/>
      <use x="612.435547" xlink:href="#DejaVuSans-32"/>
      <use x="644.222656" xlink:href="#DejaVuSans-91"/>
      <use x="683.236328" xlink:href="#DejaVuSans-110"/>
      <use x="746.615234" xlink:href="#DejaVuSans-109"/>
      <use x="844.027344" xlink:href="#DejaVuSans-93"/>
     </g>
    </g>
   </g>
   <g id="matplotlib.axis_2">
    <g id="ytick_1">
     <g id="line2d_15">
      <path clip-path="url(#p797a7bb1d3)" d="M 46.965625 429.843117 
L 604.965625 429.843117 
" style="fill:none;stroke:#b0b0b0;stroke-linecap:square;stroke-width:0.8;"/>
     </g>
     <g id="line2d_16">
      <defs>
       <path d="M 0 0 
L -3.5 0 
" id="m8a031d44b2" style="stroke:#000000;stroke-width:0.8;"/>
      </defs>
      <g>
       <use style="stroke:#000000;stroke-width:0.8;" x="46.965625" xlink:href="#m8a031d44b2" y="429.843117"/>
      </g>
     </g>
     <g id="text_9">
      <!-- 20 -->
      <g transform="translate(27.240625 433.642336)scale(0.1 -0.1)">
       <use xlink:href="#DejaVuSans-50"/>
       <use x="63.623047" xlink:href="#DejaVuSans-48"/>
      </g>
     </g>
    </g>
    <g id="ytick_2">
     <g id="line2d_17">
      <path clip-path="url(#p797a7bb1d3)" d="M 46.965625 354.539221 
L 604.965625 354.539221 
" style="fill:none;stroke:#b0b0b0;stroke-linecap:square;stroke-width:0.8;"/>
     </g>
     <g id="line2d_18">
      <g>
       <use style="stroke:#000000;stroke-width:0.8;" x="46.965625" xlink:href="#m8a031d44b2" y="354.539221"/>
      </g>
     </g>
     <g id="text_10">
      <!-- 40 -->
      <g transform="translate(27.240625 358.33844)scale(0.1 -0.1)">
       <use xlink:href="#DejaVuSans-52"/>
       <use x="63.623047" xlink:href="#DejaVuSans-48"/>
      </g>
     </g>
    </g>
    <g id="ytick_3">
     <g id="line2d_19">
      <path clip-path="url(#p797a7bb1d3)" d="M 46.965625 279.235325 
L 604.965625 279.235325 
" style="fill:none;stroke:#b0b0b0;stroke-linecap:square;stroke-width:0.8;"/>
     </g>
     <g id="line2d_20">
      <g>
       <use style="stroke:#000000;stroke-width:0.8;" x="46.965625" xlink:href="#m8a031d44b2" y="279.235325"/>
      </g>
     </g>
     <g id="text_11">
      <!-- 60 -->
      <g transform="translate(27.240625 283.034543)scale(0.1 -0.1)">
       <use xlink:href="#DejaVuSans-54"/>
       <use x="63.623047" xlink:href="#DejaVuSans-48"/>
      </g>
     </g>
    </g>
    <g id="ytick_4">
     <g id="line2d_21">
      <path clip-path="url(#p797a7bb1d3)" d="M 46.965625 203.931429 
L 604.965625 203.931429 
" style="fill:none;stroke:#b0b0b0;stroke-linecap:square;stroke-width:0.8;"/>
     </g>
     <g id="line2d_22">
      <g>
       <use style="stroke:#000000;stroke-width:0.8;" x="46.965625" xlink:href="#m8a031d44b2" y="203.931429"/>
      </g>
     </g>
     <g id="text_12">
      <!-- 80 -->
      <g transform="translate(27.240625 207.730647)scale(0.1 -0.1)">
       <defs>
        <path d="M 31.78125 34.625 
Q 24.75 34.625 20.71875 30.859375 
Q 16.703125 27.09375 16.703125 20.515625 
Q 16.703125 13.921875 20.71875 10.15625 
Q 24.75 6.390625 31.78125 6.390625 
Q 38.8125 6.390625 42.859375 10.171875 
Q 46.921875 13.96875 46.921875 20.515625 
Q 46.921875 27.09375 42.890625 30.859375 
Q 38.875 34.625 31.78125 34.625 
z
M 21.921875 38.8125 
Q 15.578125 40.375 12.03125 44.71875 
Q 8.5 49.078125 8.5 55.328125 
Q 8.5 64.0625 14.71875 69.140625 
Q 20.953125 74.21875 31.78125 74.21875 
Q 42.671875 74.21875 48.875 69.140625 
Q 55.078125 64.0625 55.078125 55.328125 
Q 55.078125 49.078125 51.53125 44.71875 
Q 48 40.375 41.703125 38.8125 
Q 48.828125 37.15625 52.796875 32.3125 
Q 56.78125 27.484375 56.78125 20.515625 
Q 56.78125 9.90625 50.3125 4.234375 
Q 43.84375 -1.421875 31.78125 -1.421875 
Q 19.734375 -1.421875 13.25 4.234375 
Q 6.78125 9.90625 6.78125 20.515625 
Q 6.78125 27.484375 10.78125 32.3125 
Q 14.796875 37.15625 21.921875 38.8125 
z
M 18.3125 54.390625 
Q 18.3125 48.734375 21.84375 45.5625 
Q 25.390625 42.390625 31.78125 42.390625 
Q 38.140625 42.390625 41.71875 45.5625 
Q 45.3125 48.734375 45.3125 54.390625 
Q 45.3125 60.0625 41.71875 63.234375 
Q 38.140625 66.40625 31.78125 66.40625 
Q 25.390625 66.40625 21.84375 63.234375 
Q 18.3125 60.0625 18.3125 54.390625 
z
" id="DejaVuSans-56"/>
       </defs>
       <use xlink:href="#DejaVuSans-56"/>
       <use x="63.623047" xlink:href="#DejaVuSans-48"/>
      </g>
     </g>
    </g>
    <g id="ytick_5">
     <g id="line2d_23">
      <path clip-path="url(#p797a7bb1d3)" d="M 46.965625 128.627532 
L 604.965625 128.627532 
" style="fill:none;stroke:#b0b0b0;stroke-linecap:square;stroke-width:0.8;"/>
     </g>
     <g id="line2d_24">
      <g>
       <use style="stroke:#000000;stroke-width:0.8;" x="46.965625" xlink:href="#m8a031d44b2" y="128.627532"/>
      </g>
     </g>
     <g id="text_13">
      <!-- 100 -->
      <g transform="translate(20.878125 132.426751)scale(0.1 -0.1)">
       <use xlink:href="#DejaVuSans-49"/>
       <use x="63.623047" xlink:href="#DejaVuSans-48"/>
       <use x="127.246094" xlink:href="#DejaVuSans-48"/>
      </g>
     </g>
    </g>
    <g id="ytick_6">
     <g id="line2d_25">
      <path clip-path="url(#p797a7bb1d3)" d="M 46.965625 53.323636 
L 604.965625 53.323636 
" style="fill:none;stroke:#b0b0b0;stroke-linecap:square;stroke-width:0.8;"/>
     </g>
     <g id="line2d_26">
      <g>
       <use style="stroke:#000000;stroke-width:0.8;" x="46.965625" xlink:href="#m8a031d44b2" y="53.323636"/>
      </g>
     </g>
     <g id="text_14">
      <!-- 120 -->
      <g transform="translate(20.878125 57.122855)scale(0.1 -0.1)">
       <use xlink:href="#DejaVuSans-49"/>
       <use x="63.623047" xlink:href="#DejaVuSans-50"/>
       <use x="127.246094" xlink:href="#DejaVuSans-48"/>
      </g>
     </g>
    </g>
    <g id="text_15">
     <!-- Intensität [a.u.] -->
     <g transform="translate(14.798437 263.368906)rotate(-90)scale(0.1 -0.1)">
      <defs>
       <path d="M 9.8125 72.90625 
L 19.671875 72.90625 
L 19.671875 0 
L 9.8125 0 
z
" id="DejaVuSans-73"/>
       <path d="M 18.3125 70.21875 
L 18.3125 54.6875 
L 36.8125 54.6875 
L 36.8125 47.703125 
L 18.3125 47.703125 
L 18.3125 18.015625 
Q 18.3125 11.328125 20.140625 9.421875 
Q 21.96875 7.515625 27.59375 7.515625 
L 36.8125 7.515625 
L 36.8125 0 
L 27.59375 0 
Q 17.1875 0 13.234375 3.875 
Q 9.28125 7.765625 9.28125 18.015625 
L 9.28125 47.703125 
L 2.6875 47.703125 
L 2.6875 54.6875 
L 9.28125 54.6875 
L 9.28125 70.21875 
z
" id="DejaVuSans-116"/>
       <path d="M 44.28125 53.078125 
L 44.28125 44.578125 
Q 40.484375 46.53125 36.375 47.5 
Q 32.28125 48.484375 27.875 48.484375 
Q 21.1875 48.484375 17.84375 46.4375 
Q 14.5 44.390625 14.5 40.28125 
Q 14.5 37.15625 16.890625 35.375 
Q 19.28125 33.59375 26.515625 31.984375 
L 29.59375 31.296875 
Q 39.15625 29.25 43.1875 25.515625 
Q 47.21875 21.78125 47.21875 15.09375 
Q 47.21875 7.46875 41.1875 3.015625 
Q 35.15625 -1.421875 24.609375 -1.421875 
Q 20.21875 -1.421875 15.453125 -0.5625 
Q 10.6875 0.296875 5.421875 2 
L 5.421875 11.28125 
Q 10.40625 8.6875 15.234375 7.390625 
Q 20.0625 6.109375 24.8125 6.109375 
Q 31.15625 6.109375 34.5625 8.28125 
Q 37.984375 10.453125 37.984375 14.40625 
Q 37.984375 18.0625 35.515625 20.015625 
Q 33.0625 21.96875 24.703125 23.78125 
L 21.578125 24.515625 
Q 13.234375 26.265625 9.515625 29.90625 
Q 5.8125 33.546875 5.8125 39.890625 
Q 5.8125 47.609375 11.28125 51.796875 
Q 16.75 56 26.8125 56 
Q 31.78125 56 36.171875 55.265625 
Q 40.578125 54.546875 44.28125 53.078125 
z
" id="DejaVuSans-115"/>
       <path d="M 9.421875 54.6875 
L 18.40625 54.6875 
L 18.40625 0 
L 9.421875 0 
z
M 9.421875 75.984375 
L 18.40625 75.984375 
L 18.40625 64.59375 
L 9.421875 64.59375 
z
" id="DejaVuSans-105"/>
       <path d="M 34.28125 27.484375 
Q 23.390625 27.484375 19.1875 25 
Q 14.984375 22.515625 14.984375 16.5 
Q 14.984375 11.71875 18.140625 8.90625 
Q 21.296875 6.109375 26.703125 6.109375 
Q 34.1875 6.109375 38.703125 11.40625 
Q 43.21875 16.703125 43.21875 25.484375 
L 43.21875 27.484375 
z
M 52.203125 31.203125 
L 52.203125 0 
L 43.21875 0 
L 43.21875 8.296875 
Q 40.140625 3.328125 35.546875 0.953125 
Q 30.953125 -1.421875 24.3125 -1.421875 
Q 15.921875 -1.421875 10.953125 3.296875 
Q 6 8.015625 6 15.921875 
Q 6 25.140625 12.171875 29.828125 
Q 18.359375 34.515625 30.609375 34.515625 
L 43.21875 34.515625 
L 43.21875 35.40625 
Q 43.21875 41.609375 39.140625 45 
Q 35.0625 48.390625 27.6875 48.390625 
Q 23 48.390625 18.546875 47.265625 
Q 14.109375 46.140625 10.015625 43.890625 
L 10.015625 52.203125 
Q 14.9375 54.109375 19.578125 55.046875 
Q 24.21875 56 28.609375 56 
Q 40.484375 56 46.34375 49.84375 
Q 52.203125 43.703125 52.203125 31.203125 
z
" id="DejaVuSans-97"/>
       <path d="M 10.6875 12.40625 
L 21 12.40625 
L 21 0 
L 10.6875 0 
z
" id="DejaVuSans-46"/>
       <path d="M 8.5 21.578125 
L 8.5 54.6875 
L 17.484375 54.6875 
L 17.484375 21.921875 
Q 17.484375 14.15625 20.5 10.265625 
Q 23.53125 6.390625 29.59375 6.390625 
Q 36.859375 6.390625 41.078125 11.03125 
Q 45.3125 15.671875 45.3125 23.6875 
L 45.3125 54.6875 
L 54.296875 54.6875 
L 54.296875 0 
L 45.3125 0 
L 45.3125 8.40625 
Q 42.046875 3.421875 37.71875 1 
Q 33.40625 -1.421875 27.6875 -1.421875 
Q 18.265625 -1.421875 13.375 4.4375 
Q 8.5 10.296875 8.5 21.578125 
z
M 31.109375 56 
z
" id="DejaVuSans-117"/>
      </defs>
      <use xlink:href="#DejaVuSans-73"/>
      <use x="29.492188" xlink:href="#DejaVuSans-110"/>
      <use x="92.871094" xlink:href="#DejaVuSans-116"/>
      <use x="132.080078" xlink:href="#DejaVuSans-101"/>
      <use x="193.603516" xlink:href="#DejaVuSans-110"/>
      <use x="256.982422" xlink:href="#DejaVuSans-115"/>
      <use x="309.082031" xlink:href="#DejaVuSans-105"/>
      <use x="336.865234" xlink:href="#DejaVuSans-116"/>
      <use x="376.074219" xlink:href="#DejaVuSans-228"/>
      <use x="437.353516" xlink:href="#DejaVuSans-116"/>
      <use x="476.5625" xlink:href="#DejaVuSans-32"/>
      <use x="508.349609" xlink:href="#DejaVuSans-91"/>
      <use x="547.363281" xlink:href="#DejaVuSans-97"/>
      <use x="608.642578" xlink:href="#DejaVuSans-46"/>
      <use x="640.429688" xlink:href="#DejaVuSans-117"/>
      <use x="703.808594" xlink:href="#DejaVuSans-46"/>
      <use x="735.595703" xlink:href="#DejaVuSans-93"/>
     </g>
    </g>
   </g>
   <g id="line2d_27">
    <path clip-path="url(#p797a7bb1d3)" d="M 72.329261 377.13039 
L 73.176127 373.365195 
L 74.022993 377.13039 
L 74.869859 373.365195 
L 75.716725 373.365195 
L 76.563591 380.895584 
L 77.410457 365.834805 
L 78.257323 380.895584 
L 79.104189 380.895584 
L 79.951055 373.365195 
L 80.797921 377.13039 
L 81.644787 369.6 
L 82.491653 377.13039 
L 84.185385 369.6 
L 85.032251 377.13039 
L 85.879117 377.13039 
L 86.725983 369.6 
L 87.572849 365.834805 
L 88.419715 380.895584 
L 89.266581 377.13039 
L 90.113447 362.06961 
L 90.960313 362.06961 
L 91.807179 380.895584 
L 92.654045 377.13039 
L 93.500911 365.834805 
L 94.347777 377.13039 
L 95.194643 358.304416 
L 96.041509 358.304416 
L 96.888375 350.774026 
L 98.582107 358.304416 
L 99.428973 347.008831 
L 100.275839 362.06961 
L 101.122705 362.06961 
L 101.969571 354.539221 
L 102.816437 350.774026 
L 103.663303 358.304416 
L 104.510169 358.304416 
L 105.357035 350.774026 
L 106.203901 347.008831 
L 107.050767 354.539221 
L 107.897633 350.774026 
L 108.744499 335.713247 
L 109.591365 343.243636 
L 110.438231 354.539221 
L 111.285097 347.008831 
L 112.131963 362.06961 
L 112.978829 365.834805 
L 113.825695 358.304416 
L 114.672561 354.539221 
L 115.519427 369.6 
L 117.213159 362.06961 
L 118.060025 354.539221 
L 118.906891 369.6 
L 119.753757 369.6 
L 120.600623 365.834805 
L 121.447489 365.834805 
L 122.294355 369.6 
L 123.141221 369.6 
L 123.988087 373.365195 
L 124.834953 373.365195 
L 125.681819 369.6 
L 126.528685 369.6 
L 127.375551 377.13039 
L 128.222417 377.13039 
L 129.069283 369.6 
L 129.916149 377.13039 
L 130.763015 369.6 
L 131.609881 373.365195 
L 132.456747 369.6 
L 133.303613 377.13039 
L 134.150479 369.6 
L 134.997345 369.6 
L 135.844211 377.13039 
L 136.691077 377.13039 
L 137.537942 369.6 
L 138.384808 377.13039 
L 139.231674 369.6 
L 140.07854 377.13039 
L 140.925406 369.6 
L 141.772272 377.13039 
L 142.619138 369.6 
L 144.31287 377.13039 
L 146.006602 369.6 
L 146.853468 373.365195 
L 147.700334 369.6 
L 149.394066 377.13039 
L 151.087798 369.6 
L 153.628396 369.6 
L 154.475262 365.834805 
L 155.322128 369.6 
L 157.01586 369.6 
L 157.862726 373.365195 
L 158.709592 369.6 
L 159.556458 373.365195 
L 160.403324 369.6 
L 161.25019 373.365195 
L 162.097056 369.6 
L 162.943922 377.13039 
L 163.790788 369.6 
L 164.637654 377.13039 
L 165.48452 373.365195 
L 166.331386 377.13039 
L 167.178252 373.365195 
L 168.871984 373.365195 
L 170.565716 380.895584 
L 171.412582 369.6 
L 172.259448 377.13039 
L 173.106314 373.365195 
L 173.95318 377.13039 
L 174.800046 373.365195 
L 175.646912 373.365195 
L 176.493778 377.13039 
L 177.340644 377.13039 
L 178.18751 373.365195 
L 179.034376 373.365195 
L 179.881242 377.13039 
L 180.728108 373.365195 
L 181.574974 377.13039 
L 182.42184 377.13039 
L 183.268706 373.365195 
L 184.115572 380.895584 
L 184.962438 373.365195 
L 185.809304 380.895584 
L 186.65617 373.365195 
L 187.503036 377.13039 
L 188.349902 369.6 
L 189.196768 377.13039 
L 190.043634 373.365195 
L 190.8905 377.13039 
L 191.737366 373.365195 
L 192.584232 377.13039 
L 193.431098 373.365195 
L 194.277964 377.13039 
L 195.12483 373.365195 
L 195.971696 373.365195 
L 196.818562 377.13039 
L 197.665428 377.13039 
L 198.512294 373.365195 
L 199.35916 377.13039 
L 200.206026 373.365195 
L 201.052892 373.365195 
L 201.899758 380.895584 
L 202.746624 373.365195 
L 203.59349 380.895584 
L 204.440356 373.365195 
L 205.287222 377.13039 
L 206.134088 377.13039 
L 206.980954 373.365195 
L 207.82782 373.365195 
L 209.521552 380.895584 
L 210.368418 369.6 
L 211.215284 380.895584 
L 212.06215 373.365195 
L 212.909015 373.365195 
L 213.755881 380.895584 
L 214.602747 377.13039 
L 215.449613 369.6 
L 216.296479 377.13039 
L 217.990211 369.6 
L 218.837077 377.13039 
L 219.683943 373.365195 
L 220.530809 377.13039 
L 221.377675 369.6 
L 222.224541 377.13039 
L 223.071407 377.13039 
L 223.918273 369.6 
L 224.765139 369.6 
L 225.612005 377.13039 
L 226.458871 369.6 
L 227.305737 373.365195 
L 228.152603 373.365195 
L 228.999469 369.6 
L 229.846335 369.6 
L 230.693201 365.834805 
L 231.540067 365.834805 
L 232.386933 369.6 
L 234.080665 362.06961 
L 234.927531 365.834805 
L 235.774397 358.304416 
L 236.621263 358.304416 
L 237.468129 354.539221 
L 238.314995 354.539221 
L 239.161861 343.243636 
L 240.008727 343.243636 
L 240.855593 313.122078 
L 241.702459 309.356883 
L 242.549325 177.575065 
L 243.396191 162.514286 
L 244.243057 87.21039 
L 245.089923 79.68 
L 245.936789 49.558442 
L 246.783655 49.558442 
L 247.630521 34.497662 
L 248.477387 38.262857 
L 249.324253 79.68 
L 250.171119 83.445195 
L 251.017985 109.801558 
L 251.864851 113.566753 
L 252.711717 154.983896 
L 253.558583 162.514286 
L 254.405449 200.166234 
L 255.252315 207.696623 
L 256.099181 252.878961 
L 256.946047 249.113766 
L 257.792913 294.296104 
L 258.639779 298.061299 
L 259.486645 320.652468 
L 260.333511 328.182857 
L 261.180377 339.478442 
L 262.027243 339.478442 
L 262.874109 350.774026 
L 263.720975 347.008831 
L 264.567841 358.304416 
L 265.414707 350.774026 
L 266.261573 362.06961 
L 267.108439 358.304416 
L 267.955305 365.834805 
L 268.802171 362.06961 
L 269.649037 365.834805 
L 270.495903 362.06961 
L 271.342769 369.6 
L 272.189635 365.834805 
L 273.036501 369.6 
L 273.883367 365.834805 
L 275.577099 373.365195 
L 276.423965 369.6 
L 277.270831 369.6 
L 278.117697 373.365195 
L 278.964563 369.6 
L 279.811429 373.365195 
L 280.658295 373.365195 
L 281.505161 369.6 
L 282.352027 369.6 
L 283.198893 373.365195 
L 284.045759 369.6 
L 284.892625 377.13039 
L 286.586357 369.6 
L 287.433223 369.6 
L 288.280088 377.13039 
L 289.126954 369.6 
L 289.97382 377.13039 
L 290.820686 369.6 
L 291.667552 377.13039 
L 292.514418 373.365195 
L 293.361284 377.13039 
L 294.20815 373.365195 
L 295.055016 377.13039 
L 295.901882 377.13039 
L 296.748748 373.365195 
L 297.595614 377.13039 
L 298.44248 369.6 
L 299.289346 380.895584 
L 300.136212 373.365195 
L 300.983078 369.6 
L 301.829944 380.895584 
L 302.67681 380.895584 
L 303.523676 373.365195 
L 304.370542 373.365195 
L 305.217408 380.895584 
L 306.91114 373.365195 
L 307.758006 380.895584 
L 308.604872 373.365195 
L 309.451738 380.895584 
L 310.298604 373.365195 
L 311.14547 380.895584 
L 311.992336 377.13039 
L 312.839202 377.13039 
L 313.686068 380.895584 
L 314.532934 380.895584 
L 315.3798 377.13039 
L 316.226666 377.13039 
L 317.073532 380.895584 
L 318.767264 373.365195 
L 319.61413 373.365195 
L 320.460996 380.895584 
L 321.307862 380.895584 
L 322.154728 377.13039 
L 323.001594 380.895584 
L 323.84846 373.365195 
L 324.695326 380.895584 
L 325.542192 373.365195 
L 326.389058 373.365195 
L 327.235924 380.895584 
L 328.08279 380.895584 
L 328.929656 373.365195 
L 330.623388 380.895584 
L 331.470254 380.895584 
L 332.31712 373.365195 
L 333.163986 395.956364 
L 334.010852 354.539221 
L 334.857718 384.660779 
L 335.704584 373.365195 
L 336.55145 380.895584 
L 337.398316 369.6 
L 338.245182 377.13039 
L 339.092048 380.895584 
L 339.938914 377.13039 
L 340.78578 380.895584 
L 341.632646 380.895584 
L 342.479512 377.13039 
L 343.326378 380.895584 
L 344.173244 377.13039 
L 345.02011 380.895584 
L 345.866976 377.13039 
L 346.713842 377.13039 
L 347.560708 380.895584 
L 348.407574 377.13039 
L 349.25444 380.895584 
L 350.101306 377.13039 
L 350.948172 380.895584 
L 351.795038 377.13039 
L 352.641904 380.895584 
L 353.48877 380.895584 
L 354.335636 377.13039 
L 355.182502 380.895584 
L 356.029368 377.13039 
L 356.876234 377.13039 
L 357.7231 380.895584 
L 358.569966 380.895584 
L 359.416832 373.365195 
L 360.263698 380.895584 
L 361.110564 377.13039 
L 361.95743 377.13039 
L 362.804296 380.895584 
L 363.651162 380.895584 
L 364.498027 373.365195 
L 367.038625 373.365195 
L 367.885491 369.6 
L 368.732357 369.6 
L 369.579223 362.06961 
L 370.426089 362.06961 
L 371.272955 350.774026 
L 372.119821 354.539221 
L 372.966687 347.008831 
L 373.813553 343.243636 
L 374.660419 347.008831 
L 375.507285 347.008831 
L 376.354151 343.243636 
L 378.047883 350.774026 
L 378.894749 350.774026 
L 379.741615 358.304416 
L 380.588481 358.304416 
L 381.435347 365.834805 
L 382.282213 362.06961 
L 383.129079 369.6 
L 383.975945 365.834805 
L 384.822811 373.365195 
L 385.669677 369.6 
L 386.516543 377.13039 
L 387.363409 373.365195 
L 388.210275 377.13039 
L 389.057141 377.13039 
L 389.904007 373.365195 
L 390.750873 373.365195 
L 391.597739 380.895584 
L 393.291471 373.365195 
L 394.138337 373.365195 
L 394.985203 380.895584 
L 395.832069 380.895584 
L 396.678935 373.365195 
L 398.372667 380.895584 
L 399.219533 377.13039 
L 400.066399 380.895584 
L 400.913265 380.895584 
L 401.760131 377.13039 
L 402.606997 377.13039 
L 403.453863 380.895584 
L 404.300729 380.895584 
L 405.147595 377.13039 
L 405.994461 377.13039 
L 406.841327 380.895584 
L 407.688193 380.895584 
L 408.535059 377.13039 
L 409.381925 377.13039 
L 410.228791 380.895584 
L 411.075657 380.895584 
L 411.922523 377.13039 
L 412.769389 377.13039 
L 413.616255 380.895584 
L 414.463121 373.365195 
L 415.309987 377.13039 
L 416.156853 369.6 
L 417.003719 377.13039 
L 417.850585 373.365195 
L 418.697451 365.834805 
L 419.544317 365.834805 
L 420.391183 377.13039 
L 422.084915 369.6 
L 423.778647 377.13039 
L 424.625513 377.13039 
L 425.472379 373.365195 
L 426.319245 377.13039 
L 427.166111 373.365195 
L 428.012977 373.365195 
L 428.859843 380.895584 
L 429.706709 377.13039 
L 430.553575 380.895584 
L 431.400441 373.365195 
L 432.247307 380.895584 
L 433.094173 380.895584 
L 433.941039 377.13039 
L 434.787905 377.13039 
L 435.634771 380.895584 
L 436.481637 380.895584 
L 437.328503 377.13039 
L 438.175369 377.13039 
L 439.022235 380.895584 
L 439.8691 380.895584 
L 440.715966 377.13039 
L 441.562832 380.895584 
L 442.409698 377.13039 
L 443.256564 380.895584 
L 444.10343 373.365195 
L 444.950296 377.13039 
L 445.797162 384.660779 
L 447.490894 377.13039 
L 448.33776 380.895584 
L 449.184626 377.13039 
L 450.031492 380.895584 
L 450.878358 377.13039 
L 451.725224 380.895584 
L 452.57209 377.13039 
L 453.418956 377.13039 
L 454.265822 380.895584 
L 455.112688 377.13039 
L 455.959554 380.895584 
L 456.80642 380.895584 
L 457.653286 377.13039 
L 458.500152 380.895584 
L 459.347018 377.13039 
L 460.193884 377.13039 
L 461.04075 380.895584 
L 461.887616 380.895584 
L 462.734482 377.13039 
L 463.581348 380.895584 
L 464.428214 377.13039 
L 465.27508 380.895584 
L 466.121946 377.13039 
L 466.968812 380.895584 
L 467.815678 377.13039 
L 468.662544 377.13039 
L 469.50941 380.895584 
L 470.356276 377.13039 
L 471.203142 380.895584 
L 472.050008 380.895584 
L 472.896874 377.13039 
L 473.74374 380.895584 
L 474.590606 377.13039 
L 475.437472 380.895584 
L 476.284338 377.13039 
L 477.131204 380.895584 
L 477.97807 377.13039 
L 478.824936 380.895584 
L 479.671802 373.365195 
L 480.518668 380.895584 
L 481.365534 377.13039 
L 482.2124 380.895584 
L 483.059266 377.13039 
L 483.906132 380.895584 
L 484.752998 377.13039 
L 485.599864 377.13039 
L 486.44673 380.895584 
L 487.293596 377.13039 
L 488.140462 380.895584 
L 488.987328 380.895584 
L 489.834194 377.13039 
L 490.68106 380.895584 
L 491.527926 373.365195 
L 492.374792 380.895584 
L 493.221658 377.13039 
L 494.068524 377.13039 
L 494.91539 380.895584 
L 495.762256 373.365195 
L 496.609122 380.895584 
L 497.455988 373.365195 
L 498.302854 380.895584 
L 499.996586 373.365195 
L 500.843452 373.365195 
L 501.690318 377.13039 
L 502.537184 373.365195 
L 503.38405 377.13039 
L 505.077782 369.6 
L 505.924648 369.6 
L 506.771514 365.834805 
L 507.61838 369.6 
L 508.465246 365.834805 
L 509.312112 365.834805 
L 510.158978 358.304416 
L 511.005844 358.304416 
L 511.85271 343.243636 
L 512.699576 347.008831 
L 513.546442 324.417662 
L 514.393308 320.652468 
L 515.240173 275.47013 
L 516.087039 271.704935 
L 516.933905 200.166234 
L 517.780771 196.401039 
L 518.627637 124.862338 
L 519.474503 113.566753 
L 520.321369 53.323636 
L 521.168235 45.793247 
L 522.015101 26.967273 
L 522.861967 26.967273 
L 523.708833 45.793247 
L 524.555699 49.558442 
L 525.402565 87.21039 
L 526.249431 90.975584 
L 527.096297 132.392727 
L 527.943163 136.157922 
L 528.790029 196.401039 
L 529.636895 200.166234 
L 530.483761 237.818182 
L 531.330627 249.113766 
L 532.177493 283.000519 
L 533.024359 283.000519 
L 533.871225 305.591688 
L 534.718091 309.356883 
L 535.564957 324.417662 
L 536.411823 328.182857 
L 537.258689 339.478442 
L 538.105555 339.478442 
L 538.952421 350.774026 
L 539.799287 350.774026 
L 540.646153 358.304416 
L 541.493019 350.774026 
L 542.339885 362.06961 
L 543.186751 362.06961 
L 544.033617 358.304416 
L 544.880483 362.06961 
L 545.727349 369.6 
L 546.574215 369.6 
L 547.421081 365.834805 
L 548.267947 365.834805 
L 549.114813 369.6 
L 549.961679 369.6 
L 550.808545 373.365195 
L 551.655411 373.365195 
L 552.502277 369.6 
L 553.349143 369.6 
L 555.042875 377.13039 
L 555.889741 373.365195 
L 556.736607 373.365195 
L 557.583473 377.13039 
L 558.430339 377.13039 
L 559.277205 373.365195 
L 560.124071 373.365195 
L 560.970937 377.13039 
L 561.817803 377.13039 
L 562.664669 373.365195 
L 563.511535 373.365195 
L 564.358401 380.895584 
L 565.205267 377.13039 
L 566.052133 380.895584 
L 566.898999 373.365195 
L 567.745865 377.13039 
L 568.592731 377.13039 
L 569.439597 380.895584 
L 570.286463 377.13039 
L 571.133329 380.895584 
L 571.980195 373.365195 
L 572.827061 380.895584 
L 573.673927 377.13039 
L 574.520793 380.895584 
L 575.367659 377.13039 
L 576.214525 380.895584 
L 577.061391 373.365195 
L 577.908257 380.895584 
L 578.755123 377.13039 
L 579.601989 380.895584 
L 579.601989 380.895584 
" style="fill:none;stroke:#1f77b4;stroke-linecap:square;stroke-width:1.5;"/>
   </g>
   <g id="line2d_28">
    <path clip-path="url(#p797a7bb1d3)" d="M 72.329261 384.660779 
L 73.176127 350.774026 
L 74.022993 380.895584 
L 74.869859 395.956364 
L 75.716725 380.895584 
L 76.563591 384.660779 
L 77.410457 384.660779 
L 78.257323 377.13039 
L 79.104189 377.13039 
L 79.951055 384.660779 
L 80.797921 380.895584 
L 81.644787 373.365195 
L 82.491653 373.365195 
L 83.338519 388.425974 
L 85.032251 373.365195 
L 85.879117 384.660779 
L 86.725983 380.895584 
L 87.572849 380.895584 
L 88.419715 384.660779 
L 89.266581 380.895584 
L 90.113447 384.660779 
L 90.960313 377.13039 
L 91.807179 384.660779 
L 92.654045 380.895584 
L 93.500911 392.191169 
L 94.347777 347.008831 
L 95.194643 395.956364 
L 96.041509 380.895584 
L 96.888375 395.956364 
L 97.735241 354.539221 
L 98.582107 395.956364 
L 99.428973 384.660779 
L 100.275839 369.6 
L 101.122705 369.6 
L 101.969571 388.425974 
L 102.816437 384.660779 
L 103.663303 377.13039 
L 105.357035 384.660779 
L 106.203901 377.13039 
L 107.050767 384.660779 
L 107.897633 380.895584 
L 108.744499 384.660779 
L 110.438231 377.13039 
L 111.285097 380.895584 
L 112.131963 377.13039 
L 112.978829 377.13039 
L 113.825695 384.660779 
L 114.672561 377.13039 
L 115.519427 384.660779 
L 116.366293 380.895584 
L 117.213159 384.660779 
L 118.060025 384.660779 
L 118.906891 377.13039 
L 119.753757 377.13039 
L 120.600623 384.660779 
L 121.447489 380.895584 
L 122.294355 392.191169 
L 123.141221 350.774026 
L 123.988087 395.956364 
L 124.834953 388.425974 
L 125.681819 369.6 
L 126.528685 373.365195 
L 127.375551 388.425974 
L 128.222417 384.660779 
L 129.069283 373.365195 
L 129.916149 380.895584 
L 130.763015 380.895584 
L 131.609881 373.365195 
L 132.456747 384.660779 
L 133.303613 380.895584 
L 134.150479 384.660779 
L 134.997345 380.895584 
L 137.537942 380.895584 
L 138.384808 377.13039 
L 139.231674 384.660779 
L 140.07854 384.660779 
L 140.925406 377.13039 
L 141.772272 380.895584 
L 143.466004 380.895584 
L 144.31287 377.13039 
L 145.159736 377.13039 
L 146.853468 392.191169 
L 147.700334 354.539221 
L 148.5472 392.191169 
L 149.394066 380.895584 
L 150.240932 384.660779 
L 151.087798 362.06961 
L 151.934664 388.425974 
L 152.78153 380.895584 
L 153.628396 362.06961 
L 154.475262 384.660779 
L 155.322128 384.660779 
L 156.168994 373.365195 
L 157.01586 369.6 
L 157.862726 380.895584 
L 158.709592 380.895584 
L 159.556458 373.365195 
L 160.403324 373.365195 
L 161.25019 380.895584 
L 162.097056 369.6 
L 162.943922 380.895584 
L 163.790788 377.13039 
L 164.637654 369.6 
L 165.48452 354.539221 
L 166.331386 365.834805 
L 167.178252 350.774026 
L 168.025118 275.47013 
L 168.871984 271.704935 
L 169.71885 234.052987 
L 170.565716 222.757403 
L 171.412582 192.635844 
L 172.259448 196.401039 
L 173.106314 215.227013 
L 173.95318 215.227013 
L 174.800046 226.522597 
L 175.646912 226.522597 
L 176.493778 249.113766 
L 177.340644 222.757403 
L 178.18751 275.47013 
L 179.034376 275.47013 
L 179.881242 298.061299 
L 180.728108 298.061299 
L 181.574974 309.356883 
L 182.42184 313.122078 
L 183.268706 335.713247 
L 184.115572 328.182857 
L 184.962438 354.539221 
L 185.809304 358.304416 
L 186.65617 354.539221 
L 187.503036 354.539221 
L 188.349902 358.304416 
L 189.196768 354.539221 
L 190.043634 365.834805 
L 190.8905 369.6 
L 191.737366 362.06961 
L 192.584232 362.06961 
L 193.431098 373.365195 
L 194.277964 369.6 
L 195.12483 373.365195 
L 195.971696 373.365195 
L 196.818562 369.6 
L 197.665428 377.13039 
L 198.512294 369.6 
L 199.35916 373.365195 
L 200.206026 384.660779 
L 201.052892 354.539221 
L 201.899758 380.895584 
L 202.746624 380.895584 
L 203.59349 384.660779 
L 204.440356 384.660779 
L 205.287222 365.834805 
L 206.134088 380.895584 
L 206.980954 373.365195 
L 207.82782 369.6 
L 208.674686 380.895584 
L 209.521552 380.895584 
L 210.368418 373.365195 
L 211.215284 380.895584 
L 212.909015 380.895584 
L 213.755881 377.13039 
L 214.602747 377.13039 
L 215.449613 384.660779 
L 216.296479 380.895584 
L 217.143345 384.660779 
L 217.990211 380.895584 
L 218.837077 384.660779 
L 219.683943 380.895584 
L 220.530809 384.660779 
L 221.377675 380.895584 
L 222.224541 384.660779 
L 223.071407 380.895584 
L 223.918273 384.660779 
L 224.765139 380.895584 
L 225.612005 380.895584 
L 226.458871 377.13039 
L 227.305737 384.660779 
L 228.152603 384.660779 
L 228.999469 380.895584 
L 229.846335 373.365195 
L 230.693201 388.425974 
L 231.540067 388.425974 
L 232.386933 380.895584 
L 233.233799 380.895584 
L 234.080665 384.660779 
L 234.927531 384.660779 
L 235.774397 377.13039 
L 236.621263 373.365195 
L 237.468129 384.660779 
L 238.314995 380.895584 
L 240.008727 380.895584 
L 240.855593 388.425974 
L 241.702459 377.13039 
L 242.549325 384.660779 
L 243.396191 380.895584 
L 244.243057 384.660779 
L 245.089923 377.13039 
L 245.936789 384.660779 
L 246.783655 384.660779 
L 247.630521 377.13039 
L 248.477387 380.895584 
L 249.324253 388.425974 
L 251.017985 380.895584 
L 251.864851 380.895584 
L 252.711717 384.660779 
L 253.558583 380.895584 
L 254.405449 388.425974 
L 255.252315 380.895584 
L 256.099181 392.191169 
L 256.946047 362.06961 
L 257.792913 392.191169 
L 258.639779 388.425974 
L 259.486645 380.895584 
L 260.333511 362.06961 
L 261.180377 384.660779 
L 262.027243 384.660779 
L 262.874109 365.834805 
L 263.720975 358.304416 
L 264.567841 369.6 
L 265.414707 369.6 
L 266.261573 362.06961 
L 267.108439 362.06961 
L 267.955305 369.6 
L 268.802171 369.6 
L 269.649037 365.834805 
L 271.342769 373.365195 
L 272.189635 369.6 
L 273.036501 380.895584 
L 273.883367 377.13039 
L 274.730233 380.895584 
L 277.270831 380.895584 
L 278.117697 384.660779 
L 278.964563 380.895584 
L 280.658295 380.895584 
L 281.505161 384.660779 
L 282.352027 380.895584 
L 284.045759 380.895584 
L 284.892625 384.660779 
L 285.739491 384.660779 
L 286.586357 380.895584 
L 287.433223 380.895584 
L 288.280088 388.425974 
L 289.126954 388.425974 
L 289.97382 380.895584 
L 290.820686 380.895584 
L 291.667552 388.425974 
L 293.361284 380.895584 
L 294.20815 380.895584 
L 295.055016 384.660779 
L 295.901882 384.660779 
L 296.748748 377.13039 
L 297.595614 384.660779 
L 298.44248 380.895584 
L 299.289346 380.895584 
L 300.136212 384.660779 
L 300.983078 380.895584 
L 301.829944 384.660779 
L 302.67681 380.895584 
L 304.370542 380.895584 
L 305.217408 369.6 
L 306.064274 373.365195 
L 306.91114 369.6 
L 307.758006 369.6 
L 308.604872 365.834805 
L 309.451738 373.365195 
L 310.298604 358.304416 
L 311.14547 354.539221 
L 311.992336 377.13039 
L 313.686068 369.6 
L 314.532934 369.6 
L 315.3798 380.895584 
L 316.226666 380.895584 
L 317.073532 369.6 
L 317.920398 380.895584 
L 318.767264 380.895584 
L 319.61413 384.660779 
L 320.460996 377.13039 
L 322.154728 384.660779 
L 323.001594 380.895584 
L 324.695326 380.895584 
L 325.542192 388.425974 
L 326.389058 380.895584 
L 327.235924 384.660779 
L 328.08279 384.660779 
L 328.929656 380.895584 
L 329.776522 384.660779 
L 330.623388 380.895584 
L 331.470254 380.895584 
L 332.31712 384.660779 
L 333.163986 380.895584 
L 334.010852 384.660779 
L 334.857718 384.660779 
L 335.704584 380.895584 
L 336.55145 392.191169 
L 337.398316 380.895584 
L 338.245182 388.425974 
L 339.092048 369.6 
L 339.938914 388.425974 
L 340.78578 380.895584 
L 341.632646 384.660779 
L 342.479512 380.895584 
L 343.326378 384.660779 
L 344.173244 380.895584 
L 345.02011 380.895584 
L 345.866976 384.660779 
L 346.713842 380.895584 
L 347.560708 388.425974 
L 348.407574 380.895584 
L 349.25444 388.425974 
L 350.948172 380.895584 
L 351.795038 380.895584 
L 352.641904 388.425974 
L 353.48877 388.425974 
L 354.335636 380.895584 
L 355.182502 380.895584 
L 356.029368 392.191169 
L 356.876234 380.895584 
L 357.7231 388.425974 
L 358.569966 388.425974 
L 359.416832 380.895584 
L 360.263698 380.895584 
L 361.110564 388.425974 
L 362.804296 380.895584 
L 363.651162 380.895584 
L 364.498027 388.425974 
L 365.344893 388.425974 
L 366.191759 380.895584 
L 367.038625 380.895584 
L 367.885491 384.660779 
L 368.732357 380.895584 
L 369.579223 388.425974 
L 370.426089 380.895584 
L 371.272955 388.425974 
L 372.119821 388.425974 
L 372.966687 380.895584 
L 373.813553 380.895584 
L 374.660419 388.425974 
L 375.507285 380.895584 
L 376.354151 388.425974 
L 377.201017 380.895584 
L 378.047883 384.660779 
L 378.894749 380.895584 
L 379.741615 388.425974 
L 380.588481 380.895584 
L 381.435347 388.425974 
L 382.282213 388.425974 
L 383.129079 380.895584 
L 383.975945 380.895584 
L 384.822811 388.425974 
L 385.669677 388.425974 
L 386.516543 380.895584 
L 387.363409 388.425974 
L 388.210275 380.895584 
L 389.057141 380.895584 
L 389.904007 388.425974 
L 390.750873 392.191169 
L 391.597739 380.895584 
L 392.444605 388.425974 
L 393.291471 380.895584 
L 394.138337 380.895584 
L 395.832069 388.425974 
L 396.678935 373.365195 
L 398.372667 388.425974 
L 399.219533 380.895584 
L 400.066399 384.660779 
L 400.913265 380.895584 
L 401.760131 384.660779 
L 402.606997 380.895584 
L 403.453863 388.425974 
L 404.300729 380.895584 
L 405.994461 388.425974 
L 406.841327 380.895584 
L 407.688193 384.660779 
L 408.535059 380.895584 
L 409.381925 388.425974 
L 410.228791 380.895584 
L 411.075657 380.895584 
L 411.922523 388.425974 
L 413.616255 380.895584 
L 414.463121 384.660779 
L 415.309987 380.895584 
L 416.156853 388.425974 
L 417.003719 380.895584 
L 417.850585 388.425974 
L 418.697451 377.13039 
L 419.544317 369.6 
L 420.391183 392.191169 
L 421.238049 388.425974 
L 422.084915 373.365195 
L 422.931781 365.834805 
L 423.778647 392.191169 
L 424.625513 388.425974 
L 425.472379 373.365195 
L 426.319245 373.365195 
L 427.166111 384.660779 
L 428.859843 377.13039 
L 429.706709 388.425974 
L 430.553575 377.13039 
L 431.400441 373.365195 
L 432.247307 380.895584 
L 433.094173 377.13039 
L 433.941039 369.6 
L 434.787905 373.365195 
L 435.634771 369.6 
L 436.481637 369.6 
L 437.328503 343.243636 
L 438.175369 339.478442 
L 439.022235 309.356883 
L 439.8691 301.826494 
L 440.715966 234.052987 
L 441.562832 222.757403 
L 442.409698 203.931429 
L 443.256564 203.931429 
L 444.10343 215.227013 
L 444.950296 211.461818 
L 445.797162 230.287792 
L 446.644028 222.757403 
L 447.490894 260.409351 
L 448.33776 267.93974 
L 449.184626 294.296104 
L 450.031492 298.061299 
L 450.878358 313.122078 
L 451.725224 305.591688 
L 452.57209 316.887273 
L 453.418956 316.887273 
L 454.265822 343.243636 
L 455.112688 343.243636 
L 455.959554 354.539221 
L 456.80642 354.539221 
L 457.653286 362.06961 
L 458.500152 358.304416 
L 459.347018 365.834805 
L 460.193884 362.06961 
L 461.04075 369.6 
L 461.887616 369.6 
L 462.734482 377.13039 
L 463.581348 373.365195 
L 464.428214 380.895584 
L 465.27508 373.365195 
L 466.121946 380.895584 
L 466.968812 377.13039 
L 467.815678 380.895584 
L 468.662544 380.895584 
L 469.50941 373.365195 
L 471.203142 380.895584 
L 472.896874 380.895584 
L 473.74374 377.13039 
L 474.590606 384.660779 
L 475.437472 380.895584 
L 476.284338 380.895584 
L 477.131204 388.425974 
L 477.97807 358.304416 
L 478.824936 392.191169 
L 479.671802 380.895584 
L 480.518668 395.956364 
L 481.365534 354.539221 
L 482.2124 395.956364 
L 483.059266 380.895584 
L 483.906132 358.304416 
L 484.752998 395.956364 
L 485.599864 392.191169 
L 486.44673 377.13039 
L 487.293596 369.6 
L 488.140462 392.191169 
L 488.987328 395.956364 
L 489.834194 369.6 
L 490.68106 373.365195 
L 491.527926 395.956364 
L 492.374792 388.425974 
L 493.221658 377.13039 
L 494.068524 392.191169 
L 494.91539 380.895584 
L 495.762256 388.425974 
L 496.609122 380.895584 
L 497.455988 392.191169 
L 498.302854 384.660779 
L 499.14972 388.425974 
L 499.996586 384.660779 
L 500.843452 388.425974 
L 501.690318 380.895584 
L 502.537184 388.425974 
L 503.38405 380.895584 
L 504.230916 380.895584 
L 505.077782 392.191169 
L 505.924648 380.895584 
L 506.771514 388.425974 
L 507.61838 388.425974 
L 508.465246 395.956364 
L 509.312112 354.539221 
L 510.158978 399.721558 
L 511.005844 395.956364 
L 511.85271 380.895584 
L 512.699576 380.895584 
L 513.546442 388.425974 
L 514.393308 392.191169 
L 515.240173 380.895584 
L 516.087039 388.425974 
L 516.933905 380.895584 
L 517.780771 380.895584 
L 518.627637 388.425974 
L 519.474503 384.660779 
L 520.321369 395.956364 
L 521.168235 365.834805 
L 522.015101 395.956364 
L 522.861967 388.425974 
L 523.708833 411.017143 
L 524.555699 328.182857 
L 525.402565 411.017143 
L 526.249431 411.017143 
L 527.096297 354.539221 
L 527.943163 328.182857 
L 528.790029 414.782338 
L 529.636895 414.782338 
L 530.483761 313.122078 
L 531.330627 380.895584 
L 532.177493 422.312727 
L 533.024359 411.017143 
L 533.871225 328.182857 
L 534.718091 418.547532 
L 535.564957 388.425974 
L 536.411823 403.486753 
L 537.258689 339.478442 
L 538.105555 407.251948 
L 538.952421 384.660779 
L 539.799287 358.304416 
L 540.646153 395.956364 
L 541.493019 392.191169 
L 542.339885 354.539221 
L 543.186751 347.008831 
L 544.033617 380.895584 
L 544.880483 373.365195 
L 545.727349 362.06961 
L 546.574215 362.06961 
L 547.421081 373.365195 
L 548.267947 369.6 
L 549.961679 377.13039 
L 550.808545 369.6 
L 551.655411 380.895584 
L 552.502277 373.365195 
L 553.349143 380.895584 
L 554.196009 380.895584 
L 555.042875 392.191169 
L 555.889741 354.539221 
L 556.736607 369.6 
L 557.583473 395.956364 
L 558.430339 380.895584 
L 559.277205 392.191169 
L 560.124071 392.191169 
L 560.970937 384.660779 
L 561.817803 388.425974 
L 562.664669 380.895584 
L 563.511535 380.895584 
L 564.358401 388.425974 
L 565.205267 388.425974 
L 566.052133 380.895584 
L 566.898999 392.191169 
L 567.745865 384.660779 
L 568.592731 392.191169 
L 569.439597 380.895584 
L 570.286463 392.191169 
L 571.133329 384.660779 
L 571.980195 388.425974 
L 572.827061 380.895584 
L 573.673927 380.895584 
L 574.520793 392.191169 
L 575.367659 384.660779 
L 576.214525 392.191169 
L 577.061391 388.425974 
L 577.908257 380.895584 
L 578.755123 388.425974 
L 579.601989 380.895584 
L 579.601989 380.895584 
" style="fill:none;stroke:#ff7f0e;stroke-linecap:square;stroke-width:1.5;"/>
   </g>
   <g id="patch_3">
    <path d="M 46.965625 442.08 
L 46.965625 7.2 
" style="fill:none;stroke:#000000;stroke-linecap:square;stroke-linejoin:miter;stroke-width:0.8;"/>
   </g>
   <g id="patch_4">
    <path d="M 604.965625 442.08 
L 604.965625 7.2 
" style="fill:none;stroke:#000000;stroke-linecap:square;stroke-linejoin:miter;stroke-width:0.8;"/>
   </g>
   <g id="patch_5">
    <path d="M 46.965625 442.08 
L 604.965625 442.08 
" style="fill:none;stroke:#000000;stroke-linecap:square;stroke-linejoin:miter;stroke-width:0.8;"/>
   </g>
   <g id="patch_6">
    <path d="M 46.965625 7.2 
L 604.965625 7.2 
" style="fill:none;stroke:#000000;stroke-linecap:square;stroke-linejoin:miter;stroke-width:0.8;"/>
   </g>
   <g id="legend_1">
    <g id="patch_7">
     <path d="M 53.965625 44.55625 
L 126.865625 44.55625 
Q 128.865625 44.55625 128.865625 42.55625 
L 128.865625 14.2 
Q 128.865625 12.2 126.865625 12.2 
L 53.965625 12.2 
Q 51.965625 12.2 51.965625 14.2 
L 51.965625 42.55625 
Q 51.965625 44.55625 53.965625 44.55625 
z
" style="fill:#ffffff;opacity:0.8;stroke:#cccccc;stroke-linejoin:miter;"/>
    </g>
    <g id="line2d_29">
     <path d="M 55.965625 20.298437 
L 75.965625 20.298437 
" style="fill:none;stroke:#1f77b4;stroke-linecap:square;stroke-width:1.5;"/>
    </g>
    <g id="line2d_30"/>
    <g id="text_16">
     <!-- $\theta_0$ -->
     <g transform="translate(83.965625 23.798437)scale(0.1 -0.1)">
      <defs>
       <path d="M 45.515625 34.671875 
L 14.453125 34.671875 
Q 12.359375 20.0625 14.5 13.875 
Q 17.1875 6.25 24.46875 6.25 
Q 31.78125 6.25 37.359375 13.921875 
Q 42.234375 20.65625 45.515625 34.671875 
z
M 47.015625 42.96875 
Q 48.34375 56.84375 46.625 61.71875 
Q 43.953125 69.4375 36.765625 69.4375 
Q 29.296875 69.4375 23.828125 61.8125 
Q 19.53125 55.671875 16.15625 42.96875 
z
M 38.1875 76.765625 
Q 49.90625 76.765625 54.59375 66.40625 
Q 59.28125 56.109375 55.71875 37.84375 
Q 52.203125 19.625 43.453125 9.28125 
Q 34.765625 -1.125 23.046875 -1.125 
Q 11.28125 -1.125 6.640625 9.28125 
Q 2 19.625 5.515625 37.84375 
Q 9.078125 56.109375 17.71875 66.40625 
Q 26.421875 76.765625 38.1875 76.765625 
z
" id="DejaVuSans-Oblique-952"/>
      </defs>
      <use transform="translate(0 0.234375)" xlink:href="#DejaVuSans-Oblique-952"/>
      <use transform="translate(61.181641 -16.171875)scale(0.7)" xlink:href="#DejaVuSans-48"/>
     </g>
    </g>
    <g id="line2d_31">
     <path d="M 55.965625 34.976562 
L 75.965625 34.976562 
" style="fill:none;stroke:#ff7f0e;stroke-linecap:square;stroke-width:1.5;"/>
    </g>
    <g id="line2d_32"/>
    <g id="text_17">
     <!-- $\theta_0 + 90°$ -->
     <g transform="translate(83.965625 38.476562)scale(0.1 -0.1)">
      <defs>
       <path d="M 46 62.703125 
L 46 35.5 
L 73.1875 35.5 
L 73.1875 27.203125 
L 46 27.203125 
L 46 0 
L 37.796875 0 
L 37.796875 27.203125 
L 10.59375 27.203125 
L 10.59375 35.5 
L 37.796875 35.5 
L 37.796875 62.703125 
z
" id="DejaVuSans-43"/>
       <path d="M 10.984375 1.515625 
L 10.984375 10.5 
Q 14.703125 8.734375 18.5 7.8125 
Q 22.3125 6.890625 25.984375 6.890625 
Q 35.75 6.890625 40.890625 13.453125 
Q 46.046875 20.015625 46.78125 33.40625 
Q 43.953125 29.203125 39.59375 26.953125 
Q 35.25 24.703125 29.984375 24.703125 
Q 19.046875 24.703125 12.671875 31.3125 
Q 6.296875 37.9375 6.296875 49.421875 
Q 6.296875 60.640625 12.9375 67.421875 
Q 19.578125 74.21875 30.609375 74.21875 
Q 43.265625 74.21875 49.921875 64.515625 
Q 56.59375 54.828125 56.59375 36.375 
Q 56.59375 19.140625 48.40625 8.859375 
Q 40.234375 -1.421875 26.421875 -1.421875 
Q 22.703125 -1.421875 18.890625 -0.6875 
Q 15.09375 0.046875 10.984375 1.515625 
z
M 30.609375 32.421875 
Q 37.25 32.421875 41.125 36.953125 
Q 45.015625 41.5 45.015625 49.421875 
Q 45.015625 57.28125 41.125 61.84375 
Q 37.25 66.40625 30.609375 66.40625 
Q 23.96875 66.40625 20.09375 61.84375 
Q 16.21875 57.28125 16.21875 49.421875 
Q 16.21875 41.5 20.09375 36.953125 
Q 23.96875 32.421875 30.609375 32.421875 
z
" id="DejaVuSans-57"/>
       <path d="M 25 67.921875 
Q 21.09375 67.921875 18.40625 65.203125 
Q 15.71875 62.5 15.71875 58.59375 
Q 15.71875 54.734375 18.40625 52.078125 
Q 21.09375 49.421875 25 49.421875 
Q 28.90625 49.421875 31.59375 52.078125 
Q 34.28125 54.734375 34.28125 58.59375 
Q 34.28125 62.453125 31.5625 65.1875 
Q 28.859375 67.921875 25 67.921875 
z
M 25 74.21875 
Q 28.125 74.21875 31 73.015625 
Q 33.890625 71.828125 35.984375 69.578125 
Q 38.234375 67.390625 39.359375 64.59375 
Q 40.484375 61.8125 40.484375 58.59375 
Q 40.484375 52.15625 35.96875 47.6875 
Q 31.453125 43.21875 24.90625 43.21875 
Q 18.3125 43.21875 13.90625 47.609375 
Q 9.515625 52 9.515625 58.59375 
Q 9.515625 65.140625 14 69.671875 
Q 18.5 74.21875 25 74.21875 
z
" id="DejaVuSans-176"/>
      </defs>
      <use transform="translate(0 0.234375)" xlink:href="#DejaVuSans-Oblique-952"/>
      <use transform="translate(61.181641 -16.171875)scale(0.7)" xlink:href="#DejaVuSans-48"/>
      <use transform="translate(127.93457 0.234375)" xlink:href="#DejaVuSans-43"/>
      <use transform="translate(231.206055 0.234375)" xlink:href="#DejaVuSans-57"/>
      <use transform="translate(294.829102 0.234375)" xlink:href="#DejaVuSans-48"/>
      <use transform="translate(358.452148 0.234375)" xlink:href="#DejaVuSans-176"/>
     </g>
    </g>
   </g>
  </g>
 </g>
 <defs>
  <clipPath id="p797a7bb1d3">
   <rect height="434.88" width="558" x="46.965625" y="7.2"/>
  </clipPath>
 </defs>
</svg>
