<?xml version="1.0" encoding="utf-8" standalone="no"?>
<!DOCTYPE svg PUBLIC "-//W3C//DTD SVG 1.1//EN"
  "http://www.w3.org/Graphics/SVG/1.1/DTD/svg11.dtd">
<!-- Created with matplotlib (https://matplotlib.org/) -->
<svg height="479.63625pt" version="1.1" viewBox="0 0 612.165625 479.63625" width="612.165625pt" xmlns="http://www.w3.org/2000/svg" xmlns:xlink="http://www.w3.org/1999/xlink">
 <metadata>
  <rdf:RDF xmlns:cc="http://creativecommons.org/ns#" xmlns:dc="http://purl.org/dc/elements/1.1/" xmlns:rdf="http://www.w3.org/1999/02/22-rdf-syntax-ns#">
   <cc:Work>
    <dc:type rdf:resource="http://purl.org/dc/dcmitype/StillImage"/>
    <dc:date>2020-11-17T16:18:40.658183</dc:date>
    <dc:format>image/svg+xml</dc:format>
    <dc:creator>
     <cc:Agent>
      <dc:title>Matplotlib v3.3.3, https://matplotlib.org/</dc:title>
     </cc:Agent>
    </dc:creator>
   </cc:Work>
  </rdf:RDF>
 </metadata>
 <defs>
  <style type="text/css">*{stroke-linecap:butt;stroke-linejoin:round;}</style>
 </defs>
 <g id="figure_1">
  <g id="patch_1">
   <path d="M 0 479.63625 
L 612.165625 479.63625 
L 612.165625 0 
L 0 0 
z
" style="fill:none;"/>
  </g>
  <g id="axes_1">
   <g id="patch_2">
    <path d="M 46.965625 442.08 
L 604.965625 442.08 
L 604.965625 7.2 
L 46.965625 7.2 
z
" style="fill:#ffffff;"/>
   </g>
   <g id="matplotlib.axis_1">
    <g id="xtick_1">
     <g id="line2d_1">
      <path clip-path="url(#pc7bd6d68a5)" d="M 72.329261 442.08 
L 72.329261 7.2 
" style="fill:none;stroke:#b0b0b0;stroke-linecap:square;stroke-width:0.8;"/>
     </g>
     <g id="line2d_2">
      <defs>
       <path d="M 0 0 
L 0 3.5 
" id="mda6fa97297" style="stroke:#000000;stroke-width:0.8;"/>
      </defs>
      <g>
       <use style="stroke:#000000;stroke-width:0.8;" x="72.329261" xlink:href="#mda6fa97297" y="442.08"/>
      </g>
     </g>
     <g id="text_1">
      <!-- 0 -->
      <g transform="translate(69.148011 456.678437)scale(0.1 -0.1)">
       <defs>
        <path d="M 31.78125 66.40625 
Q 24.171875 66.40625 20.328125 58.90625 
Q 16.5 51.421875 16.5 36.375 
Q 16.5 21.390625 20.328125 13.890625 
Q 24.171875 6.390625 31.78125 6.390625 
Q 39.453125 6.390625 43.28125 13.890625 
Q 47.125 21.390625 47.125 36.375 
Q 47.125 51.421875 43.28125 58.90625 
Q 39.453125 66.40625 31.78125 66.40625 
z
M 31.78125 74.21875 
Q 44.046875 74.21875 50.515625 64.515625 
Q 56.984375 54.828125 56.984375 36.375 
Q 56.984375 17.96875 50.515625 8.265625 
Q 44.046875 -1.421875 31.78125 -1.421875 
Q 19.53125 -1.421875 13.0625 8.265625 
Q 6.59375 17.96875 6.59375 36.375 
Q 6.59375 54.828125 13.0625 64.515625 
Q 19.53125 74.21875 31.78125 74.21875 
z
" id="DejaVuSans-48"/>
       </defs>
       <use xlink:href="#DejaVuSans-48"/>
      </g>
     </g>
    </g>
    <g id="xtick_2">
     <g id="line2d_3">
      <path clip-path="url(#pc7bd6d68a5)" d="M 157.01586 442.08 
L 157.01586 7.2 
" style="fill:none;stroke:#b0b0b0;stroke-linecap:square;stroke-width:0.8;"/>
     </g>
     <g id="line2d_4">
      <g>
       <use style="stroke:#000000;stroke-width:0.8;" x="157.01586" xlink:href="#mda6fa97297" y="442.08"/>
      </g>
     </g>
     <g id="text_2">
      <!-- 100 -->
      <g transform="translate(147.47211 456.678437)scale(0.1 -0.1)">
       <defs>
        <path d="M 12.40625 8.296875 
L 28.515625 8.296875 
L 28.515625 63.921875 
L 10.984375 60.40625 
L 10.984375 69.390625 
L 28.421875 72.90625 
L 38.28125 72.90625 
L 38.28125 8.296875 
L 54.390625 8.296875 
L 54.390625 0 
L 12.40625 0 
z
" id="DejaVuSans-49"/>
       </defs>
       <use xlink:href="#DejaVuSans-49"/>
       <use x="63.623047" xlink:href="#DejaVuSans-48"/>
       <use x="127.246094" xlink:href="#DejaVuSans-48"/>
      </g>
     </g>
    </g>
    <g id="xtick_3">
     <g id="line2d_5">
      <path clip-path="url(#pc7bd6d68a5)" d="M 241.702459 442.08 
L 241.702459 7.2 
" style="fill:none;stroke:#b0b0b0;stroke-linecap:square;stroke-width:0.8;"/>
     </g>
     <g id="line2d_6">
      <g>
       <use style="stroke:#000000;stroke-width:0.8;" x="241.702459" xlink:href="#mda6fa97297" y="442.08"/>
      </g>
     </g>
     <g id="text_3">
      <!-- 200 -->
      <g transform="translate(232.158709 456.678437)scale(0.1 -0.1)">
       <defs>
        <path d="M 19.1875 8.296875 
L 53.609375 8.296875 
L 53.609375 0 
L 7.328125 0 
L 7.328125 8.296875 
Q 12.9375 14.109375 22.625 23.890625 
Q 32.328125 33.6875 34.8125 36.53125 
Q 39.546875 41.84375 41.421875 45.53125 
Q 43.3125 49.21875 43.3125 52.78125 
Q 43.3125 58.59375 39.234375 62.25 
Q 35.15625 65.921875 28.609375 65.921875 
Q 23.96875 65.921875 18.8125 64.3125 
Q 13.671875 62.703125 7.8125 59.421875 
L 7.8125 69.390625 
Q 13.765625 71.78125 18.9375 73 
Q 24.125 74.21875 28.421875 74.21875 
Q 39.75 74.21875 46.484375 68.546875 
Q 53.21875 62.890625 53.21875 53.421875 
Q 53.21875 48.921875 51.53125 44.890625 
Q 49.859375 40.875 45.40625 35.40625 
Q 44.1875 33.984375 37.640625 27.21875 
Q 31.109375 20.453125 19.1875 8.296875 
z
" id="DejaVuSans-50"/>
       </defs>
       <use xlink:href="#DejaVuSans-50"/>
       <use x="63.623047" xlink:href="#DejaVuSans-48"/>
       <use x="127.246094" xlink:href="#DejaVuSans-48"/>
      </g>
     </g>
    </g>
    <g id="xtick_4">
     <g id="line2d_7">
      <path clip-path="url(#pc7bd6d68a5)" d="M 326.389058 442.08 
L 326.389058 7.2 
" style="fill:none;stroke:#b0b0b0;stroke-linecap:square;stroke-width:0.8;"/>
     </g>
     <g id="line2d_8">
      <g>
       <use style="stroke:#000000;stroke-width:0.8;" x="326.389058" xlink:href="#mda6fa97297" y="442.08"/>
      </g>
     </g>
     <g id="text_4">
      <!-- 300 -->
      <g transform="translate(316.845308 456.678437)scale(0.1 -0.1)">
       <defs>
        <path d="M 40.578125 39.3125 
Q 47.65625 37.796875 51.625 33 
Q 55.609375 28.21875 55.609375 21.1875 
Q 55.609375 10.40625 48.1875 4.484375 
Q 40.765625 -1.421875 27.09375 -1.421875 
Q 22.515625 -1.421875 17.65625 -0.515625 
Q 12.796875 0.390625 7.625 2.203125 
L 7.625 11.71875 
Q 11.71875 9.328125 16.59375 8.109375 
Q 21.484375 6.890625 26.8125 6.890625 
Q 36.078125 6.890625 40.9375 10.546875 
Q 45.796875 14.203125 45.796875 21.1875 
Q 45.796875 27.640625 41.28125 31.265625 
Q 36.765625 34.90625 28.71875 34.90625 
L 20.21875 34.90625 
L 20.21875 43.015625 
L 29.109375 43.015625 
Q 36.375 43.015625 40.234375 45.921875 
Q 44.09375 48.828125 44.09375 54.296875 
Q 44.09375 59.90625 40.109375 62.90625 
Q 36.140625 65.921875 28.71875 65.921875 
Q 24.65625 65.921875 20.015625 65.03125 
Q 15.375 64.15625 9.8125 62.3125 
L 9.8125 71.09375 
Q 15.4375 72.65625 20.34375 73.4375 
Q 25.25 74.21875 29.59375 74.21875 
Q 40.828125 74.21875 47.359375 69.109375 
Q 53.90625 64.015625 53.90625 55.328125 
Q 53.90625 49.265625 50.4375 45.09375 
Q 46.96875 40.921875 40.578125 39.3125 
z
" id="DejaVuSans-51"/>
       </defs>
       <use xlink:href="#DejaVuSans-51"/>
       <use x="63.623047" xlink:href="#DejaVuSans-48"/>
       <use x="127.246094" xlink:href="#DejaVuSans-48"/>
      </g>
     </g>
    </g>
    <g id="xtick_5">
     <g id="line2d_9">
      <path clip-path="url(#pc7bd6d68a5)" d="M 411.075657 442.08 
L 411.075657 7.2 
" style="fill:none;stroke:#b0b0b0;stroke-linecap:square;stroke-width:0.8;"/>
     </g>
     <g id="line2d_10">
      <g>
       <use style="stroke:#000000;stroke-width:0.8;" x="411.075657" xlink:href="#mda6fa97297" y="442.08"/>
      </g>
     </g>
     <g id="text_5">
      <!-- 400 -->
      <g transform="translate(401.531907 456.678437)scale(0.1 -0.1)">
       <defs>
        <path d="M 37.796875 64.3125 
L 12.890625 25.390625 
L 37.796875 25.390625 
z
M 35.203125 72.90625 
L 47.609375 72.90625 
L 47.609375 25.390625 
L 58.015625 25.390625 
L 58.015625 17.1875 
L 47.609375 17.1875 
L 47.609375 0 
L 37.796875 0 
L 37.796875 17.1875 
L 4.890625 17.1875 
L 4.890625 26.703125 
z
" id="DejaVuSans-52"/>
       </defs>
       <use xlink:href="#DejaVuSans-52"/>
       <use x="63.623047" xlink:href="#DejaVuSans-48"/>
       <use x="127.246094" xlink:href="#DejaVuSans-48"/>
      </g>
     </g>
    </g>
    <g id="xtick_6">
     <g id="line2d_11">
      <path clip-path="url(#pc7bd6d68a5)" d="M 495.762256 442.08 
L 495.762256 7.2 
" style="fill:none;stroke:#b0b0b0;stroke-linecap:square;stroke-width:0.8;"/>
     </g>
     <g id="line2d_12">
      <g>
       <use style="stroke:#000000;stroke-width:0.8;" x="495.762256" xlink:href="#mda6fa97297" y="442.08"/>
      </g>
     </g>
     <g id="text_6">
      <!-- 500 -->
      <g transform="translate(486.218506 456.678437)scale(0.1 -0.1)">
       <defs>
        <path d="M 10.796875 72.90625 
L 49.515625 72.90625 
L 49.515625 64.59375 
L 19.828125 64.59375 
L 19.828125 46.734375 
Q 21.96875 47.46875 24.109375 47.828125 
Q 26.265625 48.1875 28.421875 48.1875 
Q 40.625 48.1875 47.75 41.5 
Q 54.890625 34.8125 54.890625 23.390625 
Q 54.890625 11.625 47.5625 5.09375 
Q 40.234375 -1.421875 26.90625 -1.421875 
Q 22.3125 -1.421875 17.546875 -0.640625 
Q 12.796875 0.140625 7.71875 1.703125 
L 7.71875 11.625 
Q 12.109375 9.234375 16.796875 8.0625 
Q 21.484375 6.890625 26.703125 6.890625 
Q 35.15625 6.890625 40.078125 11.328125 
Q 45.015625 15.765625 45.015625 23.390625 
Q 45.015625 31 40.078125 35.4375 
Q 35.15625 39.890625 26.703125 39.890625 
Q 22.75 39.890625 18.8125 39.015625 
Q 14.890625 38.140625 10.796875 36.28125 
z
" id="DejaVuSans-53"/>
       </defs>
       <use xlink:href="#DejaVuSans-53"/>
       <use x="63.623047" xlink:href="#DejaVuSans-48"/>
       <use x="127.246094" xlink:href="#DejaVuSans-48"/>
      </g>
     </g>
    </g>
    <g id="xtick_7">
     <g id="line2d_13">
      <path clip-path="url(#pc7bd6d68a5)" d="M 580.448855 442.08 
L 580.448855 7.2 
" style="fill:none;stroke:#b0b0b0;stroke-linecap:square;stroke-width:0.8;"/>
     </g>
     <g id="line2d_14">
      <g>
       <use style="stroke:#000000;stroke-width:0.8;" x="580.448855" xlink:href="#mda6fa97297" y="442.08"/>
      </g>
     </g>
     <g id="text_7">
      <!-- 600 -->
      <g transform="translate(570.905105 456.678437)scale(0.1 -0.1)">
       <defs>
        <path d="M 33.015625 40.375 
Q 26.375 40.375 22.484375 35.828125 
Q 18.609375 31.296875 18.609375 23.390625 
Q 18.609375 15.53125 22.484375 10.953125 
Q 26.375 6.390625 33.015625 6.390625 
Q 39.65625 6.390625 43.53125 10.953125 
Q 47.40625 15.53125 47.40625 23.390625 
Q 47.40625 31.296875 43.53125 35.828125 
Q 39.65625 40.375 33.015625 40.375 
z
M 52.59375 71.296875 
L 52.59375 62.3125 
Q 48.875 64.0625 45.09375 64.984375 
Q 41.3125 65.921875 37.59375 65.921875 
Q 27.828125 65.921875 22.671875 59.328125 
Q 17.53125 52.734375 16.796875 39.40625 
Q 19.671875 43.65625 24.015625 45.921875 
Q 28.375 48.1875 33.59375 48.1875 
Q 44.578125 48.1875 50.953125 41.515625 
Q 57.328125 34.859375 57.328125 23.390625 
Q 57.328125 12.15625 50.6875 5.359375 
Q 44.046875 -1.421875 33.015625 -1.421875 
Q 20.359375 -1.421875 13.671875 8.265625 
Q 6.984375 17.96875 6.984375 36.375 
Q 6.984375 53.65625 15.1875 63.9375 
Q 23.390625 74.21875 37.203125 74.21875 
Q 40.921875 74.21875 44.703125 73.484375 
Q 48.484375 72.75 52.59375 71.296875 
z
" id="DejaVuSans-54"/>
       </defs>
       <use xlink:href="#DejaVuSans-54"/>
       <use x="63.623047" xlink:href="#DejaVuSans-48"/>
       <use x="127.246094" xlink:href="#DejaVuSans-48"/>
      </g>
     </g>
    </g>
    <g id="text_8">
     <!-- Wellenlänge [nm] -->
     <g transform="translate(281.813281 470.356562)scale(0.1 -0.1)">
      <defs>
       <path d="M 3.328125 72.90625 
L 13.28125 72.90625 
L 28.609375 11.28125 
L 43.890625 72.90625 
L 54.984375 72.90625 
L 70.3125 11.28125 
L 85.59375 72.90625 
L 95.609375 72.90625 
L 77.296875 0 
L 64.890625 0 
L 49.515625 63.28125 
L 33.984375 0 
L 21.578125 0 
z
" id="DejaVuSans-87"/>
       <path d="M 56.203125 29.59375 
L 56.203125 25.203125 
L 14.890625 25.203125 
Q 15.484375 15.921875 20.484375 11.0625 
Q 25.484375 6.203125 34.421875 6.203125 
Q 39.59375 6.203125 44.453125 7.46875 
Q 49.3125 8.734375 54.109375 11.28125 
L 54.109375 2.78125 
Q 49.265625 0.734375 44.1875 -0.34375 
Q 39.109375 -1.421875 33.890625 -1.421875 
Q 20.796875 -1.421875 13.15625 6.1875 
Q 5.515625 13.8125 5.515625 26.8125 
Q 5.515625 40.234375 12.765625 48.109375 
Q 20.015625 56 32.328125 56 
Q 43.359375 56 49.78125 48.890625 
Q 56.203125 41.796875 56.203125 29.59375 
z
M 47.21875 32.234375 
Q 47.125 39.59375 43.09375 43.984375 
Q 39.0625 48.390625 32.421875 48.390625 
Q 24.90625 48.390625 20.390625 44.140625 
Q 15.875 39.890625 15.1875 32.171875 
z
" id="DejaVuSans-101"/>
       <path d="M 9.421875 75.984375 
L 18.40625 75.984375 
L 18.40625 0 
L 9.421875 0 
z
" id="DejaVuSans-108"/>
       <path d="M 54.890625 33.015625 
L 54.890625 0 
L 45.90625 0 
L 45.90625 32.71875 
Q 45.90625 40.484375 42.875 44.328125 
Q 39.84375 48.1875 33.796875 48.1875 
Q 26.515625 48.1875 22.3125 43.546875 
Q 18.109375 38.921875 18.109375 30.90625 
L 18.109375 0 
L 9.078125 0 
L 9.078125 54.6875 
L 18.109375 54.6875 
L 18.109375 46.1875 
Q 21.34375 51.125 25.703125 53.5625 
Q 30.078125 56 35.796875 56 
Q 45.21875 56 50.046875 50.171875 
Q 54.890625 44.34375 54.890625 33.015625 
z
" id="DejaVuSans-110"/>
       <path d="M 34.28125 27.484375 
Q 23.390625 27.484375 19.1875 25 
Q 14.984375 22.515625 14.984375 16.5 
Q 14.984375 11.71875 18.140625 8.90625 
Q 21.296875 6.109375 26.703125 6.109375 
Q 34.1875 6.109375 38.703125 11.40625 
Q 43.21875 16.703125 43.21875 25.484375 
L 43.21875 27.484375 
z
M 52.203125 31.203125 
L 52.203125 0 
L 43.21875 0 
L 43.21875 8.296875 
Q 40.140625 3.328125 35.546875 0.953125 
Q 30.953125 -1.421875 24.3125 -1.421875 
Q 15.921875 -1.421875 10.953125 3.296875 
Q 6 8.015625 6 15.921875 
Q 6 25.140625 12.171875 29.828125 
Q 18.359375 34.515625 30.609375 34.515625 
L 43.21875 34.515625 
L 43.21875 35.40625 
Q 43.21875 41.609375 39.140625 45 
Q 35.0625 48.390625 27.6875 48.390625 
Q 23 48.390625 18.546875 47.265625 
Q 14.109375 46.140625 10.015625 43.890625 
L 10.015625 52.203125 
Q 14.9375 54.109375 19.578125 55.046875 
Q 24.21875 56 28.609375 56 
Q 40.484375 56 46.34375 49.84375 
Q 52.203125 43.703125 52.203125 31.203125 
z
M 33.59375 75.78125 
L 43.5 75.78125 
L 43.5 65.921875 
L 33.59375 65.921875 
z
M 14.5 75.78125 
L 24.40625 75.78125 
L 24.40625 65.921875 
L 14.5 65.921875 
z
" id="DejaVuSans-228"/>
       <path d="M 45.40625 27.984375 
Q 45.40625 37.75 41.375 43.109375 
Q 37.359375 48.484375 30.078125 48.484375 
Q 22.859375 48.484375 18.828125 43.109375 
Q 14.796875 37.75 14.796875 27.984375 
Q 14.796875 18.265625 18.828125 12.890625 
Q 22.859375 7.515625 30.078125 7.515625 
Q 37.359375 7.515625 41.375 12.890625 
Q 45.40625 18.265625 45.40625 27.984375 
z
M 54.390625 6.78125 
Q 54.390625 -7.171875 48.1875 -13.984375 
Q 42 -20.796875 29.203125 -20.796875 
Q 24.46875 -20.796875 20.265625 -20.09375 
Q 16.0625 -19.390625 12.109375 -17.921875 
L 12.109375 -9.1875 
Q 16.0625 -11.328125 19.921875 -12.34375 
Q 23.78125 -13.375 27.78125 -13.375 
Q 36.625 -13.375 41.015625 -8.765625 
Q 45.40625 -4.15625 45.40625 5.171875 
L 45.40625 9.625 
Q 42.625 4.78125 38.28125 2.390625 
Q 33.9375 0 27.875 0 
Q 17.828125 0 11.671875 7.65625 
Q 5.515625 15.328125 5.515625 27.984375 
Q 5.515625 40.671875 11.671875 48.328125 
Q 17.828125 56 27.875 56 
Q 33.9375 56 38.28125 53.609375 
Q 42.625 51.21875 45.40625 46.390625 
L 45.40625 54.6875 
L 54.390625 54.6875 
z
" id="DejaVuSans-103"/>
       <path id="DejaVuSans-32"/>
       <path d="M 8.59375 75.984375 
L 29.296875 75.984375 
L 29.296875 69 
L 17.578125 69 
L 17.578125 -6.203125 
L 29.296875 -6.203125 
L 29.296875 -13.1875 
L 8.59375 -13.1875 
z
" id="DejaVuSans-91"/>
       <path d="M 52 44.1875 
Q 55.375 50.25 60.0625 53.125 
Q 64.75 56 71.09375 56 
Q 79.640625 56 84.28125 50.015625 
Q 88.921875 44.046875 88.921875 33.015625 
L 88.921875 0 
L 79.890625 0 
L 79.890625 32.71875 
Q 79.890625 40.578125 77.09375 44.375 
Q 74.3125 48.1875 68.609375 48.1875 
Q 61.625 48.1875 57.5625 43.546875 
Q 53.515625 38.921875 53.515625 30.90625 
L 53.515625 0 
L 44.484375 0 
L 44.484375 32.71875 
Q 44.484375 40.625 41.703125 44.40625 
Q 38.921875 48.1875 33.109375 48.1875 
Q 26.21875 48.1875 22.15625 43.53125 
Q 18.109375 38.875 18.109375 30.90625 
L 18.109375 0 
L 9.078125 0 
L 9.078125 54.6875 
L 18.109375 54.6875 
L 18.109375 46.1875 
Q 21.1875 51.21875 25.484375 53.609375 
Q 29.78125 56 35.6875 56 
Q 41.65625 56 45.828125 52.96875 
Q 50 49.953125 52 44.1875 
z
" id="DejaVuSans-109"/>
       <path d="M 30.421875 75.984375 
L 30.421875 -13.1875 
L 9.71875 -13.1875 
L 9.71875 -6.203125 
L 21.390625 -6.203125 
L 21.390625 69 
L 9.71875 69 
L 9.71875 75.984375 
z
" id="DejaVuSans-93"/>
      </defs>
      <use xlink:href="#DejaVuSans-87"/>
      <use x="93.001953" xlink:href="#DejaVuSans-101"/>
      <use x="154.525391" xlink:href="#DejaVuSans-108"/>
      <use x="182.308594" xlink:href="#DejaVuSans-108"/>
      <use x="210.091797" xlink:href="#DejaVuSans-101"/>
      <use x="271.615234" xlink:href="#DejaVuSans-110"/>
      <use x="334.994141" xlink:href="#DejaVuSans-108"/>
      <use x="362.777344" xlink:href="#DejaVuSans-228"/>
      <use x="424.056641" xlink:href="#DejaVuSans-110"/>
      <use x="487.435547" xlink:href="#DejaVuSans-103"/>
      <use x="550.912109" xlink:href="#DejaVuSans-101"/>
      <use x="612.435547" xlink:href="#DejaVuSans-32"/>
      <use x="644.222656" xlink:href="#DejaVuSans-91"/>
      <use x="683.236328" xlink:href="#DejaVuSans-110"/>
      <use x="746.615234" xlink:href="#DejaVuSans-109"/>
      <use x="844.027344" xlink:href="#DejaVuSans-93"/>
     </g>
    </g>
   </g>
   <g id="matplotlib.axis_2">
    <g id="ytick_1">
     <g id="line2d_15">
      <path clip-path="url(#pc7bd6d68a5)" d="M 46.965625 417.768527 
L 604.965625 417.768527 
" style="fill:none;stroke:#b0b0b0;stroke-linecap:square;stroke-width:0.8;"/>
     </g>
     <g id="line2d_16">
      <defs>
       <path d="M 0 0 
L -3.5 0 
" id="me7b9f44f80" style="stroke:#000000;stroke-width:0.8;"/>
      </defs>
      <g>
       <use style="stroke:#000000;stroke-width:0.8;" x="46.965625" xlink:href="#me7b9f44f80" y="417.768527"/>
      </g>
     </g>
     <g id="text_9">
      <!-- 25 -->
      <g transform="translate(27.240625 421.567745)scale(0.1 -0.1)">
       <use xlink:href="#DejaVuSans-50"/>
       <use x="63.623047" xlink:href="#DejaVuSans-53"/>
      </g>
     </g>
    </g>
    <g id="ytick_2">
     <g id="line2d_17">
      <path clip-path="url(#pc7bd6d68a5)" d="M 46.965625 360.966019 
L 604.965625 360.966019 
" style="fill:none;stroke:#b0b0b0;stroke-linecap:square;stroke-width:0.8;"/>
     </g>
     <g id="line2d_18">
      <g>
       <use style="stroke:#000000;stroke-width:0.8;" x="46.965625" xlink:href="#me7b9f44f80" y="360.966019"/>
      </g>
     </g>
     <g id="text_10">
      <!-- 50 -->
      <g transform="translate(27.240625 364.765238)scale(0.1 -0.1)">
       <use xlink:href="#DejaVuSans-53"/>
       <use x="63.623047" xlink:href="#DejaVuSans-48"/>
      </g>
     </g>
    </g>
    <g id="ytick_3">
     <g id="line2d_19">
      <path clip-path="url(#pc7bd6d68a5)" d="M 46.965625 304.163511 
L 604.965625 304.163511 
" style="fill:none;stroke:#b0b0b0;stroke-linecap:square;stroke-width:0.8;"/>
     </g>
     <g id="line2d_20">
      <g>
       <use style="stroke:#000000;stroke-width:0.8;" x="46.965625" xlink:href="#me7b9f44f80" y="304.163511"/>
      </g>
     </g>
     <g id="text_11">
      <!-- 75 -->
      <g transform="translate(27.240625 307.96273)scale(0.1 -0.1)">
       <defs>
        <path d="M 8.203125 72.90625 
L 55.078125 72.90625 
L 55.078125 68.703125 
L 28.609375 0 
L 18.3125 0 
L 43.21875 64.59375 
L 8.203125 64.59375 
z
" id="DejaVuSans-55"/>
       </defs>
       <use xlink:href="#DejaVuSans-55"/>
       <use x="63.623047" xlink:href="#DejaVuSans-53"/>
      </g>
     </g>
    </g>
    <g id="ytick_4">
     <g id="line2d_21">
      <path clip-path="url(#pc7bd6d68a5)" d="M 46.965625 247.361003 
L 604.965625 247.361003 
" style="fill:none;stroke:#b0b0b0;stroke-linecap:square;stroke-width:0.8;"/>
     </g>
     <g id="line2d_22">
      <g>
       <use style="stroke:#000000;stroke-width:0.8;" x="46.965625" xlink:href="#me7b9f44f80" y="247.361003"/>
      </g>
     </g>
     <g id="text_12">
      <!-- 100 -->
      <g transform="translate(20.878125 251.160222)scale(0.1 -0.1)">
       <use xlink:href="#DejaVuSans-49"/>
       <use x="63.623047" xlink:href="#DejaVuSans-48"/>
       <use x="127.246094" xlink:href="#DejaVuSans-48"/>
      </g>
     </g>
    </g>
    <g id="ytick_5">
     <g id="line2d_23">
      <path clip-path="url(#pc7bd6d68a5)" d="M 46.965625 190.558495 
L 604.965625 190.558495 
" style="fill:none;stroke:#b0b0b0;stroke-linecap:square;stroke-width:0.8;"/>
     </g>
     <g id="line2d_24">
      <g>
       <use style="stroke:#000000;stroke-width:0.8;" x="46.965625" xlink:href="#me7b9f44f80" y="190.558495"/>
      </g>
     </g>
     <g id="text_13">
      <!-- 125 -->
      <g transform="translate(20.878125 194.357714)scale(0.1 -0.1)">
       <use xlink:href="#DejaVuSans-49"/>
       <use x="63.623047" xlink:href="#DejaVuSans-50"/>
       <use x="127.246094" xlink:href="#DejaVuSans-53"/>
      </g>
     </g>
    </g>
    <g id="ytick_6">
     <g id="line2d_25">
      <path clip-path="url(#pc7bd6d68a5)" d="M 46.965625 133.755987 
L 604.965625 133.755987 
" style="fill:none;stroke:#b0b0b0;stroke-linecap:square;stroke-width:0.8;"/>
     </g>
     <g id="line2d_26">
      <g>
       <use style="stroke:#000000;stroke-width:0.8;" x="46.965625" xlink:href="#me7b9f44f80" y="133.755987"/>
      </g>
     </g>
     <g id="text_14">
      <!-- 150 -->
      <g transform="translate(20.878125 137.555206)scale(0.1 -0.1)">
       <use xlink:href="#DejaVuSans-49"/>
       <use x="63.623047" xlink:href="#DejaVuSans-53"/>
       <use x="127.246094" xlink:href="#DejaVuSans-48"/>
      </g>
     </g>
    </g>
    <g id="ytick_7">
     <g id="line2d_27">
      <path clip-path="url(#pc7bd6d68a5)" d="M 46.965625 76.95348 
L 604.965625 76.95348 
" style="fill:none;stroke:#b0b0b0;stroke-linecap:square;stroke-width:0.8;"/>
     </g>
     <g id="line2d_28">
      <g>
       <use style="stroke:#000000;stroke-width:0.8;" x="46.965625" xlink:href="#me7b9f44f80" y="76.95348"/>
      </g>
     </g>
     <g id="text_15">
      <!-- 175 -->
      <g transform="translate(20.878125 80.752698)scale(0.1 -0.1)">
       <use xlink:href="#DejaVuSans-49"/>
       <use x="63.623047" xlink:href="#DejaVuSans-55"/>
       <use x="127.246094" xlink:href="#DejaVuSans-53"/>
      </g>
     </g>
    </g>
    <g id="ytick_8">
     <g id="line2d_29">
      <path clip-path="url(#pc7bd6d68a5)" d="M 46.965625 20.150972 
L 604.965625 20.150972 
" style="fill:none;stroke:#b0b0b0;stroke-linecap:square;stroke-width:0.8;"/>
     </g>
     <g id="line2d_30">
      <g>
       <use style="stroke:#000000;stroke-width:0.8;" x="46.965625" xlink:href="#me7b9f44f80" y="20.150972"/>
      </g>
     </g>
     <g id="text_16">
      <!-- 200 -->
      <g transform="translate(20.878125 23.950191)scale(0.1 -0.1)">
       <use xlink:href="#DejaVuSans-50"/>
       <use x="63.623047" xlink:href="#DejaVuSans-48"/>
       <use x="127.246094" xlink:href="#DejaVuSans-48"/>
      </g>
     </g>
    </g>
    <g id="text_17">
     <!-- Intensität [a.u.] -->
     <g transform="translate(14.798437 263.368906)rotate(-90)scale(0.1 -0.1)">
      <defs>
       <path d="M 9.8125 72.90625 
L 19.671875 72.90625 
L 19.671875 0 
L 9.8125 0 
z
" id="DejaVuSans-73"/>
       <path d="M 18.3125 70.21875 
L 18.3125 54.6875 
L 36.8125 54.6875 
L 36.8125 47.703125 
L 18.3125 47.703125 
L 18.3125 18.015625 
Q 18.3125 11.328125 20.140625 9.421875 
Q 21.96875 7.515625 27.59375 7.515625 
L 36.8125 7.515625 
L 36.8125 0 
L 27.59375 0 
Q 17.1875 0 13.234375 3.875 
Q 9.28125 7.765625 9.28125 18.015625 
L 9.28125 47.703125 
L 2.6875 47.703125 
L 2.6875 54.6875 
L 9.28125 54.6875 
L 9.28125 70.21875 
z
" id="DejaVuSans-116"/>
       <path d="M 44.28125 53.078125 
L 44.28125 44.578125 
Q 40.484375 46.53125 36.375 47.5 
Q 32.28125 48.484375 27.875 48.484375 
Q 21.1875 48.484375 17.84375 46.4375 
Q 14.5 44.390625 14.5 40.28125 
Q 14.5 37.15625 16.890625 35.375 
Q 19.28125 33.59375 26.515625 31.984375 
L 29.59375 31.296875 
Q 39.15625 29.25 43.1875 25.515625 
Q 47.21875 21.78125 47.21875 15.09375 
Q 47.21875 7.46875 41.1875 3.015625 
Q 35.15625 -1.421875 24.609375 -1.421875 
Q 20.21875 -1.421875 15.453125 -0.5625 
Q 10.6875 0.296875 5.421875 2 
L 5.421875 11.28125 
Q 10.40625 8.6875 15.234375 7.390625 
Q 20.0625 6.109375 24.8125 6.109375 
Q 31.15625 6.109375 34.5625 8.28125 
Q 37.984375 10.453125 37.984375 14.40625 
Q 37.984375 18.0625 35.515625 20.015625 
Q 33.0625 21.96875 24.703125 23.78125 
L 21.578125 24.515625 
Q 13.234375 26.265625 9.515625 29.90625 
Q 5.8125 33.546875 5.8125 39.890625 
Q 5.8125 47.609375 11.28125 51.796875 
Q 16.75 56 26.8125 56 
Q 31.78125 56 36.171875 55.265625 
Q 40.578125 54.546875 44.28125 53.078125 
z
" id="DejaVuSans-115"/>
       <path d="M 9.421875 54.6875 
L 18.40625 54.6875 
L 18.40625 0 
L 9.421875 0 
z
M 9.421875 75.984375 
L 18.40625 75.984375 
L 18.40625 64.59375 
L 9.421875 64.59375 
z
" id="DejaVuSans-105"/>
       <path d="M 34.28125 27.484375 
Q 23.390625 27.484375 19.1875 25 
Q 14.984375 22.515625 14.984375 16.5 
Q 14.984375 11.71875 18.140625 8.90625 
Q 21.296875 6.109375 26.703125 6.109375 
Q 34.1875 6.109375 38.703125 11.40625 
Q 43.21875 16.703125 43.21875 25.484375 
L 43.21875 27.484375 
z
M 52.203125 31.203125 
L 52.203125 0 
L 43.21875 0 
L 43.21875 8.296875 
Q 40.140625 3.328125 35.546875 0.953125 
Q 30.953125 -1.421875 24.3125 -1.421875 
Q 15.921875 -1.421875 10.953125 3.296875 
Q 6 8.015625 6 15.921875 
Q 6 25.140625 12.171875 29.828125 
Q 18.359375 34.515625 30.609375 34.515625 
L 43.21875 34.515625 
L 43.21875 35.40625 
Q 43.21875 41.609375 39.140625 45 
Q 35.0625 48.390625 27.6875 48.390625 
Q 23 48.390625 18.546875 47.265625 
Q 14.109375 46.140625 10.015625 43.890625 
L 10.015625 52.203125 
Q 14.9375 54.109375 19.578125 55.046875 
Q 24.21875 56 28.609375 56 
Q 40.484375 56 46.34375 49.84375 
Q 52.203125 43.703125 52.203125 31.203125 
z
" id="DejaVuSans-97"/>
       <path d="M 10.6875 12.40625 
L 21 12.40625 
L 21 0 
L 10.6875 0 
z
" id="DejaVuSans-46"/>
       <path d="M 8.5 21.578125 
L 8.5 54.6875 
L 17.484375 54.6875 
L 17.484375 21.921875 
Q 17.484375 14.15625 20.5 10.265625 
Q 23.53125 6.390625 29.59375 6.390625 
Q 36.859375 6.390625 41.078125 11.03125 
Q 45.3125 15.671875 45.3125 23.6875 
L 45.3125 54.6875 
L 54.296875 54.6875 
L 54.296875 0 
L 45.3125 0 
L 45.3125 8.40625 
Q 42.046875 3.421875 37.71875 1 
Q 33.40625 -1.421875 27.6875 -1.421875 
Q 18.265625 -1.421875 13.375 4.4375 
Q 8.5 10.296875 8.5 21.578125 
z
M 31.109375 56 
z
" id="DejaVuSans-117"/>
      </defs>
      <use xlink:href="#DejaVuSans-73"/>
      <use x="29.492188" xlink:href="#DejaVuSans-110"/>
      <use x="92.871094" xlink:href="#DejaVuSans-116"/>
      <use x="132.080078" xlink:href="#DejaVuSans-101"/>
      <use x="193.603516" xlink:href="#DejaVuSans-110"/>
      <use x="256.982422" xlink:href="#DejaVuSans-115"/>
      <use x="309.082031" xlink:href="#DejaVuSans-105"/>
      <use x="336.865234" xlink:href="#DejaVuSans-116"/>
      <use x="376.074219" xlink:href="#DejaVuSans-228"/>
      <use x="437.353516" xlink:href="#DejaVuSans-116"/>
      <use x="476.5625" xlink:href="#DejaVuSans-32"/>
      <use x="508.349609" xlink:href="#DejaVuSans-91"/>
      <use x="547.363281" xlink:href="#DejaVuSans-97"/>
      <use x="608.642578" xlink:href="#DejaVuSans-46"/>
      <use x="640.429688" xlink:href="#DejaVuSans-117"/>
      <use x="703.808594" xlink:href="#DejaVuSans-46"/>
      <use x="735.595703" xlink:href="#DejaVuSans-93"/>
     </g>
    </g>
   </g>
   <g id="line2d_31">
    <path clip-path="url(#pc7bd6d68a5)" d="M 72.329261 383.687022 
L 73.176127 376.870721 
L 74.869859 385.959122 
L 75.716725 383.687022 
L 76.563591 390.503323 
L 77.410457 388.231223 
L 78.257323 395.047524 
L 79.104189 392.775423 
L 79.951055 388.231223 
L 80.797921 392.775423 
L 81.644787 390.503323 
L 82.491653 385.959122 
L 83.338519 395.047524 
L 84.185385 395.047524 
L 85.032251 385.959122 
L 85.879117 390.503323 
L 86.725983 392.775423 
L 88.419715 383.687022 
L 89.266581 390.503323 
L 90.113447 381.414922 
L 90.960313 349.605517 
L 91.807179 390.503323 
L 92.654045 397.319624 
L 93.500911 383.687022 
L 94.347777 354.149718 
L 95.194643 397.319624 
L 96.041509 392.775423 
L 96.888375 383.687022 
L 97.735241 367.78232 
L 98.582107 401.863824 
L 99.428973 399.591724 
L 100.275839 385.959122 
L 101.122705 376.870721 
L 101.969571 390.503323 
L 102.816437 392.775423 
L 103.663303 383.687022 
L 104.510169 383.687022 
L 105.357035 397.319624 
L 106.203901 392.775423 
L 107.050767 385.959122 
L 107.897633 392.775423 
L 108.744499 385.959122 
L 109.591365 388.231223 
L 110.438231 395.047524 
L 111.285097 395.047524 
L 112.131963 388.231223 
L 112.978829 395.047524 
L 113.825695 383.687022 
L 114.672561 388.231223 
L 115.519427 397.319624 
L 116.366293 392.775423 
L 117.213159 383.687022 
L 118.060025 392.775423 
L 118.906891 388.231223 
L 119.753757 392.775423 
L 120.600623 381.414922 
L 121.447489 395.047524 
L 122.294355 392.775423 
L 123.141221 395.047524 
L 123.988087 385.959122 
L 125.681819 395.047524 
L 126.528685 383.687022 
L 127.375551 395.047524 
L 128.222417 395.047524 
L 129.069283 392.775423 
L 129.916149 388.231223 
L 130.763015 395.047524 
L 131.609881 390.503323 
L 132.456747 395.047524 
L 133.303613 392.775423 
L 134.150479 388.231223 
L 135.844211 392.775423 
L 136.691077 392.775423 
L 137.537942 397.319624 
L 138.384808 399.591724 
L 139.231674 392.775423 
L 140.07854 395.047524 
L 140.925406 381.414922 
L 141.772272 399.591724 
L 142.619138 392.775423 
L 143.466004 397.319624 
L 144.31287 383.687022 
L 145.159736 397.319624 
L 146.006602 390.503323 
L 146.853468 370.05442 
L 147.700334 404.135925 
L 148.5472 399.591724 
L 149.394066 367.78232 
L 150.240932 365.510219 
L 151.087798 395.047524 
L 151.934664 388.231223 
L 152.78153 367.78232 
L 153.628396 381.414922 
L 154.475262 372.32652 
L 155.322128 365.510219 
L 156.168994 374.598621 
L 157.01586 372.32652 
L 157.862726 310.979812 
L 158.709592 297.34721 
L 159.556458 254.177304 
L 160.403324 263.265705 
L 161.25019 249.633103 
L 162.097056 254.177304 
L 162.943922 222.3679 
L 163.790788 222.3679 
L 164.637654 270.082006 
L 165.48452 274.626207 
L 166.331386 285.986708 
L 167.178252 288.258809 
L 168.025118 331.428715 
L 168.871984 335.972915 
L 169.71885 345.061317 
L 170.565716 347.333417 
L 171.412582 360.966019 
L 172.259448 363.238119 
L 173.106314 358.693918 
L 173.95318 363.238119 
L 174.800046 374.598621 
L 175.646912 374.598621 
L 176.493778 365.510219 
L 177.340644 367.78232 
L 178.18751 381.414922 
L 179.034376 374.598621 
L 179.881242 360.966019 
L 180.728108 376.870721 
L 181.574974 351.877618 
L 182.42184 349.605517 
L 183.268706 335.972915 
L 184.115572 329.156614 
L 184.962438 267.809906 
L 185.809304 263.265705 
L 186.65617 270.082006 
L 187.503036 270.082006 
L 188.349902 281.442508 
L 189.196768 279.170408 
L 190.043634 270.082006 
L 190.8905 274.626207 
L 191.737366 254.177304 
L 192.584232 247.361003 
L 193.431098 190.558495 
L 194.277964 183.742194 
L 195.12483 145.116489 
L 195.971696 147.388589 
L 196.818562 186.014295 
L 197.665428 188.286395 
L 198.512294 206.463197 
L 199.35916 204.191097 
L 200.206026 249.633103 
L 201.052892 256.449404 
L 201.899758 285.986708 
L 202.746624 256.449404 
L 203.59349 301.891411 
L 204.440356 301.891411 
L 205.287222 329.156614 
L 206.134088 320.068213 
L 206.980954 349.605517 
L 207.82782 349.605517 
L 208.674686 333.700815 
L 209.521552 345.061317 
L 210.368418 358.693918 
L 211.215284 354.149718 
L 212.06215 363.238119 
L 212.909015 360.966019 
L 213.755881 354.149718 
L 214.602747 356.421818 
L 215.449613 351.877618 
L 216.296479 354.149718 
L 217.143345 335.972915 
L 217.990211 333.700815 
L 218.837077 320.068213 
L 219.683943 320.068213 
L 220.530809 236.000502 
L 221.377675 226.9121 
L 222.224541 172.381693 
L 223.071407 167.837492 
L 223.918273 183.742194 
L 224.765139 176.925893 
L 225.612005 154.20489 
L 226.458871 165.565392 
L 227.305737 197.374796 
L 228.152603 204.191097 
L 228.999469 254.177304 
L 229.846335 258.721505 
L 230.693201 285.986708 
L 231.540067 285.986708 
L 232.386933 310.979812 
L 233.233799 308.707712 
L 234.080665 322.340313 
L 234.927531 324.612414 
L 235.774397 333.700815 
L 236.621263 333.700815 
L 237.468129 358.693918 
L 238.314995 360.966019 
L 239.161861 356.421818 
L 240.008727 356.421818 
L 240.855593 367.78232 
L 241.702459 360.966019 
L 242.549325 370.05442 
L 243.396191 370.05442 
L 244.243057 376.870721 
L 245.089923 379.142821 
L 245.936789 383.687022 
L 246.783655 385.959122 
L 247.630521 379.142821 
L 248.477387 383.687022 
L 249.324253 376.870721 
L 251.017985 390.503323 
L 251.864851 392.775423 
L 252.711717 385.959122 
L 253.558583 392.775423 
L 254.405449 381.414922 
L 255.252315 358.693918 
L 256.099181 406.408025 
L 256.946047 401.863824 
L 257.792913 383.687022 
L 258.639779 349.605517 
L 259.486645 401.863824 
L 260.333511 392.775423 
L 261.180377 354.149718 
L 262.027243 351.877618 
L 262.874109 392.775423 
L 263.720975 388.231223 
L 264.567841 358.693918 
L 265.414707 383.687022 
L 266.261573 390.503323 
L 267.108439 392.775423 
L 267.955305 365.510219 
L 268.802171 395.047524 
L 269.649037 385.959122 
L 270.495903 383.687022 
L 271.342769 392.775423 
L 272.189635 395.047524 
L 273.883367 385.959122 
L 274.730233 392.775423 
L 275.577099 395.047524 
L 276.423965 390.503323 
L 277.270831 392.775423 
L 278.117697 399.591724 
L 278.964563 392.775423 
L 279.811429 401.863824 
L 280.658295 399.591724 
L 281.505161 395.047524 
L 282.352027 395.047524 
L 283.198893 392.775423 
L 284.045759 395.047524 
L 284.892625 399.591724 
L 285.739491 399.591724 
L 286.586357 395.047524 
L 288.280088 399.591724 
L 289.126954 399.591724 
L 289.97382 388.231223 
L 290.820686 399.591724 
L 291.667552 397.319624 
L 292.514418 392.775423 
L 293.361284 401.863824 
L 294.20815 399.591724 
L 295.055016 395.047524 
L 295.901882 392.775423 
L 296.748748 399.591724 
L 297.595614 399.591724 
L 298.44248 392.775423 
L 299.289346 392.775423 
L 300.136212 397.319624 
L 300.983078 397.319624 
L 301.829944 388.231223 
L 302.67681 392.775423 
L 303.523676 399.591724 
L 304.370542 399.591724 
L 305.217408 392.775423 
L 306.064274 395.047524 
L 306.91114 392.775423 
L 307.758006 392.775423 
L 308.604872 383.687022 
L 309.451738 379.142821 
L 310.298604 390.503323 
L 311.14547 392.775423 
L 311.992336 388.231223 
L 312.839202 376.870721 
L 313.686068 392.775423 
L 314.532934 392.775423 
L 315.3798 385.959122 
L 316.226666 392.775423 
L 317.073532 388.231223 
L 317.920398 392.775423 
L 318.767264 383.687022 
L 319.61413 392.775423 
L 320.460996 397.319624 
L 321.307862 390.503323 
L 322.154728 397.319624 
L 323.001594 392.775423 
L 323.84846 399.591724 
L 324.695326 395.047524 
L 325.542192 399.591724 
L 326.389058 392.775423 
L 327.235924 397.319624 
L 328.08279 397.319624 
L 328.929656 390.503323 
L 329.776522 397.319624 
L 330.623388 392.775423 
L 331.470254 395.047524 
L 332.31712 392.775423 
L 333.163986 392.775423 
L 334.010852 388.231223 
L 334.857718 395.047524 
L 335.704584 388.231223 
L 336.55145 383.687022 
L 337.398316 395.047524 
L 338.245182 395.047524 
L 339.092048 388.231223 
L 339.938914 388.231223 
L 340.78578 392.775423 
L 341.632646 383.687022 
L 342.479512 392.775423 
L 344.173244 379.142821 
L 345.02011 381.414922 
L 345.866976 376.870721 
L 346.713842 376.870721 
L 347.560708 383.687022 
L 348.407574 383.687022 
L 349.25444 379.142821 
L 350.101306 381.414922 
L 350.948172 392.775423 
L 351.795038 383.687022 
L 352.641904 390.503323 
L 353.48877 388.231223 
L 354.335636 392.775423 
L 355.182502 392.775423 
L 356.029368 390.503323 
L 356.876234 392.775423 
L 357.7231 399.591724 
L 358.569966 397.319624 
L 359.416832 392.775423 
L 360.263698 395.047524 
L 361.110564 390.503323 
L 361.95743 399.591724 
L 362.804296 392.775423 
L 363.651162 390.503323 
L 365.344893 399.591724 
L 366.191759 392.775423 
L 367.038625 388.231223 
L 367.885491 397.319624 
L 368.732357 392.775423 
L 369.579223 379.142821 
L 370.426089 379.142821 
L 371.272955 385.959122 
L 372.119821 390.503323 
L 372.966687 383.687022 
L 373.813553 388.231223 
L 374.660419 383.687022 
L 375.507285 390.503323 
L 376.354151 395.047524 
L 377.201017 390.503323 
L 378.047883 399.591724 
L 378.894749 392.775423 
L 379.741615 390.503323 
L 380.588481 392.775423 
L 381.435347 399.591724 
L 382.282213 392.775423 
L 383.129079 397.319624 
L 383.975945 399.591724 
L 384.822811 392.775423 
L 385.669677 397.319624 
L 386.516543 392.775423 
L 387.363409 392.775423 
L 388.210275 399.591724 
L 389.057141 385.959122 
L 389.904007 397.319624 
L 390.750873 399.591724 
L 391.597739 392.775423 
L 392.444605 392.775423 
L 393.291471 397.319624 
L 394.138337 399.591724 
L 395.832069 390.503323 
L 396.678935 404.135925 
L 398.372667 390.503323 
L 399.219533 399.591724 
L 400.066399 392.775423 
L 400.913265 397.319624 
L 402.606997 392.775423 
L 403.453863 399.591724 
L 404.300729 401.863824 
L 405.147595 392.775423 
L 405.994461 399.591724 
L 406.841327 395.047524 
L 407.688193 392.775423 
L 408.535059 399.591724 
L 409.381925 399.591724 
L 410.228791 395.047524 
L 411.075657 399.591724 
L 411.922523 392.775423 
L 412.769389 395.047524 
L 413.616255 399.591724 
L 414.463121 399.591724 
L 415.309987 395.047524 
L 416.156853 399.591724 
L 417.003719 395.047524 
L 417.850585 395.047524 
L 418.697451 399.591724 
L 419.544317 392.775423 
L 420.391183 397.319624 
L 422.084915 392.775423 
L 422.931781 392.775423 
L 423.778647 399.591724 
L 424.625513 397.319624 
L 425.472379 390.503323 
L 426.319245 395.047524 
L 427.166111 388.231223 
L 428.012977 388.231223 
L 428.859843 381.414922 
L 429.706709 383.687022 
L 430.553575 379.142821 
L 431.400441 390.503323 
L 432.247307 381.414922 
L 433.094173 383.687022 
L 433.941039 374.598621 
L 434.787905 370.05442 
L 435.634771 338.245016 
L 436.481637 331.428715 
L 437.328503 279.170408 
L 438.175369 285.986708 
L 439.022235 265.537806 
L 439.8691 265.537806 
L 440.715966 281.442508 
L 441.562832 279.170408 
L 442.409698 263.265705 
L 443.256564 270.082006 
L 444.10343 317.796113 
L 444.950296 324.612414 
L 445.797162 342.789216 
L 446.644028 342.789216 
L 447.490894 360.966019 
L 448.33776 360.966019 
L 449.184626 367.78232 
L 450.031492 367.78232 
L 450.878358 379.142821 
L 451.725224 374.598621 
L 452.57209 383.687022 
L 453.418956 383.687022 
L 454.265822 376.870721 
L 455.112688 376.870721 
L 455.959554 370.05442 
L 456.80642 376.870721 
L 457.653286 354.149718 
L 458.500152 347.333417 
L 459.347018 308.707712 
L 460.193884 301.891411 
L 461.04075 270.082006 
L 461.887616 263.265705 
L 462.734482 285.986708 
L 463.581348 288.258809 
L 464.428214 279.170408 
L 465.27508 279.170408 
L 466.121946 254.177304 
L 466.968812 251.905204 
L 467.815678 197.374796 
L 468.662544 195.102696 
L 469.50941 165.565392 
L 470.356276 165.565392 
L 471.203142 149.66069 
L 472.050008 170.109592 
L 472.896874 231.456301 
L 473.74374 236.000502 
L 474.590606 274.626207 
L 475.437472 272.354107 
L 476.284338 315.524013 
L 477.131204 320.068213 
L 477.97807 335.972915 
L 478.824936 333.700815 
L 479.671802 356.421818 
L 480.518668 354.149718 
L 481.365534 360.966019 
L 482.2124 354.149718 
L 483.059266 363.238119 
L 483.906132 367.78232 
L 484.752998 358.693918 
L 485.599864 356.421818 
L 486.44673 345.061317 
L 487.293596 338.245016 
L 488.140462 283.714608 
L 488.987328 274.626207 
L 489.834194 192.830596 
L 490.68106 186.014295 
L 491.527926 156.476991 
L 492.374792 154.20489 
L 493.221658 174.653793 
L 494.068524 181.470094 
L 494.91539 213.279498 
L 495.762256 222.3679 
L 496.609122 254.177304 
L 497.455988 258.721505 
L 498.302854 304.163511 
L 499.14972 306.435611 
L 499.996586 313.251912 
L 500.843452 315.524013 
L 501.690318 335.972915 
L 502.537184 342.789216 
L 503.38405 354.149718 
L 504.230916 354.149718 
L 505.077782 363.238119 
L 505.924648 360.966019 
L 506.771514 381.414922 
L 507.61838 385.959122 
L 508.465246 367.78232 
L 509.312112 372.32652 
L 510.158978 388.231223 
L 511.005844 390.503323 
L 512.699576 385.959122 
L 513.546442 395.047524 
L 514.393308 388.231223 
L 515.240173 397.319624 
L 516.933905 392.775423 
L 517.780771 392.775423 
L 518.627637 388.231223 
L 519.474503 395.047524 
L 520.321369 388.231223 
L 521.168235 385.959122 
L 522.015101 392.775423 
L 522.861967 392.775423 
L 523.708833 379.142821 
L 524.555699 388.231223 
L 525.402565 381.414922 
L 526.249431 383.687022 
L 527.096297 395.047524 
L 527.943163 385.959122 
L 528.790029 397.319624 
L 529.636895 399.591724 
L 530.483761 392.775423 
L 531.330627 399.591724 
L 532.177493 395.047524 
L 533.024359 395.047524 
L 533.871225 399.591724 
L 534.718091 399.591724 
L 535.564957 395.047524 
L 536.411823 392.775423 
L 537.258689 399.591724 
L 538.105555 399.591724 
L 538.952421 392.775423 
L 539.799287 395.047524 
L 540.646153 399.591724 
L 541.493019 399.591724 
L 542.339885 395.047524 
L 544.033617 399.591724 
L 544.880483 399.591724 
L 545.727349 392.775423 
L 546.574215 395.047524 
L 547.421081 399.591724 
L 548.267947 399.591724 
L 549.114813 392.775423 
L 549.961679 399.591724 
L 550.808545 392.775423 
L 551.655411 399.591724 
L 552.502277 390.503323 
L 553.349143 399.591724 
L 554.196009 395.047524 
L 555.042875 401.863824 
L 555.889741 392.775423 
L 556.736607 392.775423 
L 557.583473 399.591724 
L 558.430339 399.591724 
L 559.277205 392.775423 
L 560.124071 397.319624 
L 560.970937 390.503323 
L 561.817803 392.775423 
L 562.664669 385.959122 
L 563.511535 385.959122 
L 564.358401 392.775423 
L 565.205267 388.231223 
L 566.052133 399.591724 
L 566.898999 390.503323 
L 567.745865 397.319624 
L 568.592731 390.503323 
L 569.439597 395.047524 
L 570.286463 395.047524 
L 571.133329 399.591724 
L 571.980195 397.319624 
L 572.827061 390.503323 
L 573.673927 392.775423 
L 574.520793 399.591724 
L 575.367659 399.591724 
L 576.214525 390.503323 
L 577.061391 392.775423 
L 577.908257 399.591724 
L 578.755123 401.863824 
L 579.601989 397.319624 
L 579.601989 397.319624 
" style="fill:none;stroke:#1f77b4;stroke-linecap:square;stroke-width:1.5;"/>
   </g>
   <g id="line2d_32">
    <path clip-path="url(#pc7bd6d68a5)" d="M 72.329261 399.591724 
L 73.176127 408.680125 
L 74.022993 399.591724 
L 74.869859 404.135925 
L 75.716725 399.591724 
L 76.563591 404.135925 
L 77.410457 397.319624 
L 78.257323 401.863824 
L 79.104189 399.591724 
L 79.951055 404.135925 
L 81.644787 395.047524 
L 83.338519 399.591724 
L 84.185385 395.047524 
L 85.032251 404.135925 
L 85.879117 395.047524 
L 86.725983 406.408025 
L 87.572849 399.591724 
L 88.419715 408.680125 
L 89.266581 406.408025 
L 90.113447 397.319624 
L 90.960313 406.408025 
L 91.807179 399.591724 
L 92.654045 406.408025 
L 93.500911 399.591724 
L 94.347777 406.408025 
L 95.194643 399.591724 
L 96.041509 399.591724 
L 97.735241 408.680125 
L 98.582107 401.863824 
L 99.428973 404.135925 
L 100.275839 408.680125 
L 101.122705 401.863824 
L 101.969571 410.952226 
L 102.816437 406.408025 
L 103.663303 399.591724 
L 104.510169 399.591724 
L 105.357035 408.680125 
L 106.203901 404.135925 
L 107.050767 408.680125 
L 107.897633 408.680125 
L 108.744499 392.775423 
L 109.591365 395.047524 
L 110.438231 408.680125 
L 111.285097 399.591724 
L 112.131963 404.135925 
L 112.978829 406.408025 
L 113.825695 399.591724 
L 114.672561 395.047524 
L 115.519427 404.135925 
L 116.366293 406.408025 
L 117.213159 395.047524 
L 118.060025 392.775423 
L 118.906891 410.952226 
L 119.753757 404.135925 
L 120.600623 401.863824 
L 121.447489 401.863824 
L 122.294355 408.680125 
L 123.141221 399.591724 
L 123.988087 408.680125 
L 124.834953 406.408025 
L 125.681819 410.952226 
L 126.528685 401.863824 
L 127.375551 408.680125 
L 128.222417 408.680125 
L 129.069283 404.135925 
L 129.916149 406.408025 
L 130.763015 392.775423 
L 131.609881 399.591724 
L 132.456747 379.142821 
L 133.303613 372.32652 
L 134.150479 354.149718 
L 134.997345 354.149718 
L 135.844211 342.789216 
L 136.691077 347.333417 
L 137.537942 360.966019 
L 138.384808 360.966019 
L 139.231674 370.05442 
L 140.07854 372.32652 
L 140.925406 383.687022 
L 141.772272 381.414922 
L 142.619138 392.775423 
L 143.466004 390.503323 
L 144.31287 395.047524 
L 145.159736 392.775423 
L 146.006602 399.591724 
L 146.853468 395.047524 
L 147.700334 401.863824 
L 148.5472 399.591724 
L 149.394066 388.231223 
L 150.240932 395.047524 
L 151.087798 388.231223 
L 151.934664 392.775423 
L 152.78153 381.414922 
L 153.628396 381.414922 
L 154.475262 360.966019 
L 155.322128 360.966019 
L 156.168994 304.163511 
L 157.01586 299.61931 
L 157.862726 249.633103 
L 158.709592 247.361003 
L 159.556458 206.463197 
L 160.403324 201.918997 
L 161.25019 229.184201 
L 162.097056 231.456301 
L 162.943922 254.177304 
L 163.790788 256.449404 
L 164.637654 292.803009 
L 165.48452 295.07511 
L 166.331386 308.707712 
L 167.178252 310.979812 
L 168.025118 340.517116 
L 168.871984 340.517116 
L 169.71885 351.877618 
L 170.565716 351.877618 
L 171.412582 363.238119 
L 172.259448 363.238119 
L 173.106314 370.05442 
L 173.95318 370.05442 
L 174.800046 365.510219 
L 175.646912 365.510219 
L 176.493778 349.605517 
L 177.340644 345.061317 
L 178.18751 285.986708 
L 179.034376 272.354107 
L 179.881242 167.837492 
L 180.728108 167.837492 
L 181.574974 140.572288 
L 182.42184 124.667586 
L 183.268706 145.116489 
L 184.115572 145.116489 
L 184.962438 165.565392 
L 185.809304 172.381693 
L 186.65617 236.000502 
L 187.503036 242.816803 
L 188.349902 285.986708 
L 189.196768 292.803009 
L 190.043634 304.163511 
L 190.8905 304.163511 
L 191.737366 322.340313 
L 192.584232 324.612414 
L 193.431098 349.605517 
L 194.277964 349.605517 
L 195.12483 360.966019 
L 195.971696 358.693918 
L 197.665428 367.78232 
L 198.512294 363.238119 
L 201.052892 376.870721 
L 201.899758 363.238119 
L 202.746624 358.693918 
L 203.59349 335.972915 
L 204.440356 326.884514 
L 205.287222 270.082006 
L 206.134088 267.809906 
L 206.980954 247.361003 
L 207.82782 245.088903 
L 208.674686 222.3679 
L 209.521552 236.000502 
L 210.368418 245.088903 
L 211.215284 247.361003 
L 212.06215 310.979812 
L 212.909015 320.068213 
L 213.755881 342.789216 
L 214.602747 338.245016 
L 215.449613 356.421818 
L 216.296479 354.149718 
L 217.143345 374.598621 
L 217.990211 374.598621 
L 218.837077 385.959122 
L 219.683943 392.775423 
L 220.530809 388.231223 
L 222.224541 397.319624 
L 223.071407 399.591724 
L 223.918273 395.047524 
L 224.765139 395.047524 
L 225.612005 401.863824 
L 226.458871 404.135925 
L 227.305737 397.319624 
L 228.152603 406.408025 
L 228.999469 397.319624 
L 229.846335 397.319624 
L 230.693201 390.503323 
L 231.540067 399.591724 
L 232.386933 392.775423 
L 233.233799 395.047524 
L 234.080665 401.863824 
L 234.927531 399.591724 
L 235.774397 404.135925 
L 236.621263 399.591724 
L 237.468129 406.408025 
L 238.314995 401.863824 
L 239.161861 408.680125 
L 240.008727 410.952226 
L 241.702459 397.319624 
L 242.549325 410.952226 
L 243.396191 410.952226 
L 244.243057 401.863824 
L 245.089923 406.408025 
L 245.936789 408.680125 
L 246.783655 408.680125 
L 247.630521 404.135925 
L 248.477387 408.680125 
L 249.324253 404.135925 
L 250.171119 408.680125 
L 251.017985 404.135925 
L 251.864851 408.680125 
L 252.711717 410.952226 
L 253.558583 406.408025 
L 254.405449 413.224326 
L 256.099181 404.135925 
L 256.946047 404.135925 
L 257.792913 408.680125 
L 258.639779 408.680125 
L 259.486645 401.863824 
L 260.333511 399.591724 
L 261.180377 408.680125 
L 262.027243 408.680125 
L 262.874109 401.863824 
L 263.720975 408.680125 
L 264.567841 401.863824 
L 265.414707 410.952226 
L 266.261573 406.408025 
L 267.108439 413.224326 
L 267.955305 406.408025 
L 268.802171 408.680125 
L 269.649037 413.224326 
L 270.495903 415.496426 
L 271.342769 392.775423 
L 272.189635 399.591724 
L 273.036501 420.040627 
L 273.883367 415.496426 
L 274.730233 408.680125 
L 275.577099 410.952226 
L 276.423965 406.408025 
L 277.270831 408.680125 
L 278.117697 406.408025 
L 278.964563 413.224326 
L 279.811429 406.408025 
L 280.658295 410.952226 
L 281.505161 406.408025 
L 282.352027 413.224326 
L 283.198893 406.408025 
L 284.045759 408.680125 
L 284.892625 401.863824 
L 285.739491 406.408025 
L 286.586357 401.863824 
L 287.433223 399.591724 
L 288.280088 406.408025 
L 289.126954 408.680125 
L 289.97382 399.591724 
L 290.820686 406.408025 
L 291.667552 399.591724 
L 292.514418 401.863824 
L 293.361284 408.680125 
L 294.20815 413.224326 
L 295.901882 399.591724 
L 296.748748 410.952226 
L 297.595614 410.952226 
L 298.44248 404.135925 
L 299.289346 408.680125 
L 300.136212 404.135925 
L 300.983078 406.408025 
L 301.829944 410.952226 
L 302.67681 413.224326 
L 303.523676 406.408025 
L 304.370542 408.680125 
L 305.217408 413.224326 
L 306.064274 413.224326 
L 306.91114 406.408025 
L 307.758006 413.224326 
L 308.604872 406.408025 
L 309.451738 410.952226 
L 310.298604 406.408025 
L 311.14547 404.135925 
L 311.992336 410.952226 
L 312.839202 410.952226 
L 313.686068 406.408025 
L 314.532934 406.408025 
L 315.3798 399.591724 
L 316.226666 406.408025 
L 317.073532 399.591724 
L 317.920398 399.591724 
L 318.767264 395.047524 
L 319.61413 397.319624 
L 320.460996 406.408025 
L 321.307862 399.591724 
L 322.154728 406.408025 
L 323.001594 399.591724 
L 323.84846 406.408025 
L 324.695326 404.135925 
L 325.542192 408.680125 
L 326.389058 399.591724 
L 327.235924 413.224326 
L 328.08279 413.224326 
L 328.929656 401.863824 
L 329.776522 404.135925 
L 330.623388 410.952226 
L 331.470254 408.680125 
L 332.31712 401.863824 
L 333.163986 413.224326 
L 334.010852 406.408025 
L 334.857718 408.680125 
L 335.704584 404.135925 
L 336.55145 413.224326 
L 337.398316 406.408025 
L 338.245182 404.135925 
L 339.092048 410.952226 
L 340.78578 406.408025 
L 341.632646 406.408025 
L 342.479512 410.952226 
L 343.326378 408.680125 
L 344.173244 399.591724 
L 345.02011 406.408025 
L 345.866976 401.863824 
L 346.713842 404.135925 
L 347.560708 408.680125 
L 348.407574 401.863824 
L 349.25444 408.680125 
L 350.101306 408.680125 
L 350.948172 388.231223 
L 351.795038 404.135925 
L 353.48877 413.224326 
L 354.335636 399.591724 
L 355.182502 408.680125 
L 356.029368 415.496426 
L 356.876234 410.952226 
L 357.7231 399.591724 
L 358.569966 408.680125 
L 359.416832 404.135925 
L 360.263698 406.408025 
L 361.110564 410.952226 
L 361.95743 410.952226 
L 362.804296 401.863824 
L 363.651162 406.408025 
L 364.498027 413.224326 
L 365.344893 406.408025 
L 366.191759 413.224326 
L 367.038625 404.135925 
L 367.885491 413.224326 
L 368.732357 404.135925 
L 369.579223 408.680125 
L 370.426089 404.135925 
L 371.272955 413.224326 
L 372.119821 406.408025 
L 372.966687 413.224326 
L 373.813553 408.680125 
L 374.660419 413.224326 
L 375.507285 406.408025 
L 376.354151 410.952226 
L 377.201017 413.224326 
L 378.047883 408.680125 
L 378.894749 406.408025 
L 379.741615 410.952226 
L 380.588481 408.680125 
L 381.435347 415.496426 
L 382.282213 390.503323 
L 383.129079 417.768527 
L 383.975945 413.224326 
L 384.822811 397.319624 
L 385.669677 404.135925 
L 386.516543 415.496426 
L 387.363409 410.952226 
L 388.210275 397.319624 
L 389.057141 408.680125 
L 389.904007 404.135925 
L 390.750873 392.775423 
L 391.597739 413.224326 
L 392.444605 413.224326 
L 393.291471 406.408025 
L 394.138337 404.135925 
L 394.985203 413.224326 
L 395.832069 408.680125 
L 396.678935 410.952226 
L 397.525801 408.680125 
L 398.372667 410.952226 
L 399.219533 406.408025 
L 400.066399 410.952226 
L 400.913265 413.224326 
L 401.760131 408.680125 
L 402.606997 415.496426 
L 403.453863 408.680125 
L 404.300729 413.224326 
L 405.147595 397.319624 
L 405.994461 415.496426 
L 406.841327 404.135925 
L 407.688193 408.680125 
L 408.535059 390.503323 
L 409.381925 399.591724 
L 410.228791 383.687022 
L 411.075657 381.414922 
L 411.922523 367.78232 
L 412.769389 376.870721 
L 413.616255 367.78232 
L 414.463121 374.598621 
L 415.309987 379.142821 
L 416.156853 379.142821 
L 417.003719 385.959122 
L 417.850585 383.687022 
L 418.697451 392.775423 
L 419.544317 390.503323 
L 420.391183 399.591724 
L 421.238049 392.775423 
L 422.084915 399.591724 
L 422.931781 399.591724 
L 423.778647 390.503323 
L 424.625513 392.775423 
L 425.472379 399.591724 
L 426.319245 399.591724 
L 427.166111 392.775423 
L 428.012977 397.319624 
L 428.859843 385.959122 
L 429.706709 383.687022 
L 430.553575 363.238119 
L 431.400441 363.238119 
L 432.247307 326.884514 
L 433.094173 322.340313 
L 433.941039 279.170408 
L 434.787905 270.082006 
L 435.634771 224.64 
L 436.481637 260.993605 
L 438.175369 247.361003 
L 439.022235 267.809906 
L 439.8691 272.354107 
L 440.715966 263.265705 
L 441.562832 258.721505 
L 442.409698 301.891411 
L 443.256564 306.435611 
L 444.10343 335.972915 
L 444.950296 335.972915 
L 445.797162 358.693918 
L 446.644028 356.421818 
L 447.490894 363.238119 
L 448.33776 358.693918 
L 449.184626 374.598621 
L 450.031492 370.05442 
L 450.878358 379.142821 
L 451.725224 367.78232 
L 452.57209 376.870721 
L 453.418956 370.05442 
L 454.265822 351.877618 
L 455.112688 347.333417 
L 455.959554 320.068213 
L 456.80642 315.524013 
L 457.653286 267.809906 
L 458.500152 254.177304 
L 459.347018 72.409279 
L 460.193884 63.320878 
L 461.04075 26.967273 
L 461.887616 26.967273 
L 462.734482 76.95348 
L 463.581348 74.681379 
L 464.428214 167.837492 
L 465.27508 176.925893 
L 466.121946 247.361003 
L 466.968812 260.993605 
L 467.815678 324.612414 
L 468.662544 322.340313 
L 469.50941 333.700815 
L 470.356276 329.156614 
L 471.203142 356.421818 
L 472.050008 351.877618 
L 472.896874 367.78232 
L 473.74374 367.78232 
L 474.590606 376.870721 
L 475.437472 376.870721 
L 476.284338 372.32652 
L 477.97807 381.414922 
L 478.824936 372.32652 
L 479.671802 354.149718 
L 480.518668 356.421818 
L 481.365534 333.700815 
L 482.2124 329.156614 
L 483.059266 304.163511 
L 483.906132 304.163511 
L 484.752998 267.809906 
L 485.599864 267.809906 
L 486.44673 292.803009 
L 487.293596 288.258809 
L 488.140462 322.340313 
L 488.987328 299.61931 
L 489.834194 358.693918 
L 490.68106 360.966019 
L 491.527926 345.061317 
L 492.374792 351.877618 
L 493.221658 360.966019 
L 494.068524 354.149718 
L 494.91539 367.78232 
L 495.762256 367.78232 
L 496.609122 383.687022 
L 497.455988 383.687022 
L 498.302854 395.047524 
L 499.14972 399.591724 
L 499.996586 392.775423 
L 500.843452 395.047524 
L 501.690318 399.591724 
L 502.537184 401.863824 
L 503.38405 399.591724 
L 504.230916 395.047524 
L 505.077782 401.863824 
L 505.924648 392.775423 
L 506.771514 401.863824 
L 507.61838 399.591724 
L 508.465246 406.408025 
L 509.312112 404.135925 
L 510.158978 408.680125 
L 511.005844 408.680125 
L 511.85271 392.775423 
L 512.699576 388.231223 
L 513.546442 413.224326 
L 514.393308 413.224326 
L 515.240173 404.135925 
L 516.087039 404.135925 
L 516.933905 415.496426 
L 517.780771 410.952226 
L 518.627637 399.591724 
L 519.474503 417.768527 
L 520.321369 408.680125 
L 521.168235 406.408025 
L 522.015101 410.952226 
L 522.861967 406.408025 
L 523.708833 415.496426 
L 524.555699 413.224326 
L 525.402565 408.680125 
L 526.249431 415.496426 
L 527.096297 408.680125 
L 527.943163 408.680125 
L 528.790029 415.496426 
L 529.636895 413.224326 
L 530.483761 406.408025 
L 531.330627 406.408025 
L 532.177493 417.768527 
L 533.024359 415.496426 
L 533.871225 408.680125 
L 534.718091 415.496426 
L 535.564957 408.680125 
L 536.411823 406.408025 
L 537.258689 413.224326 
L 538.105555 413.224326 
L 538.952421 408.680125 
L 539.799287 408.680125 
L 541.493019 422.312727 
L 542.339885 385.959122 
L 543.186751 422.312727 
L 544.033617 410.952226 
L 544.880483 404.135925 
L 545.727349 415.496426 
L 546.574215 415.496426 
L 547.421081 408.680125 
L 548.267947 410.952226 
L 549.114813 417.768527 
L 549.961679 415.496426 
L 550.808545 408.680125 
L 551.655411 410.952226 
L 552.502277 415.496426 
L 553.349143 410.952226 
L 554.196009 417.768527 
L 555.042875 415.496426 
L 555.889741 408.680125 
L 556.736607 410.952226 
L 557.583473 417.768527 
L 558.430339 415.496426 
L 559.277205 408.680125 
L 560.124071 410.952226 
L 560.970937 406.408025 
L 561.817803 408.680125 
L 562.664669 413.224326 
L 563.511535 408.680125 
L 564.358401 413.224326 
L 565.205267 397.319624 
L 566.052133 413.224326 
L 566.898999 417.768527 
L 567.745865 410.952226 
L 568.592731 406.408025 
L 569.439597 417.768527 
L 570.286463 417.768527 
L 571.133329 408.680125 
L 571.980195 408.680125 
L 572.827061 415.496426 
L 573.673927 408.680125 
L 575.367659 417.768527 
L 576.214525 408.680125 
L 577.061391 408.680125 
L 577.908257 415.496426 
L 578.755123 408.680125 
L 579.601989 415.496426 
L 579.601989 415.496426 
" style="fill:none;stroke:#ff7f0e;stroke-linecap:square;stroke-width:1.5;"/>
   </g>
   <g id="patch_3">
    <path d="M 46.965625 442.08 
L 46.965625 7.2 
" style="fill:none;stroke:#000000;stroke-linecap:square;stroke-linejoin:miter;stroke-width:0.8;"/>
   </g>
   <g id="patch_4">
    <path d="M 604.965625 442.08 
L 604.965625 7.2 
" style="fill:none;stroke:#000000;stroke-linecap:square;stroke-linejoin:miter;stroke-width:0.8;"/>
   </g>
   <g id="patch_5">
    <path d="M 46.965625 442.08 
L 604.965625 442.08 
" style="fill:none;stroke:#000000;stroke-linecap:square;stroke-linejoin:miter;stroke-width:0.8;"/>
   </g>
   <g id="patch_6">
    <path d="M 46.965625 7.2 
L 604.965625 7.2 
" style="fill:none;stroke:#000000;stroke-linecap:square;stroke-linejoin:miter;stroke-width:0.8;"/>
   </g>
   <g id="legend_1">
    <g id="patch_7">
     <path d="M 524.21875 44.55625 
L 597.965625 44.55625 
Q 599.965625 44.55625 599.965625 42.55625 
L 599.965625 14.2 
Q 599.965625 12.2 597.965625 12.2 
L 524.21875 12.2 
Q 522.21875 12.2 522.21875 14.2 
L 522.21875 42.55625 
Q 522.21875 44.55625 524.21875 44.55625 
z
" style="fill:#ffffff;opacity:0.8;stroke:#cccccc;stroke-linejoin:miter;"/>
    </g>
    <g id="line2d_33">
     <path d="M 526.21875 20.298437 
L 546.21875 20.298437 
" style="fill:none;stroke:#1f77b4;stroke-linecap:square;stroke-width:1.5;"/>
    </g>
    <g id="line2d_34"/>
    <g id="text_18">
     <!-- 600 mm -->
     <g transform="translate(554.21875 23.798437)scale(0.1 -0.1)">
      <use xlink:href="#DejaVuSans-54"/>
      <use x="63.623047" xlink:href="#DejaVuSans-48"/>
      <use x="127.246094" xlink:href="#DejaVuSans-48"/>
      <use x="190.869141" xlink:href="#DejaVuSans-32"/>
      <use x="222.65625" xlink:href="#DejaVuSans-109"/>
      <use x="320.068359" xlink:href="#DejaVuSans-109"/>
     </g>
    </g>
    <g id="line2d_35">
     <path d="M 526.21875 34.976562 
L 546.21875 34.976562 
" style="fill:none;stroke:#ff7f0e;stroke-linecap:square;stroke-width:1.5;"/>
    </g>
    <g id="line2d_36"/>
    <g id="text_19">
     <!-- 800 mm -->
     <g transform="translate(554.21875 38.476562)scale(0.1 -0.1)">
      <defs>
       <path d="M 31.78125 34.625 
Q 24.75 34.625 20.71875 30.859375 
Q 16.703125 27.09375 16.703125 20.515625 
Q 16.703125 13.921875 20.71875 10.15625 
Q 24.75 6.390625 31.78125 6.390625 
Q 38.8125 6.390625 42.859375 10.171875 
Q 46.921875 13.96875 46.921875 20.515625 
Q 46.921875 27.09375 42.890625 30.859375 
Q 38.875 34.625 31.78125 34.625 
z
M 21.921875 38.8125 
Q 15.578125 40.375 12.03125 44.71875 
Q 8.5 49.078125 8.5 55.328125 
Q 8.5 64.0625 14.71875 69.140625 
Q 20.953125 74.21875 31.78125 74.21875 
Q 42.671875 74.21875 48.875 69.140625 
Q 55.078125 64.0625 55.078125 55.328125 
Q 55.078125 49.078125 51.53125 44.71875 
Q 48 40.375 41.703125 38.8125 
Q 48.828125 37.15625 52.796875 32.3125 
Q 56.78125 27.484375 56.78125 20.515625 
Q 56.78125 9.90625 50.3125 4.234375 
Q 43.84375 -1.421875 31.78125 -1.421875 
Q 19.734375 -1.421875 13.25 4.234375 
Q 6.78125 9.90625 6.78125 20.515625 
Q 6.78125 27.484375 10.78125 32.3125 
Q 14.796875 37.15625 21.921875 38.8125 
z
M 18.3125 54.390625 
Q 18.3125 48.734375 21.84375 45.5625 
Q 25.390625 42.390625 31.78125 42.390625 
Q 38.140625 42.390625 41.71875 45.5625 
Q 45.3125 48.734375 45.3125 54.390625 
Q 45.3125 60.0625 41.71875 63.234375 
Q 38.140625 66.40625 31.78125 66.40625 
Q 25.390625 66.40625 21.84375 63.234375 
Q 18.3125 60.0625 18.3125 54.390625 
z
" id="DejaVuSans-56"/>
      </defs>
      <use xlink:href="#DejaVuSans-56"/>
      <use x="63.623047" xlink:href="#DejaVuSans-48"/>
      <use x="127.246094" xlink:href="#DejaVuSans-48"/>
      <use x="190.869141" xlink:href="#DejaVuSans-32"/>
      <use x="222.65625" xlink:href="#DejaVuSans-109"/>
      <use x="320.068359" xlink:href="#DejaVuSans-109"/>
     </g>
    </g>
   </g>
  </g>
 </g>
 <defs>
  <clipPath id="pc7bd6d68a5">
   <rect height="434.88" width="558" x="46.965625" y="7.2"/>
  </clipPath>
 </defs>
</svg>
