<?xml version="1.0" encoding="utf-8" standalone="no"?>
<!DOCTYPE svg PUBLIC "-//W3C//DTD SVG 1.1//EN"
  "http://www.w3.org/Graphics/SVG/1.1/DTD/svg11.dtd">
<!-- Created with matplotlib (https://matplotlib.org/) -->
<svg height="479.63625pt" version="1.1" viewBox="0 0 612.165625 479.63625" width="612.165625pt" xmlns="http://www.w3.org/2000/svg" xmlns:xlink="http://www.w3.org/1999/xlink">
 <metadata>
  <rdf:RDF xmlns:cc="http://creativecommons.org/ns#" xmlns:dc="http://purl.org/dc/elements/1.1/" xmlns:rdf="http://www.w3.org/1999/02/22-rdf-syntax-ns#">
   <cc:Work>
    <dc:type rdf:resource="http://purl.org/dc/dcmitype/StillImage"/>
    <dc:date>2020-11-17T16:18:40.236108</dc:date>
    <dc:format>image/svg+xml</dc:format>
    <dc:creator>
     <cc:Agent>
      <dc:title>Matplotlib v3.3.3, https://matplotlib.org/</dc:title>
     </cc:Agent>
    </dc:creator>
   </cc:Work>
  </rdf:RDF>
 </metadata>
 <defs>
  <style type="text/css">*{stroke-linecap:butt;stroke-linejoin:round;}</style>
 </defs>
 <g id="figure_1">
  <g id="patch_1">
   <path d="M 0 479.63625 
L 612.165625 479.63625 
L 612.165625 0 
L 0 0 
z
" style="fill:none;"/>
  </g>
  <g id="axes_1">
   <g id="patch_2">
    <path d="M 46.965625 442.08 
L 604.965625 442.08 
L 604.965625 7.2 
L 46.965625 7.2 
z
" style="fill:#ffffff;"/>
   </g>
   <g id="matplotlib.axis_1">
    <g id="xtick_1">
     <g id="line2d_1">
      <path clip-path="url(#pcbf9465aff)" d="M 72.329261 442.08 
L 72.329261 7.2 
" style="fill:none;stroke:#b0b0b0;stroke-linecap:square;stroke-width:0.8;"/>
     </g>
     <g id="line2d_2">
      <defs>
       <path d="M 0 0 
L 0 3.5 
" id="m6628bfab98" style="stroke:#000000;stroke-width:0.8;"/>
      </defs>
      <g>
       <use style="stroke:#000000;stroke-width:0.8;" x="72.329261" xlink:href="#m6628bfab98" y="442.08"/>
      </g>
     </g>
     <g id="text_1">
      <!-- 0 -->
      <g transform="translate(69.148011 456.678437)scale(0.1 -0.1)">
       <defs>
        <path d="M 31.78125 66.40625 
Q 24.171875 66.40625 20.328125 58.90625 
Q 16.5 51.421875 16.5 36.375 
Q 16.5 21.390625 20.328125 13.890625 
Q 24.171875 6.390625 31.78125 6.390625 
Q 39.453125 6.390625 43.28125 13.890625 
Q 47.125 21.390625 47.125 36.375 
Q 47.125 51.421875 43.28125 58.90625 
Q 39.453125 66.40625 31.78125 66.40625 
z
M 31.78125 74.21875 
Q 44.046875 74.21875 50.515625 64.515625 
Q 56.984375 54.828125 56.984375 36.375 
Q 56.984375 17.96875 50.515625 8.265625 
Q 44.046875 -1.421875 31.78125 -1.421875 
Q 19.53125 -1.421875 13.0625 8.265625 
Q 6.59375 17.96875 6.59375 36.375 
Q 6.59375 54.828125 13.0625 64.515625 
Q 19.53125 74.21875 31.78125 74.21875 
z
" id="DejaVuSans-48"/>
       </defs>
       <use xlink:href="#DejaVuSans-48"/>
      </g>
     </g>
    </g>
    <g id="xtick_2">
     <g id="line2d_3">
      <path clip-path="url(#pcbf9465aff)" d="M 157.01586 442.08 
L 157.01586 7.2 
" style="fill:none;stroke:#b0b0b0;stroke-linecap:square;stroke-width:0.8;"/>
     </g>
     <g id="line2d_4">
      <g>
       <use style="stroke:#000000;stroke-width:0.8;" x="157.01586" xlink:href="#m6628bfab98" y="442.08"/>
      </g>
     </g>
     <g id="text_2">
      <!-- 100 -->
      <g transform="translate(147.47211 456.678437)scale(0.1 -0.1)">
       <defs>
        <path d="M 12.40625 8.296875 
L 28.515625 8.296875 
L 28.515625 63.921875 
L 10.984375 60.40625 
L 10.984375 69.390625 
L 28.421875 72.90625 
L 38.28125 72.90625 
L 38.28125 8.296875 
L 54.390625 8.296875 
L 54.390625 0 
L 12.40625 0 
z
" id="DejaVuSans-49"/>
       </defs>
       <use xlink:href="#DejaVuSans-49"/>
       <use x="63.623047" xlink:href="#DejaVuSans-48"/>
       <use x="127.246094" xlink:href="#DejaVuSans-48"/>
      </g>
     </g>
    </g>
    <g id="xtick_3">
     <g id="line2d_5">
      <path clip-path="url(#pcbf9465aff)" d="M 241.702459 442.08 
L 241.702459 7.2 
" style="fill:none;stroke:#b0b0b0;stroke-linecap:square;stroke-width:0.8;"/>
     </g>
     <g id="line2d_6">
      <g>
       <use style="stroke:#000000;stroke-width:0.8;" x="241.702459" xlink:href="#m6628bfab98" y="442.08"/>
      </g>
     </g>
     <g id="text_3">
      <!-- 200 -->
      <g transform="translate(232.158709 456.678437)scale(0.1 -0.1)">
       <defs>
        <path d="M 19.1875 8.296875 
L 53.609375 8.296875 
L 53.609375 0 
L 7.328125 0 
L 7.328125 8.296875 
Q 12.9375 14.109375 22.625 23.890625 
Q 32.328125 33.6875 34.8125 36.53125 
Q 39.546875 41.84375 41.421875 45.53125 
Q 43.3125 49.21875 43.3125 52.78125 
Q 43.3125 58.59375 39.234375 62.25 
Q 35.15625 65.921875 28.609375 65.921875 
Q 23.96875 65.921875 18.8125 64.3125 
Q 13.671875 62.703125 7.8125 59.421875 
L 7.8125 69.390625 
Q 13.765625 71.78125 18.9375 73 
Q 24.125 74.21875 28.421875 74.21875 
Q 39.75 74.21875 46.484375 68.546875 
Q 53.21875 62.890625 53.21875 53.421875 
Q 53.21875 48.921875 51.53125 44.890625 
Q 49.859375 40.875 45.40625 35.40625 
Q 44.1875 33.984375 37.640625 27.21875 
Q 31.109375 20.453125 19.1875 8.296875 
z
" id="DejaVuSans-50"/>
       </defs>
       <use xlink:href="#DejaVuSans-50"/>
       <use x="63.623047" xlink:href="#DejaVuSans-48"/>
       <use x="127.246094" xlink:href="#DejaVuSans-48"/>
      </g>
     </g>
    </g>
    <g id="xtick_4">
     <g id="line2d_7">
      <path clip-path="url(#pcbf9465aff)" d="M 326.389058 442.08 
L 326.389058 7.2 
" style="fill:none;stroke:#b0b0b0;stroke-linecap:square;stroke-width:0.8;"/>
     </g>
     <g id="line2d_8">
      <g>
       <use style="stroke:#000000;stroke-width:0.8;" x="326.389058" xlink:href="#m6628bfab98" y="442.08"/>
      </g>
     </g>
     <g id="text_4">
      <!-- 300 -->
      <g transform="translate(316.845308 456.678437)scale(0.1 -0.1)">
       <defs>
        <path d="M 40.578125 39.3125 
Q 47.65625 37.796875 51.625 33 
Q 55.609375 28.21875 55.609375 21.1875 
Q 55.609375 10.40625 48.1875 4.484375 
Q 40.765625 -1.421875 27.09375 -1.421875 
Q 22.515625 -1.421875 17.65625 -0.515625 
Q 12.796875 0.390625 7.625 2.203125 
L 7.625 11.71875 
Q 11.71875 9.328125 16.59375 8.109375 
Q 21.484375 6.890625 26.8125 6.890625 
Q 36.078125 6.890625 40.9375 10.546875 
Q 45.796875 14.203125 45.796875 21.1875 
Q 45.796875 27.640625 41.28125 31.265625 
Q 36.765625 34.90625 28.71875 34.90625 
L 20.21875 34.90625 
L 20.21875 43.015625 
L 29.109375 43.015625 
Q 36.375 43.015625 40.234375 45.921875 
Q 44.09375 48.828125 44.09375 54.296875 
Q 44.09375 59.90625 40.109375 62.90625 
Q 36.140625 65.921875 28.71875 65.921875 
Q 24.65625 65.921875 20.015625 65.03125 
Q 15.375 64.15625 9.8125 62.3125 
L 9.8125 71.09375 
Q 15.4375 72.65625 20.34375 73.4375 
Q 25.25 74.21875 29.59375 74.21875 
Q 40.828125 74.21875 47.359375 69.109375 
Q 53.90625 64.015625 53.90625 55.328125 
Q 53.90625 49.265625 50.4375 45.09375 
Q 46.96875 40.921875 40.578125 39.3125 
z
" id="DejaVuSans-51"/>
       </defs>
       <use xlink:href="#DejaVuSans-51"/>
       <use x="63.623047" xlink:href="#DejaVuSans-48"/>
       <use x="127.246094" xlink:href="#DejaVuSans-48"/>
      </g>
     </g>
    </g>
    <g id="xtick_5">
     <g id="line2d_9">
      <path clip-path="url(#pcbf9465aff)" d="M 411.075657 442.08 
L 411.075657 7.2 
" style="fill:none;stroke:#b0b0b0;stroke-linecap:square;stroke-width:0.8;"/>
     </g>
     <g id="line2d_10">
      <g>
       <use style="stroke:#000000;stroke-width:0.8;" x="411.075657" xlink:href="#m6628bfab98" y="442.08"/>
      </g>
     </g>
     <g id="text_5">
      <!-- 400 -->
      <g transform="translate(401.531907 456.678437)scale(0.1 -0.1)">
       <defs>
        <path d="M 37.796875 64.3125 
L 12.890625 25.390625 
L 37.796875 25.390625 
z
M 35.203125 72.90625 
L 47.609375 72.90625 
L 47.609375 25.390625 
L 58.015625 25.390625 
L 58.015625 17.1875 
L 47.609375 17.1875 
L 47.609375 0 
L 37.796875 0 
L 37.796875 17.1875 
L 4.890625 17.1875 
L 4.890625 26.703125 
z
" id="DejaVuSans-52"/>
       </defs>
       <use xlink:href="#DejaVuSans-52"/>
       <use x="63.623047" xlink:href="#DejaVuSans-48"/>
       <use x="127.246094" xlink:href="#DejaVuSans-48"/>
      </g>
     </g>
    </g>
    <g id="xtick_6">
     <g id="line2d_11">
      <path clip-path="url(#pcbf9465aff)" d="M 495.762256 442.08 
L 495.762256 7.2 
" style="fill:none;stroke:#b0b0b0;stroke-linecap:square;stroke-width:0.8;"/>
     </g>
     <g id="line2d_12">
      <g>
       <use style="stroke:#000000;stroke-width:0.8;" x="495.762256" xlink:href="#m6628bfab98" y="442.08"/>
      </g>
     </g>
     <g id="text_6">
      <!-- 500 -->
      <g transform="translate(486.218506 456.678437)scale(0.1 -0.1)">
       <defs>
        <path d="M 10.796875 72.90625 
L 49.515625 72.90625 
L 49.515625 64.59375 
L 19.828125 64.59375 
L 19.828125 46.734375 
Q 21.96875 47.46875 24.109375 47.828125 
Q 26.265625 48.1875 28.421875 48.1875 
Q 40.625 48.1875 47.75 41.5 
Q 54.890625 34.8125 54.890625 23.390625 
Q 54.890625 11.625 47.5625 5.09375 
Q 40.234375 -1.421875 26.90625 -1.421875 
Q 22.3125 -1.421875 17.546875 -0.640625 
Q 12.796875 0.140625 7.71875 1.703125 
L 7.71875 11.625 
Q 12.109375 9.234375 16.796875 8.0625 
Q 21.484375 6.890625 26.703125 6.890625 
Q 35.15625 6.890625 40.078125 11.328125 
Q 45.015625 15.765625 45.015625 23.390625 
Q 45.015625 31 40.078125 35.4375 
Q 35.15625 39.890625 26.703125 39.890625 
Q 22.75 39.890625 18.8125 39.015625 
Q 14.890625 38.140625 10.796875 36.28125 
z
" id="DejaVuSans-53"/>
       </defs>
       <use xlink:href="#DejaVuSans-53"/>
       <use x="63.623047" xlink:href="#DejaVuSans-48"/>
       <use x="127.246094" xlink:href="#DejaVuSans-48"/>
      </g>
     </g>
    </g>
    <g id="xtick_7">
     <g id="line2d_13">
      <path clip-path="url(#pcbf9465aff)" d="M 580.448855 442.08 
L 580.448855 7.2 
" style="fill:none;stroke:#b0b0b0;stroke-linecap:square;stroke-width:0.8;"/>
     </g>
     <g id="line2d_14">
      <g>
       <use style="stroke:#000000;stroke-width:0.8;" x="580.448855" xlink:href="#m6628bfab98" y="442.08"/>
      </g>
     </g>
     <g id="text_7">
      <!-- 600 -->
      <g transform="translate(570.905105 456.678437)scale(0.1 -0.1)">
       <defs>
        <path d="M 33.015625 40.375 
Q 26.375 40.375 22.484375 35.828125 
Q 18.609375 31.296875 18.609375 23.390625 
Q 18.609375 15.53125 22.484375 10.953125 
Q 26.375 6.390625 33.015625 6.390625 
Q 39.65625 6.390625 43.53125 10.953125 
Q 47.40625 15.53125 47.40625 23.390625 
Q 47.40625 31.296875 43.53125 35.828125 
Q 39.65625 40.375 33.015625 40.375 
z
M 52.59375 71.296875 
L 52.59375 62.3125 
Q 48.875 64.0625 45.09375 64.984375 
Q 41.3125 65.921875 37.59375 65.921875 
Q 27.828125 65.921875 22.671875 59.328125 
Q 17.53125 52.734375 16.796875 39.40625 
Q 19.671875 43.65625 24.015625 45.921875 
Q 28.375 48.1875 33.59375 48.1875 
Q 44.578125 48.1875 50.953125 41.515625 
Q 57.328125 34.859375 57.328125 23.390625 
Q 57.328125 12.15625 50.6875 5.359375 
Q 44.046875 -1.421875 33.015625 -1.421875 
Q 20.359375 -1.421875 13.671875 8.265625 
Q 6.984375 17.96875 6.984375 36.375 
Q 6.984375 53.65625 15.1875 63.9375 
Q 23.390625 74.21875 37.203125 74.21875 
Q 40.921875 74.21875 44.703125 73.484375 
Q 48.484375 72.75 52.59375 71.296875 
z
" id="DejaVuSans-54"/>
       </defs>
       <use xlink:href="#DejaVuSans-54"/>
       <use x="63.623047" xlink:href="#DejaVuSans-48"/>
       <use x="127.246094" xlink:href="#DejaVuSans-48"/>
      </g>
     </g>
    </g>
    <g id="text_8">
     <!-- Wellenlänge [nm] -->
     <g transform="translate(281.813281 470.356562)scale(0.1 -0.1)">
      <defs>
       <path d="M 3.328125 72.90625 
L 13.28125 72.90625 
L 28.609375 11.28125 
L 43.890625 72.90625 
L 54.984375 72.90625 
L 70.3125 11.28125 
L 85.59375 72.90625 
L 95.609375 72.90625 
L 77.296875 0 
L 64.890625 0 
L 49.515625 63.28125 
L 33.984375 0 
L 21.578125 0 
z
" id="DejaVuSans-87"/>
       <path d="M 56.203125 29.59375 
L 56.203125 25.203125 
L 14.890625 25.203125 
Q 15.484375 15.921875 20.484375 11.0625 
Q 25.484375 6.203125 34.421875 6.203125 
Q 39.59375 6.203125 44.453125 7.46875 
Q 49.3125 8.734375 54.109375 11.28125 
L 54.109375 2.78125 
Q 49.265625 0.734375 44.1875 -0.34375 
Q 39.109375 -1.421875 33.890625 -1.421875 
Q 20.796875 -1.421875 13.15625 6.1875 
Q 5.515625 13.8125 5.515625 26.8125 
Q 5.515625 40.234375 12.765625 48.109375 
Q 20.015625 56 32.328125 56 
Q 43.359375 56 49.78125 48.890625 
Q 56.203125 41.796875 56.203125 29.59375 
z
M 47.21875 32.234375 
Q 47.125 39.59375 43.09375 43.984375 
Q 39.0625 48.390625 32.421875 48.390625 
Q 24.90625 48.390625 20.390625 44.140625 
Q 15.875 39.890625 15.1875 32.171875 
z
" id="DejaVuSans-101"/>
       <path d="M 9.421875 75.984375 
L 18.40625 75.984375 
L 18.40625 0 
L 9.421875 0 
z
" id="DejaVuSans-108"/>
       <path d="M 54.890625 33.015625 
L 54.890625 0 
L 45.90625 0 
L 45.90625 32.71875 
Q 45.90625 40.484375 42.875 44.328125 
Q 39.84375 48.1875 33.796875 48.1875 
Q 26.515625 48.1875 22.3125 43.546875 
Q 18.109375 38.921875 18.109375 30.90625 
L 18.109375 0 
L 9.078125 0 
L 9.078125 54.6875 
L 18.109375 54.6875 
L 18.109375 46.1875 
Q 21.34375 51.125 25.703125 53.5625 
Q 30.078125 56 35.796875 56 
Q 45.21875 56 50.046875 50.171875 
Q 54.890625 44.34375 54.890625 33.015625 
z
" id="DejaVuSans-110"/>
       <path d="M 34.28125 27.484375 
Q 23.390625 27.484375 19.1875 25 
Q 14.984375 22.515625 14.984375 16.5 
Q 14.984375 11.71875 18.140625 8.90625 
Q 21.296875 6.109375 26.703125 6.109375 
Q 34.1875 6.109375 38.703125 11.40625 
Q 43.21875 16.703125 43.21875 25.484375 
L 43.21875 27.484375 
z
M 52.203125 31.203125 
L 52.203125 0 
L 43.21875 0 
L 43.21875 8.296875 
Q 40.140625 3.328125 35.546875 0.953125 
Q 30.953125 -1.421875 24.3125 -1.421875 
Q 15.921875 -1.421875 10.953125 3.296875 
Q 6 8.015625 6 15.921875 
Q 6 25.140625 12.171875 29.828125 
Q 18.359375 34.515625 30.609375 34.515625 
L 43.21875 34.515625 
L 43.21875 35.40625 
Q 43.21875 41.609375 39.140625 45 
Q 35.0625 48.390625 27.6875 48.390625 
Q 23 48.390625 18.546875 47.265625 
Q 14.109375 46.140625 10.015625 43.890625 
L 10.015625 52.203125 
Q 14.9375 54.109375 19.578125 55.046875 
Q 24.21875 56 28.609375 56 
Q 40.484375 56 46.34375 49.84375 
Q 52.203125 43.703125 52.203125 31.203125 
z
M 33.59375 75.78125 
L 43.5 75.78125 
L 43.5 65.921875 
L 33.59375 65.921875 
z
M 14.5 75.78125 
L 24.40625 75.78125 
L 24.40625 65.921875 
L 14.5 65.921875 
z
" id="DejaVuSans-228"/>
       <path d="M 45.40625 27.984375 
Q 45.40625 37.75 41.375 43.109375 
Q 37.359375 48.484375 30.078125 48.484375 
Q 22.859375 48.484375 18.828125 43.109375 
Q 14.796875 37.75 14.796875 27.984375 
Q 14.796875 18.265625 18.828125 12.890625 
Q 22.859375 7.515625 30.078125 7.515625 
Q 37.359375 7.515625 41.375 12.890625 
Q 45.40625 18.265625 45.40625 27.984375 
z
M 54.390625 6.78125 
Q 54.390625 -7.171875 48.1875 -13.984375 
Q 42 -20.796875 29.203125 -20.796875 
Q 24.46875 -20.796875 20.265625 -20.09375 
Q 16.0625 -19.390625 12.109375 -17.921875 
L 12.109375 -9.1875 
Q 16.0625 -11.328125 19.921875 -12.34375 
Q 23.78125 -13.375 27.78125 -13.375 
Q 36.625 -13.375 41.015625 -8.765625 
Q 45.40625 -4.15625 45.40625 5.171875 
L 45.40625 9.625 
Q 42.625 4.78125 38.28125 2.390625 
Q 33.9375 0 27.875 0 
Q 17.828125 0 11.671875 7.65625 
Q 5.515625 15.328125 5.515625 27.984375 
Q 5.515625 40.671875 11.671875 48.328125 
Q 17.828125 56 27.875 56 
Q 33.9375 56 38.28125 53.609375 
Q 42.625 51.21875 45.40625 46.390625 
L 45.40625 54.6875 
L 54.390625 54.6875 
z
" id="DejaVuSans-103"/>
       <path id="DejaVuSans-32"/>
       <path d="M 8.59375 75.984375 
L 29.296875 75.984375 
L 29.296875 69 
L 17.578125 69 
L 17.578125 -6.203125 
L 29.296875 -6.203125 
L 29.296875 -13.1875 
L 8.59375 -13.1875 
z
" id="DejaVuSans-91"/>
       <path d="M 52 44.1875 
Q 55.375 50.25 60.0625 53.125 
Q 64.75 56 71.09375 56 
Q 79.640625 56 84.28125 50.015625 
Q 88.921875 44.046875 88.921875 33.015625 
L 88.921875 0 
L 79.890625 0 
L 79.890625 32.71875 
Q 79.890625 40.578125 77.09375 44.375 
Q 74.3125 48.1875 68.609375 48.1875 
Q 61.625 48.1875 57.5625 43.546875 
Q 53.515625 38.921875 53.515625 30.90625 
L 53.515625 0 
L 44.484375 0 
L 44.484375 32.71875 
Q 44.484375 40.625 41.703125 44.40625 
Q 38.921875 48.1875 33.109375 48.1875 
Q 26.21875 48.1875 22.15625 43.53125 
Q 18.109375 38.875 18.109375 30.90625 
L 18.109375 0 
L 9.078125 0 
L 9.078125 54.6875 
L 18.109375 54.6875 
L 18.109375 46.1875 
Q 21.1875 51.21875 25.484375 53.609375 
Q 29.78125 56 35.6875 56 
Q 41.65625 56 45.828125 52.96875 
Q 50 49.953125 52 44.1875 
z
" id="DejaVuSans-109"/>
       <path d="M 30.421875 75.984375 
L 30.421875 -13.1875 
L 9.71875 -13.1875 
L 9.71875 -6.203125 
L 21.390625 -6.203125 
L 21.390625 69 
L 9.71875 69 
L 9.71875 75.984375 
z
" id="DejaVuSans-93"/>
      </defs>
      <use xlink:href="#DejaVuSans-87"/>
      <use x="93.001953" xlink:href="#DejaVuSans-101"/>
      <use x="154.525391" xlink:href="#DejaVuSans-108"/>
      <use x="182.308594" xlink:href="#DejaVuSans-108"/>
      <use x="210.091797" xlink:href="#DejaVuSans-101"/>
      <use x="271.615234" xlink:href="#DejaVuSans-110"/>
      <use x="334.994141" xlink:href="#DejaVuSans-108"/>
      <use x="362.777344" xlink:href="#DejaVuSans-228"/>
      <use x="424.056641" xlink:href="#DejaVuSans-110"/>
      <use x="487.435547" xlink:href="#DejaVuSans-103"/>
      <use x="550.912109" xlink:href="#DejaVuSans-101"/>
      <use x="612.435547" xlink:href="#DejaVuSans-32"/>
      <use x="644.222656" xlink:href="#DejaVuSans-91"/>
      <use x="683.236328" xlink:href="#DejaVuSans-110"/>
      <use x="746.615234" xlink:href="#DejaVuSans-109"/>
      <use x="844.027344" xlink:href="#DejaVuSans-93"/>
     </g>
    </g>
   </g>
   <g id="matplotlib.axis_2">
    <g id="ytick_1">
     <g id="line2d_15">
      <path clip-path="url(#pcbf9465aff)" d="M 46.965625 411.406646 
L 604.965625 411.406646 
" style="fill:none;stroke:#b0b0b0;stroke-linecap:square;stroke-width:0.8;"/>
     </g>
     <g id="line2d_16">
      <defs>
       <path d="M 0 0 
L -3.5 0 
" id="mf674d77078" style="stroke:#000000;stroke-width:0.8;"/>
      </defs>
      <g>
       <use style="stroke:#000000;stroke-width:0.8;" x="46.965625" xlink:href="#mf674d77078" y="411.406646"/>
      </g>
     </g>
     <g id="text_9">
      <!-- 40 -->
      <g transform="translate(27.240625 415.205865)scale(0.1 -0.1)">
       <use xlink:href="#DejaVuSans-52"/>
       <use x="63.623047" xlink:href="#DejaVuSans-48"/>
      </g>
     </g>
    </g>
    <g id="ytick_2">
     <g id="line2d_17">
      <path clip-path="url(#pcbf9465aff)" d="M 46.965625 356.876238 
L 604.965625 356.876238 
" style="fill:none;stroke:#b0b0b0;stroke-linecap:square;stroke-width:0.8;"/>
     </g>
     <g id="line2d_18">
      <g>
       <use style="stroke:#000000;stroke-width:0.8;" x="46.965625" xlink:href="#mf674d77078" y="356.876238"/>
      </g>
     </g>
     <g id="text_10">
      <!-- 60 -->
      <g transform="translate(27.240625 360.675457)scale(0.1 -0.1)">
       <use xlink:href="#DejaVuSans-54"/>
       <use x="63.623047" xlink:href="#DejaVuSans-48"/>
      </g>
     </g>
    </g>
    <g id="ytick_3">
     <g id="line2d_19">
      <path clip-path="url(#pcbf9465aff)" d="M 46.965625 302.345831 
L 604.965625 302.345831 
" style="fill:none;stroke:#b0b0b0;stroke-linecap:square;stroke-width:0.8;"/>
     </g>
     <g id="line2d_20">
      <g>
       <use style="stroke:#000000;stroke-width:0.8;" x="46.965625" xlink:href="#mf674d77078" y="302.345831"/>
      </g>
     </g>
     <g id="text_11">
      <!-- 80 -->
      <g transform="translate(27.240625 306.145049)scale(0.1 -0.1)">
       <defs>
        <path d="M 31.78125 34.625 
Q 24.75 34.625 20.71875 30.859375 
Q 16.703125 27.09375 16.703125 20.515625 
Q 16.703125 13.921875 20.71875 10.15625 
Q 24.75 6.390625 31.78125 6.390625 
Q 38.8125 6.390625 42.859375 10.171875 
Q 46.921875 13.96875 46.921875 20.515625 
Q 46.921875 27.09375 42.890625 30.859375 
Q 38.875 34.625 31.78125 34.625 
z
M 21.921875 38.8125 
Q 15.578125 40.375 12.03125 44.71875 
Q 8.5 49.078125 8.5 55.328125 
Q 8.5 64.0625 14.71875 69.140625 
Q 20.953125 74.21875 31.78125 74.21875 
Q 42.671875 74.21875 48.875 69.140625 
Q 55.078125 64.0625 55.078125 55.328125 
Q 55.078125 49.078125 51.53125 44.71875 
Q 48 40.375 41.703125 38.8125 
Q 48.828125 37.15625 52.796875 32.3125 
Q 56.78125 27.484375 56.78125 20.515625 
Q 56.78125 9.90625 50.3125 4.234375 
Q 43.84375 -1.421875 31.78125 -1.421875 
Q 19.734375 -1.421875 13.25 4.234375 
Q 6.78125 9.90625 6.78125 20.515625 
Q 6.78125 27.484375 10.78125 32.3125 
Q 14.796875 37.15625 21.921875 38.8125 
z
M 18.3125 54.390625 
Q 18.3125 48.734375 21.84375 45.5625 
Q 25.390625 42.390625 31.78125 42.390625 
Q 38.140625 42.390625 41.71875 45.5625 
Q 45.3125 48.734375 45.3125 54.390625 
Q 45.3125 60.0625 41.71875 63.234375 
Q 38.140625 66.40625 31.78125 66.40625 
Q 25.390625 66.40625 21.84375 63.234375 
Q 18.3125 60.0625 18.3125 54.390625 
z
" id="DejaVuSans-56"/>
       </defs>
       <use xlink:href="#DejaVuSans-56"/>
       <use x="63.623047" xlink:href="#DejaVuSans-48"/>
      </g>
     </g>
    </g>
    <g id="ytick_4">
     <g id="line2d_21">
      <path clip-path="url(#pcbf9465aff)" d="M 46.965625 247.815423 
L 604.965625 247.815423 
" style="fill:none;stroke:#b0b0b0;stroke-linecap:square;stroke-width:0.8;"/>
     </g>
     <g id="line2d_22">
      <g>
       <use style="stroke:#000000;stroke-width:0.8;" x="46.965625" xlink:href="#mf674d77078" y="247.815423"/>
      </g>
     </g>
     <g id="text_12">
      <!-- 100 -->
      <g transform="translate(20.878125 251.614642)scale(0.1 -0.1)">
       <use xlink:href="#DejaVuSans-49"/>
       <use x="63.623047" xlink:href="#DejaVuSans-48"/>
       <use x="127.246094" xlink:href="#DejaVuSans-48"/>
      </g>
     </g>
    </g>
    <g id="ytick_5">
     <g id="line2d_23">
      <path clip-path="url(#pcbf9465aff)" d="M 46.965625 193.285016 
L 604.965625 193.285016 
" style="fill:none;stroke:#b0b0b0;stroke-linecap:square;stroke-width:0.8;"/>
     </g>
     <g id="line2d_24">
      <g>
       <use style="stroke:#000000;stroke-width:0.8;" x="46.965625" xlink:href="#mf674d77078" y="193.285016"/>
      </g>
     </g>
     <g id="text_13">
      <!-- 120 -->
      <g transform="translate(20.878125 197.084234)scale(0.1 -0.1)">
       <use xlink:href="#DejaVuSans-49"/>
       <use x="63.623047" xlink:href="#DejaVuSans-50"/>
       <use x="127.246094" xlink:href="#DejaVuSans-48"/>
      </g>
     </g>
    </g>
    <g id="ytick_6">
     <g id="line2d_25">
      <path clip-path="url(#pcbf9465aff)" d="M 46.965625 138.754608 
L 604.965625 138.754608 
" style="fill:none;stroke:#b0b0b0;stroke-linecap:square;stroke-width:0.8;"/>
     </g>
     <g id="line2d_26">
      <g>
       <use style="stroke:#000000;stroke-width:0.8;" x="46.965625" xlink:href="#mf674d77078" y="138.754608"/>
      </g>
     </g>
     <g id="text_14">
      <!-- 140 -->
      <g transform="translate(20.878125 142.553827)scale(0.1 -0.1)">
       <use xlink:href="#DejaVuSans-49"/>
       <use x="63.623047" xlink:href="#DejaVuSans-52"/>
       <use x="127.246094" xlink:href="#DejaVuSans-48"/>
      </g>
     </g>
    </g>
    <g id="ytick_7">
     <g id="line2d_27">
      <path clip-path="url(#pcbf9465aff)" d="M 46.965625 84.224201 
L 604.965625 84.224201 
" style="fill:none;stroke:#b0b0b0;stroke-linecap:square;stroke-width:0.8;"/>
     </g>
     <g id="line2d_28">
      <g>
       <use style="stroke:#000000;stroke-width:0.8;" x="46.965625" xlink:href="#mf674d77078" y="84.224201"/>
      </g>
     </g>
     <g id="text_15">
      <!-- 160 -->
      <g transform="translate(20.878125 88.023419)scale(0.1 -0.1)">
       <use xlink:href="#DejaVuSans-49"/>
       <use x="63.623047" xlink:href="#DejaVuSans-54"/>
       <use x="127.246094" xlink:href="#DejaVuSans-48"/>
      </g>
     </g>
    </g>
    <g id="ytick_8">
     <g id="line2d_29">
      <path clip-path="url(#pcbf9465aff)" d="M 46.965625 29.693793 
L 604.965625 29.693793 
" style="fill:none;stroke:#b0b0b0;stroke-linecap:square;stroke-width:0.8;"/>
     </g>
     <g id="line2d_30">
      <g>
       <use style="stroke:#000000;stroke-width:0.8;" x="46.965625" xlink:href="#mf674d77078" y="29.693793"/>
      </g>
     </g>
     <g id="text_16">
      <!-- 180 -->
      <g transform="translate(20.878125 33.493012)scale(0.1 -0.1)">
       <use xlink:href="#DejaVuSans-49"/>
       <use x="63.623047" xlink:href="#DejaVuSans-56"/>
       <use x="127.246094" xlink:href="#DejaVuSans-48"/>
      </g>
     </g>
    </g>
    <g id="text_17">
     <!-- Intensität [a.u.] -->
     <g transform="translate(14.798437 263.368906)rotate(-90)scale(0.1 -0.1)">
      <defs>
       <path d="M 9.8125 72.90625 
L 19.671875 72.90625 
L 19.671875 0 
L 9.8125 0 
z
" id="DejaVuSans-73"/>
       <path d="M 18.3125 70.21875 
L 18.3125 54.6875 
L 36.8125 54.6875 
L 36.8125 47.703125 
L 18.3125 47.703125 
L 18.3125 18.015625 
Q 18.3125 11.328125 20.140625 9.421875 
Q 21.96875 7.515625 27.59375 7.515625 
L 36.8125 7.515625 
L 36.8125 0 
L 27.59375 0 
Q 17.1875 0 13.234375 3.875 
Q 9.28125 7.765625 9.28125 18.015625 
L 9.28125 47.703125 
L 2.6875 47.703125 
L 2.6875 54.6875 
L 9.28125 54.6875 
L 9.28125 70.21875 
z
" id="DejaVuSans-116"/>
       <path d="M 44.28125 53.078125 
L 44.28125 44.578125 
Q 40.484375 46.53125 36.375 47.5 
Q 32.28125 48.484375 27.875 48.484375 
Q 21.1875 48.484375 17.84375 46.4375 
Q 14.5 44.390625 14.5 40.28125 
Q 14.5 37.15625 16.890625 35.375 
Q 19.28125 33.59375 26.515625 31.984375 
L 29.59375 31.296875 
Q 39.15625 29.25 43.1875 25.515625 
Q 47.21875 21.78125 47.21875 15.09375 
Q 47.21875 7.46875 41.1875 3.015625 
Q 35.15625 -1.421875 24.609375 -1.421875 
Q 20.21875 -1.421875 15.453125 -0.5625 
Q 10.6875 0.296875 5.421875 2 
L 5.421875 11.28125 
Q 10.40625 8.6875 15.234375 7.390625 
Q 20.0625 6.109375 24.8125 6.109375 
Q 31.15625 6.109375 34.5625 8.28125 
Q 37.984375 10.453125 37.984375 14.40625 
Q 37.984375 18.0625 35.515625 20.015625 
Q 33.0625 21.96875 24.703125 23.78125 
L 21.578125 24.515625 
Q 13.234375 26.265625 9.515625 29.90625 
Q 5.8125 33.546875 5.8125 39.890625 
Q 5.8125 47.609375 11.28125 51.796875 
Q 16.75 56 26.8125 56 
Q 31.78125 56 36.171875 55.265625 
Q 40.578125 54.546875 44.28125 53.078125 
z
" id="DejaVuSans-115"/>
       <path d="M 9.421875 54.6875 
L 18.40625 54.6875 
L 18.40625 0 
L 9.421875 0 
z
M 9.421875 75.984375 
L 18.40625 75.984375 
L 18.40625 64.59375 
L 9.421875 64.59375 
z
" id="DejaVuSans-105"/>
       <path d="M 34.28125 27.484375 
Q 23.390625 27.484375 19.1875 25 
Q 14.984375 22.515625 14.984375 16.5 
Q 14.984375 11.71875 18.140625 8.90625 
Q 21.296875 6.109375 26.703125 6.109375 
Q 34.1875 6.109375 38.703125 11.40625 
Q 43.21875 16.703125 43.21875 25.484375 
L 43.21875 27.484375 
z
M 52.203125 31.203125 
L 52.203125 0 
L 43.21875 0 
L 43.21875 8.296875 
Q 40.140625 3.328125 35.546875 0.953125 
Q 30.953125 -1.421875 24.3125 -1.421875 
Q 15.921875 -1.421875 10.953125 3.296875 
Q 6 8.015625 6 15.921875 
Q 6 25.140625 12.171875 29.828125 
Q 18.359375 34.515625 30.609375 34.515625 
L 43.21875 34.515625 
L 43.21875 35.40625 
Q 43.21875 41.609375 39.140625 45 
Q 35.0625 48.390625 27.6875 48.390625 
Q 23 48.390625 18.546875 47.265625 
Q 14.109375 46.140625 10.015625 43.890625 
L 10.015625 52.203125 
Q 14.9375 54.109375 19.578125 55.046875 
Q 24.21875 56 28.609375 56 
Q 40.484375 56 46.34375 49.84375 
Q 52.203125 43.703125 52.203125 31.203125 
z
" id="DejaVuSans-97"/>
       <path d="M 10.6875 12.40625 
L 21 12.40625 
L 21 0 
L 10.6875 0 
z
" id="DejaVuSans-46"/>
       <path d="M 8.5 21.578125 
L 8.5 54.6875 
L 17.484375 54.6875 
L 17.484375 21.921875 
Q 17.484375 14.15625 20.5 10.265625 
Q 23.53125 6.390625 29.59375 6.390625 
Q 36.859375 6.390625 41.078125 11.03125 
Q 45.3125 15.671875 45.3125 23.6875 
L 45.3125 54.6875 
L 54.296875 54.6875 
L 54.296875 0 
L 45.3125 0 
L 45.3125 8.40625 
Q 42.046875 3.421875 37.71875 1 
Q 33.40625 -1.421875 27.6875 -1.421875 
Q 18.265625 -1.421875 13.375 4.4375 
Q 8.5 10.296875 8.5 21.578125 
z
M 31.109375 56 
z
" id="DejaVuSans-117"/>
      </defs>
      <use xlink:href="#DejaVuSans-73"/>
      <use x="29.492188" xlink:href="#DejaVuSans-110"/>
      <use x="92.871094" xlink:href="#DejaVuSans-116"/>
      <use x="132.080078" xlink:href="#DejaVuSans-101"/>
      <use x="193.603516" xlink:href="#DejaVuSans-110"/>
      <use x="256.982422" xlink:href="#DejaVuSans-115"/>
      <use x="309.082031" xlink:href="#DejaVuSans-105"/>
      <use x="336.865234" xlink:href="#DejaVuSans-116"/>
      <use x="376.074219" xlink:href="#DejaVuSans-228"/>
      <use x="437.353516" xlink:href="#DejaVuSans-116"/>
      <use x="476.5625" xlink:href="#DejaVuSans-32"/>
      <use x="508.349609" xlink:href="#DejaVuSans-91"/>
      <use x="547.363281" xlink:href="#DejaVuSans-97"/>
      <use x="608.642578" xlink:href="#DejaVuSans-46"/>
      <use x="640.429688" xlink:href="#DejaVuSans-117"/>
      <use x="703.808594" xlink:href="#DejaVuSans-46"/>
      <use x="735.595703" xlink:href="#DejaVuSans-93"/>
     </g>
    </g>
   </g>
   <g id="line2d_31">
    <path clip-path="url(#pcbf9465aff)" d="M 72.329261 411.406646 
L 73.176127 419.586207 
L 74.022993 419.586207 
L 74.869859 414.133166 
L 75.716725 411.406646 
L 76.563591 419.586207 
L 77.410457 419.586207 
L 78.257323 414.133166 
L 79.104189 414.133166 
L 79.951055 419.586207 
L 80.797921 419.586207 
L 81.644787 414.133166 
L 82.491653 414.133166 
L 83.338519 419.586207 
L 84.185385 416.859687 
L 85.879117 422.312727 
L 86.725983 414.133166 
L 87.572849 414.133166 
L 88.419715 419.586207 
L 89.266581 419.586207 
L 90.113447 414.133166 
L 90.960313 414.133166 
L 91.807179 422.312727 
L 92.654045 414.133166 
L 93.500911 419.586207 
L 94.347777 419.586207 
L 95.194643 414.133166 
L 96.041509 416.859687 
L 96.888375 411.406646 
L 99.428973 419.586207 
L 100.275839 414.133166 
L 101.122705 414.133166 
L 101.969571 419.586207 
L 102.816437 414.133166 
L 103.663303 419.586207 
L 105.357035 414.133166 
L 106.203901 419.586207 
L 107.050767 411.406646 
L 107.897633 416.859687 
L 108.744499 411.406646 
L 109.591365 416.859687 
L 110.438231 411.406646 
L 111.285097 414.133166 
L 112.131963 408.680125 
L 112.978829 408.680125 
L 113.825695 403.227085 
L 114.672561 400.500564 
L 115.519427 403.227085 
L 116.366293 403.227085 
L 117.213159 408.680125 
L 118.060025 405.953605 
L 118.906891 392.321003 
L 119.753757 392.321003 
L 120.600623 386.867962 
L 121.447489 386.867962 
L 122.294355 375.961881 
L 123.141221 381.414922 
L 123.988087 392.321003 
L 124.834953 389.594483 
L 125.681819 403.227085 
L 126.528685 400.500564 
L 127.375551 403.227085 
L 128.222417 408.680125 
L 129.069283 403.227085 
L 129.916149 405.953605 
L 130.763015 403.227085 
L 131.609881 405.953605 
L 132.456747 411.406646 
L 133.303613 405.953605 
L 134.150479 411.406646 
L 134.997345 411.406646 
L 135.844211 408.680125 
L 137.537942 414.133166 
L 138.384808 411.406646 
L 139.231674 414.133166 
L 140.07854 411.406646 
L 140.925406 414.133166 
L 141.772272 411.406646 
L 142.619138 414.133166 
L 143.466004 411.406646 
L 144.31287 414.133166 
L 145.159736 411.406646 
L 146.006602 414.133166 
L 146.853468 414.133166 
L 147.700334 408.680125 
L 148.5472 414.133166 
L 149.394066 411.406646 
L 150.240932 414.133166 
L 151.087798 411.406646 
L 152.78153 411.406646 
L 153.628396 408.680125 
L 154.475262 411.406646 
L 155.322128 408.680125 
L 156.168994 403.227085 
L 157.01586 405.953605 
L 157.862726 397.774044 
L 158.709592 400.500564 
L 159.556458 392.321003 
L 160.403324 392.321003 
L 161.25019 384.141442 
L 162.097056 384.141442 
L 162.943922 373.235361 
L 163.790788 373.235361 
L 164.637654 335.064075 
L 165.48452 326.884514 
L 166.331386 226.00326 
L 167.178252 212.370658 
L 168.025118 226.00326 
L 168.871984 226.00326 
L 169.71885 253.268464 
L 170.565716 255.994984 
L 171.412582 294.16627 
L 172.259448 302.345831 
L 173.106314 335.064075 
L 173.95318 337.790596 
L 174.800046 354.149718 
L 175.646912 354.149718 
L 176.493778 370.50884 
L 177.340644 367.78232 
L 178.18751 373.235361 
L 179.034376 373.235361 
L 179.881242 378.688401 
L 180.728108 378.688401 
L 181.574974 392.321003 
L 182.42184 392.321003 
L 183.268706 397.774044 
L 184.115572 395.047524 
L 184.962438 405.953605 
L 185.809304 403.227085 
L 187.503036 403.227085 
L 188.349902 408.680125 
L 189.196768 408.680125 
L 190.043634 405.953605 
L 190.8905 405.953605 
L 191.737366 411.406646 
L 192.584232 411.406646 
L 193.431098 405.953605 
L 195.12483 411.406646 
L 195.971696 408.680125 
L 196.818562 416.859687 
L 197.665428 411.406646 
L 198.512294 414.133166 
L 199.35916 411.406646 
L 200.206026 414.133166 
L 201.052892 411.406646 
L 201.899758 419.586207 
L 202.746624 411.406646 
L 203.59349 414.133166 
L 204.440356 414.133166 
L 205.287222 411.406646 
L 206.134088 411.406646 
L 206.980954 416.859687 
L 207.82782 411.406646 
L 208.674686 416.859687 
L 209.521552 411.406646 
L 210.368418 419.586207 
L 212.06215 414.133166 
L 212.909015 414.133166 
L 213.755881 422.312727 
L 215.449613 411.406646 
L 216.296479 416.859687 
L 217.143345 414.133166 
L 217.990211 416.859687 
L 218.837077 414.133166 
L 219.683943 414.133166 
L 220.530809 419.586207 
L 221.377675 419.586207 
L 222.224541 414.133166 
L 223.071407 414.133166 
L 223.918273 419.586207 
L 224.765139 414.133166 
L 225.612005 419.586207 
L 226.458871 414.133166 
L 227.305737 419.586207 
L 228.999469 414.133166 
L 229.846335 416.859687 
L 230.693201 411.406646 
L 231.540067 416.859687 
L 232.386933 411.406646 
L 233.233799 416.859687 
L 234.080665 411.406646 
L 234.927531 416.859687 
L 235.774397 411.406646 
L 236.621263 416.859687 
L 237.468129 411.406646 
L 238.314995 414.133166 
L 239.161861 411.406646 
L 240.008727 414.133166 
L 240.855593 411.406646 
L 241.702459 411.406646 
L 242.549325 408.680125 
L 243.396191 414.133166 
L 244.243057 408.680125 
L 245.089923 411.406646 
L 245.936789 405.953605 
L 246.783655 405.953605 
L 247.630521 397.774044 
L 248.477387 403.227085 
L 249.324253 397.774044 
L 250.171119 397.774044 
L 251.017985 386.867962 
L 251.864851 386.867962 
L 252.711717 370.50884 
L 253.558583 370.50884 
L 254.405449 335.064075 
L 255.252315 326.884514 
L 256.099181 198.738056 
L 256.946047 182.378934 
L 257.792913 56.958997 
L 258.639779 51.505956 
L 259.486645 26.967273 
L 260.333511 40.599875 
L 261.180377 97.856803 
L 262.027243 106.036364 
L 262.874109 185.105455 
L 263.720975 187.831975 
L 264.567841 247.815423 
L 265.414707 250.541944 
L 266.261573 294.16627 
L 267.108439 294.16627 
L 267.955305 318.704953 
L 268.802171 321.431473 
L 269.649037 351.423197 
L 270.495903 354.149718 
L 271.342769 373.235361 
L 272.189635 373.235361 
L 273.036501 381.414922 
L 273.883367 384.141442 
L 274.730233 392.321003 
L 275.577099 392.321003 
L 276.423965 397.774044 
L 277.270831 397.774044 
L 278.117697 403.227085 
L 278.964563 403.227085 
L 279.811429 405.953605 
L 280.658295 403.227085 
L 281.505161 411.406646 
L 282.352027 411.406646 
L 283.198893 405.953605 
L 284.892625 411.406646 
L 285.739491 411.406646 
L 286.586357 408.680125 
L 287.433223 411.406646 
L 288.280088 408.680125 
L 289.97382 414.133166 
L 290.820686 411.406646 
L 291.667552 414.133166 
L 293.361284 408.680125 
L 294.20815 414.133166 
L 295.055016 411.406646 
L 295.901882 411.406646 
L 296.748748 408.680125 
L 297.595614 411.406646 
L 298.44248 405.953605 
L 299.289346 405.953605 
L 300.136212 403.227085 
L 300.983078 403.227085 
L 301.829944 397.774044 
L 302.67681 400.500564 
L 303.523676 395.047524 
L 304.370542 397.774044 
L 305.217408 403.227085 
L 306.064274 403.227085 
L 306.91114 408.680125 
L 307.758006 405.953605 
L 308.604872 411.406646 
L 309.451738 408.680125 
L 310.298604 414.133166 
L 311.14547 411.406646 
L 311.992336 416.859687 
L 312.839202 411.406646 
L 313.686068 419.586207 
L 314.532934 414.133166 
L 315.3798 416.859687 
L 316.226666 416.859687 
L 317.073532 411.406646 
L 317.920398 414.133166 
L 318.767264 419.586207 
L 319.61413 414.133166 
L 320.460996 419.586207 
L 321.307862 414.133166 
L 322.154728 419.586207 
L 323.001594 419.586207 
L 323.84846 414.133166 
L 324.695326 419.586207 
L 325.542192 414.133166 
L 326.389058 414.133166 
L 327.235924 422.312727 
L 329.776522 414.133166 
L 330.623388 422.312727 
L 331.470254 416.859687 
L 332.31712 419.586207 
L 333.163986 414.133166 
L 334.010852 419.586207 
L 334.857718 414.133166 
L 335.704584 422.312727 
L 337.398316 416.859687 
L 338.245182 416.859687 
L 339.092048 422.312727 
L 339.938914 419.586207 
L 340.78578 414.133166 
L 341.632646 416.859687 
L 342.479512 422.312727 
L 343.326378 419.586207 
L 344.173244 422.312727 
L 345.866976 416.859687 
L 346.713842 422.312727 
L 347.560708 416.859687 
L 348.407574 416.859687 
L 349.25444 422.312727 
L 350.101306 422.312727 
L 350.948172 414.133166 
L 351.795038 422.312727 
L 352.641904 416.859687 
L 353.48877 422.312727 
L 354.335636 416.859687 
L 355.182502 422.312727 
L 356.029368 419.586207 
L 356.876234 422.312727 
L 357.7231 416.859687 
L 358.569966 422.312727 
L 359.416832 416.859687 
L 361.110564 422.312727 
L 361.95743 422.312727 
L 362.804296 419.586207 
L 363.651162 419.586207 
L 364.498027 416.859687 
L 365.344893 422.312727 
L 366.191759 416.859687 
L 367.038625 422.312727 
L 367.885491 416.859687 
L 368.732357 416.859687 
L 369.579223 422.312727 
L 370.426089 416.859687 
L 371.272955 422.312727 
L 372.119821 416.859687 
L 372.966687 419.586207 
L 373.813553 416.859687 
L 374.660419 419.586207 
L 375.507285 419.586207 
L 376.354151 416.859687 
L 377.201017 419.586207 
L 378.047883 411.406646 
L 378.894749 411.406646 
L 379.741615 416.859687 
L 380.588481 411.406646 
L 381.435347 403.227085 
L 382.282213 403.227085 
L 383.129079 392.321003 
L 383.975945 392.321003 
L 384.822811 384.141442 
L 385.669677 384.141442 
L 386.516543 386.867962 
L 388.210275 381.414922 
L 389.057141 384.141442 
L 389.904007 392.321003 
L 390.750873 392.321003 
L 391.597739 397.774044 
L 392.444605 397.774044 
L 393.291471 405.953605 
L 394.138337 403.227085 
L 394.985203 408.680125 
L 395.832069 408.680125 
L 396.678935 414.133166 
L 397.525801 411.406646 
L 398.372667 416.859687 
L 399.219533 411.406646 
L 400.066399 419.586207 
L 400.913265 416.859687 
L 401.760131 408.680125 
L 402.606997 411.406646 
L 403.453863 419.586207 
L 404.300729 414.133166 
L 405.147595 416.859687 
L 405.994461 416.859687 
L 406.841327 414.133166 
L 407.688193 414.133166 
L 408.535059 419.586207 
L 409.381925 419.586207 
L 410.228791 411.406646 
L 411.075657 416.859687 
L 411.922523 411.406646 
L 412.769389 411.406646 
L 413.616255 416.859687 
L 414.463121 416.859687 
L 415.309987 411.406646 
L 416.156853 411.406646 
L 417.003719 414.133166 
L 418.697451 408.680125 
L 419.544317 411.406646 
L 420.391183 403.227085 
L 421.238049 411.406646 
L 422.084915 403.227085 
L 422.931781 403.227085 
L 423.778647 395.047524 
L 424.625513 395.047524 
L 425.472379 378.688401 
L 426.319245 373.235361 
L 427.166111 343.243636 
L 428.012977 340.517116 
L 428.859843 277.807147 
L 429.706709 272.354107 
L 430.553575 223.27674 
L 431.400441 220.550219 
L 432.247307 212.370658 
L 433.094173 217.823699 
L 433.941039 228.729781 
L 434.787905 231.456301 
L 435.634771 261.448025 
L 436.481637 264.174545 
L 437.328503 302.345831 
L 438.175369 305.072351 
L 439.022235 326.884514 
L 439.8691 326.884514 
L 440.715966 354.149718 
L 441.562832 354.149718 
L 442.409698 373.235361 
L 443.256564 373.235361 
L 444.10343 384.141442 
L 444.950296 384.141442 
L 445.797162 395.047524 
L 446.644028 392.321003 
L 447.490894 400.500564 
L 448.33776 400.500564 
L 449.184626 405.953605 
L 450.031492 405.953605 
L 450.878358 403.227085 
L 451.725224 405.953605 
L 452.57209 411.406646 
L 453.418956 411.406646 
L 454.265822 408.680125 
L 455.959554 414.133166 
L 456.80642 411.406646 
L 457.653286 414.133166 
L 458.500152 411.406646 
L 459.347018 416.859687 
L 460.193884 416.859687 
L 461.04075 411.406646 
L 462.734482 416.859687 
L 463.581348 416.859687 
L 464.428214 414.133166 
L 465.27508 419.586207 
L 466.121946 414.133166 
L 466.968812 414.133166 
L 467.815678 419.586207 
L 468.662544 419.586207 
L 469.50941 414.133166 
L 470.356276 419.586207 
L 471.203142 414.133166 
L 472.896874 419.586207 
L 473.74374 416.859687 
L 474.590606 422.312727 
L 475.437472 416.859687 
L 476.284338 422.312727 
L 477.131204 422.312727 
L 477.97807 416.859687 
L 478.824936 416.859687 
L 479.671802 422.312727 
L 480.518668 422.312727 
L 481.365534 416.859687 
L 483.059266 422.312727 
L 483.906132 422.312727 
L 484.752998 414.133166 
L 485.599864 419.586207 
L 486.44673 416.859687 
L 487.293596 422.312727 
L 488.140462 416.859687 
L 488.987328 416.859687 
L 489.834194 422.312727 
L 490.68106 419.586207 
L 491.527926 419.586207 
L 492.374792 422.312727 
L 493.221658 416.859687 
L 494.068524 422.312727 
L 494.91539 416.859687 
L 495.762256 416.859687 
L 496.609122 422.312727 
L 497.455988 422.312727 
L 498.302854 416.859687 
L 499.14972 419.586207 
L 499.996586 416.859687 
L 500.843452 422.312727 
L 501.690318 411.406646 
L 502.537184 419.586207 
L 503.38405 414.133166 
L 504.230916 422.312727 
L 505.077782 416.859687 
L 505.924648 419.586207 
L 506.771514 416.859687 
L 507.61838 419.586207 
L 508.465246 411.406646 
L 509.312112 419.586207 
L 510.158978 414.133166 
L 511.005844 416.859687 
L 511.85271 411.406646 
L 512.699576 419.586207 
L 513.546442 411.406646 
L 514.393308 414.133166 
L 515.240173 408.680125 
L 516.087039 411.406646 
L 516.933905 408.680125 
L 517.780771 408.680125 
L 518.627637 403.227085 
L 519.474503 405.953605 
L 520.321369 397.774044 
L 521.168235 400.500564 
L 522.015101 389.594483 
L 522.861967 389.594483 
L 523.708833 373.235361 
L 524.555699 370.50884 
L 525.402565 332.337555 
L 526.249431 321.431473 
L 527.096297 217.823699 
L 527.943163 206.917618 
L 528.790029 81.49768 
L 529.636895 70.591599 
L 530.483761 29.693793 
L 531.330627 29.693793 
L 532.177493 48.779436 
L 533.024359 51.505956 
L 533.871225 103.309843 
L 534.718091 111.489404 
L 535.564957 176.925893 
L 536.411823 179.652414 
L 537.258689 236.909342 
L 538.105555 245.088903 
L 538.952421 283.260188 
L 539.799287 285.986708 
L 540.646153 324.157994 
L 541.493019 329.611034 
L 542.339885 354.149718 
L 543.186751 354.149718 
L 544.033617 370.50884 
L 544.880483 370.50884 
L 545.727349 384.141442 
L 546.574215 384.141442 
L 547.421081 392.321003 
L 548.267947 389.594483 
L 549.114813 400.500564 
L 549.961679 397.774044 
L 550.808545 403.227085 
L 551.655411 403.227085 
L 552.502277 408.680125 
L 553.349143 403.227085 
L 554.196009 411.406646 
L 555.042875 408.680125 
L 555.889741 411.406646 
L 556.736607 411.406646 
L 557.583473 414.133166 
L 558.430339 414.133166 
L 559.277205 411.406646 
L 560.124071 411.406646 
L 560.970937 416.859687 
L 561.817803 411.406646 
L 562.664669 416.859687 
L 563.511535 414.133166 
L 564.358401 419.586207 
L 566.052133 414.133166 
L 566.898999 419.586207 
L 567.745865 411.406646 
L 568.592731 416.859687 
L 569.439597 411.406646 
L 570.286463 419.586207 
L 571.133329 411.406646 
L 571.980195 416.859687 
L 572.827061 411.406646 
L 573.673927 411.406646 
L 574.520793 408.680125 
L 575.367659 408.680125 
L 576.214525 403.227085 
L 577.061391 403.227085 
L 577.908257 400.500564 
L 578.755123 400.500564 
L 579.601989 403.227085 
L 579.601989 403.227085 
" style="fill:none;stroke:#000000;stroke-linecap:square;stroke-width:1.5;"/>
   </g>
   <g id="patch_3">
    <path d="M 46.965625 442.08 
L 46.965625 7.2 
" style="fill:none;stroke:#000000;stroke-linecap:square;stroke-linejoin:miter;stroke-width:0.8;"/>
   </g>
   <g id="patch_4">
    <path d="M 604.965625 442.08 
L 604.965625 7.2 
" style="fill:none;stroke:#000000;stroke-linecap:square;stroke-linejoin:miter;stroke-width:0.8;"/>
   </g>
   <g id="patch_5">
    <path d="M 46.965625 442.08 
L 604.965625 442.08 
" style="fill:none;stroke:#000000;stroke-linecap:square;stroke-linejoin:miter;stroke-width:0.8;"/>
   </g>
   <g id="patch_6">
    <path d="M 46.965625 7.2 
L 604.965625 7.2 
" style="fill:none;stroke:#000000;stroke-linecap:square;stroke-linejoin:miter;stroke-width:0.8;"/>
   </g>
  </g>
 </g>
 <defs>
  <clipPath id="pcbf9465aff">
   <rect height="434.88" width="558" x="46.965625" y="7.2"/>
  </clipPath>
 </defs>
</svg>
